999
dxfrw 0.6.3
  0
SECTION
  2
HEADER
  9
$ACADVER
  1
AC1021
  9
$DWGCODEPAGE
  3
ANSI_1252
  9
$INSBASE
 10
0
 20
0
 30
0
  9
$EXTMIN
 10
-4.440892098500626e-016
 20
-4.440892098500626e-016
 30
0
  9
$EXTMAX
 10
308.70035
 20
139.20016
 30
0
  9
$LIMMIN
 10
0
 20
0
  9
$LIMMAX
 10
420
 20
297
  9
$ORTHOMODE
 70
    0
  9
$REGENMODE
 70
    1
  9
$FILLMODE
 70
    1
  9
$QTEXTMODE
 70
    0
  9
$MIRRTEXT
 70
    0
  9
$LTSCALE
 40
1
  9
$ATTMODE
 70
    0
  9
$TEXTSIZE
 40
2.5
  9
$TRACEWID
 40
15.68
  9
$TEXTSTYLE
  7
STANDARD
  9
$CLAYER
  8
0
  9
$CELTYPE
  6
BYLAYER
  9
$CECOLOR
 62
  256
  9
$CELTSCALE
 40
1
  9
$DISPSILH
 70
    0
  9
$DIMSCALE
 40
2.5
  9
$DIMASZ
 40
2.5
  9
$DIMEXO
 40
0.625
  9
$DIMDLI
 40
3.75
  9
$DIMRND
 40
0
  9
$DIMDLE
 40
0
  9
$DIMEXE
 40
1.25
  9
$DIMTP
 40
0
  9
$DIMTM
 40
0
  9
$DIMTXT
 40
2.5
  9
$DIMCEN
 40
2.5
  9
$DIMTSZ
 40
0
  9
$DIMTOL
 70
    0
  9
$DIMLIM
 70
    0
  9
$DIMTIH
 70
    0
  9
$DIMTOH
 70
    0
  9
$DIMSE1
 70
    0
  9
$DIMSE2
 70
    0
  9
$DIMTAD
 70
    1
  9
$DIMZIN
 70
    8
  9
$DIMBLK
  1

  9
$DIMASO
 70
    1
  9
$DIMSHO
 70
    1
  9
$DIMPOST
  1

  9
$DIMAPOST
  1

  9
$DIMALT
 70
    0
  9
$DIMALTD
 70
    3
  9
$DIMALTF
 40
0.03937
  9
$DIMLFAC
 40
1
  9
$DIMTOFL
 70
    1
  9
$DIMTVP
 40
0
  9
$DIMTIX
 70
    0
  9
$DIMSOXD
 70
    0
  9
$DIMSAH
 70
    0
  9
$DIMBLK1
  1

  9
$DIMBLK2
  1

  9
$DIMSTYLE
  2
STANDARD
  9
$DIMCLRD
 70
    0
  9
$DIMCLRE
 70
    0
  9
$DIMCLRT
 70
    0
  9
$DIMTFAC
 40
1
  9
$DIMGAP
 40
0.625
  9
$DIMJUST
 70
    0
  9
$DIMSD1
 70
    0
  9
$DIMSD2
 70
    0
  9
$DIMTOLJ
 70
    0
  9
$DIMTZIN
 70
    8
  9
$DIMALTZ
 70
    0
  9
$DIMALTTZ
 70
    0
  9
$DIMUPT
 70
    0
  9
$DIMDEC
 70
    2
  9
$DIMTDEC
 70
    2
  9
$DIMALTU
 70
    2
  9
$DIMALTTD
 70
    3
  9
$DIMTXSTY
  7
STANDARD
  9
$DIMAUNIT
 70
    0
  9
$DIMADEC
 70
    0
  9
$DIMALTRND
 40
0
  9
$DIMAZIN
 70
    0
  9
$DIMDSEP
 70
   44
  9
$DIMATFIT
 70
    3
  9
$DIMFRAC
 70
    0
  9
$DIMLDRBLK
  1
STANDARD
  9
$DIMLUNIT
 70
    2
  9
$DIMLWD
 70
   -2
  9
$DIMLWE
 70
   -2
  9
$DIMTMOVE
 70
    0
  9
$DIMFXL
 40
1
  9
$DIMFXLON
 70
    0
  9
$DIMJOGANG
 40
0.7854
  9
$DIMTFILL
 70
    0
  9
$DIMTFILLCLR
 70
    0
  9
$DIMARCSYM
 70
    0
  9
$DIMLTYPE
  6

  9
$DIMLTEX1
  6

  9
$DIMLTEX2
  6

  9
$LUNITS
 70
    2
  9
$LUPREC
 70
    4
  9
$SKETCHINC
 40
1
  9
$FILLETRAD
 40
0
  9
$AUNITS
 70
    0
  9
$AUPREC
 70
    2
  9
$MENU
  1
.
  9
$ELEVATION
 40
0
  9
$PELEVATION
 40
0
  9
$THICKNESS
 40
0
  9
$LIMCHECK
 70
    0
  9
$CHAMFERA
 40
0
  9
$CHAMFERB
 40
0
  9
$CHAMFERC
 40
0
  9
$CHAMFERD
 40
0
  9
$SKPOLY
 70
    0
  9
$USRTIMER
 70
    1
  9
$ANGBASE
 50
0
  9
$ANGDIR
 70
    0
  9
$PDMODE
 70
   34
  9
$PDSIZE
 40
0
  9
$PLINEWID
 40
0
  9
$SPLFRAME
 70
    0
  9
$SPLINETYPE
 70
    2
  9
$SPLINESEGS
 70
    8
  9
$HANDSEED
  5
20000
  9
$SURFTAB1
 70
    6
  9
$SURFTAB2
 70
    6
  9
$SURFTYPE
 70
    6
  9
$SURFU
 70
    6
  9
$SURFV
 70
    6
  9
$UCSBASE
  2

  9
$UCSNAME
  2

  9
$UCSORG
 10
0
 20
0
 30
0
  9
$UCSXDIR
 10
1
 20
0
 30
0
  9
$UCSYDIR
 10
0
 20
1
 30
0
  9
$UCSORTHOREF
  2

  9
$UCSORTHOVIEW
 70
    0
  9
$UCSORGTOP
 10
0
 20
0
 30
0
  9
$UCSORGBOTTOM
 10
0
 20
0
 30
0
  9
$UCSORGLEFT
 10
0
 20
0
 30
0
  9
$UCSORGRIGHT
 10
0
 20
0
 30
0
  9
$UCSORGFRONT
 10
0
 20
0
 30
0
  9
$UCSORGBACK
 10
0
 20
0
 30
0
  9
$PUCSBASE
  2

  9
$PUCSNAME
  2

  9
$PUCSORG
 10
0
 20
0
 30
0
  9
$PUCSXDIR
 10
1
 20
0
 30
0
  9
$PUCSYDIR
 10
0
 20
1
 30
0
  9
$PUCSORTHOREF
  2

  9
$PUCSORTHOVIEW
 70
    0
  9
$PUCSORGTOP
 10
0
 20
0
 30
0
  9
$PUCSORGBOTTOM
 10
0
 20
0
 30
0
  9
$PUCSORGLEFT
 10
0
 20
0
 30
0
  9
$PUCSORGRIGHT
 10
0
 20
0
 30
0
  9
$PUCSORGFRONT
 10
0
 20
0
 30
0
  9
$PUCSORGBACK
 10
0
 20
0
 30
0
  9
$USERI1
 70
    0
  9
$USERI2
 70
    0
  9
$USERI3
 70
    0
  9
$USERI4
 70
    0
  9
$USERI5
 70
    0
  9
$USERR1
 40
0
  9
$USERR2
 40
0
  9
$USERR3
 40
0
  9
$USERR4
 40
0
  9
$USERR5
 40
0
  9
$WORLDVIEW
 70
    1
  9
$SHADEDGE
 70
    3
  9
$SHADEDIF
 70
   70
  9
$TILEMODE
 70
    1
  9
$MAXACTVP
 70
   64
  9
$PINSBASE
 10
0
 20
0
 30
0
  9
$PLIMCHECK
 70
    0
  9
$PEXTMIN
 10
0
 20
0
 30
0
  9
$PEXTMAX
 10
0
 20
0
 30
0
  9
$GRIDMODE
 70
    1
  9
$SNAPSTYLE
 70
    0
  9
$PLIMMIN
 10
0
 20
0
  9
$PLIMMAX
 10
11
 20
8.5
  9
$UNITMODE
 70
    0
  9
$VISRETAIN
 70
    1
  9
$PLINEGEN
 70
    0
  9
$PSLTSCALE
 70
    1
  9
$TREEDEPTH
 70
 3020
  9
$CMLSTYLE
  2
Standard
  9
$CMLJUST
 70
    0
  9
$CMLSCALE
 40
20
  9
$PROXYGRAPHICS
 70
    1
  9
$MEASUREMENT
 70
    1
  9
$CELWEIGHT
370
   -1
  9
$ENDCAPS
280
    0
  9
$JOINSTYLE
280
    0
  9
$LWDISPLAY
290
    0
  9
$INSUNITS
 70
    4
  9
$HYPERLINKBASE
  1

  9
$STYLESHEET
  1

  9
$XEDIT
290
    1
  9
$CEPSNTYPE
380
    0
  9
$PSTYLEMODE
290
    1
  9
$EXTNAMES
290
    1
  9
$PSVPSCALE
 40
1
  9
$OLESTARTUP
290
    0
  9
$SORTENTS
280
  127
  9
$INDEXCTL
280
    0
  9
$HIDETEXT
280
    1
  9
$XCLIPFRAME
290
    0
  9
$HALOGAP
280
    0
  9
$OBSCOLOR
 70
  257
  9
$OBSLTYPE
280
    0
  9
$INTERSECTIONDISPLAY
280
    0
  9
$INTERSECTIONCOLOR
 70
  257
  9
$DIMASSOC
280
    1
  9
$PROJECTNAME
  1

  9
$CAMERADISPLAY
290
    0
  9
$LENSLENGTH
 40
50
  9
$CAMERAHEIGHT
 40
0
  9
$STEPSPERSEC
 40
2
  9
$STEPSIZE
 40
50
  9
$3DDWFPREC
 40
2
  9
$PSOLWIDTH
 40
5
  9
$PSOLHEIGHT
 40
80
  9
$LOFTANG1
 40
1.570796326794897
  9
$LOFTANG2
 40
1.570796326794897
  9
$LOFTMAG1
 40
0
  9
$LOFTMAG2
 40
0
  9
$LOFTPARAM
 70
    7
  9
$LOFTNORMALS
280
    1
  9
$LATITUDE
 40
1
  9
$LONGITUDE
 40
1
  9
$NORTHDIRECTION
 40
0
  9
$TIMEZONE
 70
-8000
  9
$LIGHTGLYPHDISPLAY
280
    1
  9
$TILEMODELIGHTSYNCH
280
    1
  9
$SOLIDHIST
280
    1
  9
$SHOWHIST
280
    1
  9
$DWFFRAME
280
    2
  9
$DGNFRAME
280
    0
  9
$REALWORLDSCALE
290
    1
  9
$INTERFERECOLOR
 62
    1
  9
$CSHADOW
280
    0
  9
$SHADOWPLANELOCATION
 40
0
  0
ENDSEC
  0
SECTION
  2
CLASSES
  0
ENDSEC
  0
SECTION
  2
TABLES
  0
TABLE
  2
VPORT
  5
8
330
0
100
AcDbSymbolTable
 70
    1
  0
VPORT
  5
31
330
2
100
AcDbSymbolTableRecord
100
AcDbViewportTableRecord
  2
*ACTIVE
 70
    0
 10
0
 20
0
 11
1
 21
1
 12
261.7530021507664
 22
118.204792545542
 13
0
 23
0
 14
10
 24
10
 15
10
 25
10
 16
0
 26
0
 36
1
 17
0
 27
0
 37
0
 40
331.9794173619476
 41
1.867132867132867
 42
50
 43
0
 44
0
 50
0
 51
0
 71
    0
 72
  100
 73
    1
 74
    3
 75
    0
 76
    1
 77
    0
 78
    0
281
    0
 65
    1
110
0
120
0
130
0
111
1
121
0
131
0
112
0
122
1
132
0
 79
    0
146
0
348
10020
 60
    7
 61
    5
292
1
282
    1
141
0
142
0
 63
  250
421
3358443
  0
ENDTAB
  0
TABLE
  2
LTYPE
  5
5
330
0
100
AcDbSymbolTable
 70
    4
  0
LTYPE
  5
14
330
5
100
AcDbSymbolTableRecord
100
AcDbLinetypeTableRecord
  2
ByBlock
 70
    0
  3

 72
   65
 73
    0
 40
0
  0
LTYPE
  5
15
330
5
100
AcDbSymbolTableRecord
100
AcDbLinetypeTableRecord
  2
ByLayer
 70
    0
  3

 72
   65
 73
    0
 40
0
  0
LTYPE
  5
16
330
5
100
AcDbSymbolTableRecord
100
AcDbLinetypeTableRecord
  2
Continuous
 70
    0
  3
Solid line
 72
   65
 73
    0
 40
0
  0
LTYPE
  5
32
330
5
100
AcDbSymbolTableRecord
100
AcDbLinetypeTableRecord
  2
DOT
 70
    0
  3
Dot . . . . . . . . . . . . . . . . . . . . . .
 72
   65
 73
    2
 40
6.35
 49
0
 74
    0
 49
-6.35
 74
    0
  0
LTYPE
  5
33
330
5
100
AcDbSymbolTableRecord
100
AcDbLinetypeTableRecord
  2
DOTTINY
 70
    0
  3
Dot (.15x) .....................................
 72
   65
 73
    2
 40
0.9525
 49
0
 74
    0
 49
-0.9525
 74
    0
  0
LTYPE
  5
34
330
5
100
AcDbSymbolTableRecord
100
AcDbLinetypeTableRecord
  2
DOT2
 70
    0
  3
Dot (.5x) .....................................
 72
   65
 73
    2
 40
3.175
 49
0
 74
    0
 49
-3.175
 74
    0
  0
LTYPE
  5
35
330
5
100
AcDbSymbolTableRecord
100
AcDbLinetypeTableRecord
  2
DOTX2
 70
    0
  3
Dot (2x) .  .  .  .  .  .  .  .  .  .  .  .  .
 72
   65
 73
    2
 40
12.7
 49
0
 74
    0
 49
-12.7
 74
    0
  0
LTYPE
  5
36
330
5
100
AcDbSymbolTableRecord
100
AcDbLinetypeTableRecord
  2
DASHED
 70
    0
  3
Dashed _ _ _ _ _ _ _ _ _ _ _ _ _ _ _ _ _
 72
   65
 73
    2
 40
19.05
 49
12.7
 74
    0
 49
-6.35
 74
    0
  0
LTYPE
  5
37
330
5
100
AcDbSymbolTableRecord
100
AcDbLinetypeTableRecord
  2
DASHEDTINY
 70
    0
  3
Dashed (.15x) _ _ _ _ _ _ _ _ _ _ _ _ _ _ _ _ _
 72
   65
 73
    2
 40
2.8575
 49
1.905
 74
    0
 49
-0.9525
 74
    0
  0
LTYPE
  5
38
330
5
100
AcDbSymbolTableRecord
100
AcDbLinetypeTableRecord
  2
DASHED2
 70
    0
  3
Dashed (.5x) _ _ _ _ _ _ _ _ _ _ _ _ _ _ _ _ _
 72
   65
 73
    2
 40
9.524999999999999
 49
6.35
 74
    0
 49
-3.175
 74
    0
  0
LTYPE
  5
39
330
5
100
AcDbSymbolTableRecord
100
AcDbLinetypeTableRecord
  2
DASHEDX2
 70
    0
  3
Dashed (2x) ____  ____  ____  ____  ____  ___
 72
   65
 73
    2
 40
38.09999999999999
 49
25.4
 74
    0
 49
-12.7
 74
    0
  0
LTYPE
  5
3A
330
5
100
AcDbSymbolTableRecord
100
AcDbLinetypeTableRecord
  2
DASHDOT
 70
    0
  3
Dash dot __ . __ . __ . __ . __ . __ . __ . __
 72
   65
 73
    4
 40
25.4
 49
12.7
 74
    0
 49
-6.35
 74
    0
 49
0
 74
    0
 49
-6.35
 74
    0
  0
LTYPE
  5
3B
330
5
100
AcDbSymbolTableRecord
100
AcDbLinetypeTableRecord
  2
DASHDOTTINY
 70
    0
  3
Dash dot (.15x) _._._._._._._._._._._._._._._.
 72
   65
 73
    4
 40
3.81
 49
1.905
 74
    0
 49
-0.9525
 74
    0
 49
0
 74
    0
 49
-0.9525
 74
    0
  0
LTYPE
  5
3C
330
5
100
AcDbSymbolTableRecord
100
AcDbLinetypeTableRecord
  2
DASHDOT2
 70
    0
  3
Dash dot (.5x) _._._._._._._._._._._._._._._.
 72
   65
 73
    4
 40
12.7
 49
6.35
 74
    0
 49
-3.175
 74
    0
 49
0
 74
    0
 49
-3.175
 74
    0
  0
LTYPE
  5
3D
330
5
100
AcDbSymbolTableRecord
100
AcDbLinetypeTableRecord
  2
DASHDOTX2
 70
    0
  3
Dash dot (2x) ____  .  ____  .  ____  .  ___
 72
   65
 73
    4
 40
50.8
 49
25.4
 74
    0
 49
-12.7
 74
    0
 49
0
 74
    0
 49
-12.7
 74
    0
  0
LTYPE
  5
3E
330
5
100
AcDbSymbolTableRecord
100
AcDbLinetypeTableRecord
  2
DIVIDE
 70
    0
  3
Divide ____ . . ____ . . ____ . . ____ . . ____
 72
   65
 73
    6
 40
31.75
 49
12.7
 74
    0
 49
-6.35
 74
    0
 49
0
 74
    0
 49
-6.35
 74
    0
 49
0
 74
    0
 49
-6.35
 74
    0
  0
LTYPE
  5
3F
330
5
100
AcDbSymbolTableRecord
100
AcDbLinetypeTableRecord
  2
DIVIDETINY
 70
    0
  3
Divide (.15x) __..__..__..__..__..__..__..__.._
 72
   65
 73
    6
 40
4.7625
 49
1.905
 74
    0
 49
-0.9525
 74
    0
 49
0
 74
    0
 49
-0.9525
 74
    0
 49
0
 74
    0
 49
-0.9525
 74
    0
  0
LTYPE
  5
40
330
5
100
AcDbSymbolTableRecord
100
AcDbLinetypeTableRecord
  2
DIVIDE2
 70
    0
  3
Divide (.5x) __..__..__..__..__..__..__..__.._
 72
   65
 73
    6
 40
15.875
 49
6.35
 74
    0
 49
-3.175
 74
    0
 49
0
 74
    0
 49
-3.175
 74
    0
 49
0
 74
    0
 49
-3.175
 74
    0
  0
LTYPE
  5
41
330
5
100
AcDbSymbolTableRecord
100
AcDbLinetypeTableRecord
  2
DIVIDEX2
 70
    0
  3
Divide (2x) ________  .  .  ________  .  .  _
 72
   65
 73
    6
 40
63.5
 49
25.4
 74
    0
 49
-12.7
 74
    0
 49
0
 74
    0
 49
-12.7
 74
    0
 49
0
 74
    0
 49
-12.7
 74
    0
  0
LTYPE
  5
42
330
5
100
AcDbSymbolTableRecord
100
AcDbLinetypeTableRecord
  2
BORDER
 70
    0
  3
Border __ __ . __ __ . __ __ . __ __ . __ __ .
 72
   65
 73
    6
 40
44.45
 49
12.7
 74
    0
 49
-6.35
 74
    0
 49
12.7
 74
    0
 49
-6.35
 74
    0
 49
0
 74
    0
 49
-6.35
 74
    0
  0
LTYPE
  5
43
330
5
100
AcDbSymbolTableRecord
100
AcDbLinetypeTableRecord
  2
BORDERTINY
 70
    0
  3
Border (.15x) __.__.__.__.__.__.__.__.__.__.__.
 72
   65
 73
    6
 40
6.6675
 49
1.905
 74
    0
 49
-0.9525
 74
    0
 49
1.905
 74
    0
 49
-0.9525
 74
    0
 49
0
 74
    0
 49
-0.9525
 74
    0
  0
LTYPE
  5
44
330
5
100
AcDbSymbolTableRecord
100
AcDbLinetypeTableRecord
  2
BORDER2
 70
    0
  3
Border (.5x) __.__.__.__.__.__.__.__.__.__.__.
 72
   65
 73
    6
 40
22.225
 49
6.35
 74
    0
 49
-3.175
 74
    0
 49
6.35
 74
    0
 49
-3.175
 74
    0
 49
0
 74
    0
 49
-3.175
 74
    0
  0
LTYPE
  5
45
330
5
100
AcDbSymbolTableRecord
100
AcDbLinetypeTableRecord
  2
BORDERX2
 70
    0
  3
Border (2x) ____  ____  .  ____  ____  .  ___
 72
   65
 73
    6
 40
88.89999999999999
 49
25.4
 74
    0
 49
-12.7
 74
    0
 49
25.4
 74
    0
 49
-12.7
 74
    0
 49
0
 74
    0
 49
-12.7
 74
    0
  0
LTYPE
  5
46
330
5
100
AcDbSymbolTableRecord
100
AcDbLinetypeTableRecord
  2
CENTER
 70
    0
  3
Center ____ _ ____ _ ____ _ ____ _ ____ _ ____
 72
   65
 73
    4
 40
50.8
 49
31.75
 74
    0
 49
-6.35
 74
    0
 49
6.35
 74
    0
 49
-6.35
 74
    0
  0
LTYPE
  5
47
330
5
100
AcDbSymbolTableRecord
100
AcDbLinetypeTableRecord
  2
CENTERTINY
 70
    0
  3
Center (.15x) ___ _ ___ _ ___ _ ___ _ ___ _ ___
 72
   65
 73
    4
 40
7.62
 49
4.7625
 74
    0
 49
-0.9525
 74
    0
 49
0.9525
 74
    0
 49
-0.9525
 74
    0
  0
LTYPE
  5
48
330
5
100
AcDbSymbolTableRecord
100
AcDbLinetypeTableRecord
  2
CENTER2
 70
    0
  3
Center (.5x) ___ _ ___ _ ___ _ ___ _ ___ _ ___
 72
   65
 73
    4
 40
28.575
 49
19.05
 74
    0
 49
-3.175
 74
    0
 49
3.175
 74
    0
 49
-3.175
 74
    0
  0
LTYPE
  5
49
330
5
100
AcDbSymbolTableRecord
100
AcDbLinetypeTableRecord
  2
CENTERX2
 70
    0
  3
Center (2x) ________  __  ________  __  _____
 72
   65
 73
    4
 40
101.6
 49
63.5
 74
    0
 49
-12.7
 74
    0
 49
12.7
 74
    0
 49
-12.7
 74
    0
  0
ENDTAB
  0
TABLE
  2
LAYER
  5
2
330
0
100
AcDbSymbolTable
 70
    1
  0
LAYER
  5
10
330
2
100
AcDbSymbolTableRecord
100
AcDbLayerTableRecord
  2
0
 70
    0
 62
    7
  6
CONTINUOUS
370
    0
390
F
  0
ENDTAB
  0
TABLE
  2
STYLE
  5
3
330
0
100
AcDbSymbolTable
 70
    3
  0
STYLE
  5
4A
330
2
100
AcDbSymbolTableRecord
100
AcDbTextStyleTableRecord
  2
notes
 70
    0
 40
0
 41
1
 50
0
 71
    0
 42
1
  3
notes
  4

  0
STYLE
  5
4B
330
2
100
AcDbSymbolTableRecord
100
AcDbTextStyleTableRecord
  2
Standard
 70
    0
 40
0
 41
1
 50
0
 71
    0
 42
1
  3
txt
  4

  0
ENDTAB
  0
TABLE
  2
VIEW
  5
6
330
0
100
AcDbSymbolTable
 70
    0
  0
ENDTAB
  0
TABLE
  2
UCS
  5
7
330
0
100
AcDbSymbolTable
 70
    0
  0
ENDTAB
  0
TABLE
  2
APPID
  5
9
330
0
100
AcDbSymbolTable
 70
    1
  0
APPID
  5
12
330
9
100
AcDbSymbolTableRecord
100
AcDbRegAppTableRecord
  2
ACAD
 70
    0
  0
APPID
  5
4C
330
9
100
AcDbSymbolTableRecord
100
AcDbRegAppTableRecord
  2
LibreCad
 70
    0
  0
ENDTAB
  0
TABLE
  2
DIMSTYLE
  5
A
330
0
100
AcDbSymbolTable
 70
    1
100
AcDbDimStyleTable
 71
    1
  0
DIMSTYLE
105
4D
330
A
100
AcDbSymbolTableRecord
100
AcDbDimStyleTableRecord
  2
Standard
 70
    0
 40
2.5
 41
2.5
 42
0.625
 43
0.38
 44
1.25
 45
0
 46
0
 47
0
 48
0
 49
1
140
2.5
141
0.09
142
0
143
25.4
144
1
145
0
146
1
147
0.625
148
0
 71
    0
 72
    0
 73
    0
 74
    1
 75
    0
 76
    0
 77
    0
 78
    8
 79
    0
170
    0
171
    2
172
    0
173
    0
174
    0
175
    0
176
    0
177
    0
178
    0
179
    0
271
    2
272
    4
273
    2
274
    2
275
    0
276
    0
277
    2
278
   44
279
    0
280
    0
281
    0
282
    0
283
    1
284
    0
285
    0
286
    0
288
    0
289
    3
340
STANDARD
341

371
   -2
372
   -2
  0
ENDTAB
  0
TABLE
  2
BLOCK_RECORD
  5
1
330
0
100
AcDbSymbolTable
 70
    2
  0
BLOCK_RECORD
  5
1F
330
1
100
AcDbSymbolTableRecord
100
AcDbBlockTableRecord
  2
*Model_Space
 70
    0
280
    1
281
    0
  0
BLOCK_RECORD
  5
1E
330
1
100
AcDbSymbolTableRecord
100
AcDbBlockTableRecord
  2
*Paper_Space
 70
    0
280
    1
281
    0
  0
ENDTAB
  0
ENDSEC
  0
SECTION
  2
BLOCKS
  0
BLOCK
  5
20
330
1F
100
AcDbEntity
  8
0
100
AcDbBlockBegin
  2
*Model_Space
 70
    0
 10
0
 20
0
 30
0
  3
*Model_Space
  1

  0
ENDBLK
  5
21
330
1F
100
AcDbEntity
  8
0
100
AcDbBlockEnd
  0
BLOCK
  5
1C
330
1B
100
AcDbEntity
  8
0
100
AcDbBlockBegin
  2
*Paper_Space
 70
    0
 10
0
 20
0
 30
0
  3
*Paper_Space
  1

  0
ENDBLK
  5
1D
330
1F
100
AcDbEntity
  8
0
100
AcDbBlockEnd
  0
ENDSEC
  0
SECTION
  2
ENTITIES
  0
ARC
  5
4E
100
AcDbEntity
  8
0
  6
ByLayer
 62
  256
370
   -1
100
AcDbCircle
 10
300.70035
 20
131.20016
 40
1
100
AcDbArc
 50
0
 51
90
  0
LINE
  5
4F
100
AcDbEntity
  8
0
  6
ByLayer
 62
  256
370
   -1
100
AcDbLine
 10
300.70035
 20
132.20016
 11
8.000000000000004
 21
132.20016
  0
ARC
  5
50
100
AcDbEntity
  8
0
  6
ByLayer
 62
  256
370
   -1
100
AcDbCircle
 10
8
 20
131.20016
 40
1
100
AcDbArc
 50
89.99999999999984
 51
179.9999999999984
  0
ARC
  5
51
100
AcDbEntity
  8
0
  6
ByLayer
 62
  256
370
   -1
100
AcDbCircle
 10
8
 20
8.000000000000011
 40
1
100
AcDbArc
 50
180
 51
270.0000000000002
  0
LINE
  5
52
100
AcDbEntity
  8
0
  6
ByLayer
 62
  256
370
   -1
100
AcDbLine
 10
300.70035
 20
7.000000000000011
 11
8.000000000000004
 21
7.000000000000011
  0
ARC
  5
53
100
AcDbEntity
  8
0
  6
ByLayer
 62
  256
370
   -1
100
AcDbCircle
 10
300.70035
 20
8.000000000000011
 40
1
100
AcDbArc
 50
270
 51
0
  0
LINE
  5
54
100
AcDbEntity
  8
0
  6
ByLayer
 62
  256
370
   -1
100
AcDbLine
 10
7
 20
131.20016
 11
7
 21
8.000000000000011
  0
LINE
  5
55
100
AcDbEntity
  8
0
  6
ByLayer
 62
  256
370
   -1
100
AcDbLine
 10
14.09508451342554
 20
104.457853
 11
28.09508451342553
 21
104.457853
  0
LINE
  5
56
100
AcDbEntity
  8
0
  6
ByLayer
 62
  256
370
   -1
100
AcDbLine
 10
14.09508451342554
 20
90.45785300000001
 11
28.09508451342553
 21
90.45785300000001
  0
LINE
  5
57
100
AcDbEntity
  8
0
  6
ByLayer
 62
  256
370
   -1
100
AcDbLine
 10
14.09508451342554
 20
104.457853
 11
14.09508451342554
 21
90.45785300000001
  0
LINE
  5
58
100
AcDbEntity
  8
0
  6
ByLayer
 62
  256
370
   -1
100
AcDbLine
 10
28.09508451342553
 20
104.457853
 11
28.09508451342553
 21
90.45785300000001
  0
ARC
  5
59
100
AcDbEntity
  8
0
  6
ByLayer
 62
  256
370
   -1
100
AcDbCircle
 10
14.09508451342554
 20
104.457853
 40
0
100
AcDbArc
 50
90
 51
180
  0
ARC
  5
5A
100
AcDbEntity
  8
0
  6
ByLayer
 62
  256
370
   -1
100
AcDbCircle
 10
28.09508451342553
 20
104.457853
 40
0
100
AcDbArc
 50
0
 51
90
  0
ARC
  5
5B
100
AcDbEntity
  8
0
  6
ByLayer
 62
  256
370
   -1
100
AcDbCircle
 10
14.09508451342554
 20
90.45785300000001
 40
0
100
AcDbArc
 50
180
 51
270
  0
ARC
  5
5C
100
AcDbEntity
  8
0
  6
ByLayer
 62
  256
370
   -1
100
AcDbCircle
 10
28.09508451342553
 20
90.45785300000001
 40
0
100
AcDbArc
 50
270
 51
360
  0
LINE
  5
5D
100
AcDbEntity
  8
0
  6
ByLayer
 62
  256
370
   -1
100
AcDbLine
 10
33.14508451342553
 20
104.457853
 11
47.14508451342552
 21
104.457853
  0
LINE
  5
5E
100
AcDbEntity
  8
0
  6
ByLayer
 62
  256
370
   -1
100
AcDbLine
 10
33.14508451342553
 20
90.45785300000001
 11
47.14508451342552
 21
90.45785300000001
  0
LINE
  5
5F
100
AcDbEntity
  8
0
  6
ByLayer
 62
  256
370
   -1
100
AcDbLine
 10
33.14508451342553
 20
104.457853
 11
33.14508451342553
 21
90.45785300000001
  0
LINE
  5
60
100
AcDbEntity
  8
0
  6
ByLayer
 62
  256
370
   -1
100
AcDbLine
 10
47.14508451342552
 20
104.457853
 11
47.14508451342552
 21
90.45785300000001
  0
ARC
  5
61
100
AcDbEntity
  8
0
  6
ByLayer
 62
  256
370
   -1
100
AcDbCircle
 10
33.14508451342553
 20
104.457853
 40
0
100
AcDbArc
 50
90
 51
180
  0
ARC
  5
62
100
AcDbEntity
  8
0
  6
ByLayer
 62
  256
370
   -1
100
AcDbCircle
 10
47.14508451342552
 20
104.457853
 40
0
100
AcDbArc
 50
0
 51
90
  0
ARC
  5
63
100
AcDbEntity
  8
0
  6
ByLayer
 62
  256
370
   -1
100
AcDbCircle
 10
33.14508451342553
 20
90.45785300000001
 40
0
100
AcDbArc
 50
180
 51
270
  0
ARC
  5
64
100
AcDbEntity
  8
0
  6
ByLayer
 62
  256
370
   -1
100
AcDbCircle
 10
47.14508451342552
 20
90.45785300000001
 40
0
100
AcDbArc
 50
270
 51
360
  0
LINE
  5
65
100
AcDbEntity
  8
0
  6
ByLayer
 62
  256
370
   -1
100
AcDbLine
 10
52.19508451342553
 20
104.457853
 11
66.19508451342553
 21
104.457853
  0
LINE
  5
66
100
AcDbEntity
  8
0
  6
ByLayer
 62
  256
370
   -1
100
AcDbLine
 10
52.19508451342553
 20
90.45785300000001
 11
66.19508451342553
 21
90.45785300000001
  0
LINE
  5
67
100
AcDbEntity
  8
0
  6
ByLayer
 62
  256
370
   -1
100
AcDbLine
 10
52.19508451342553
 20
104.457853
 11
52.19508451342553
 21
90.45785300000001
  0
LINE
  5
68
100
AcDbEntity
  8
0
  6
ByLayer
 62
  256
370
   -1
100
AcDbLine
 10
66.19508451342553
 20
104.457853
 11
66.19508451342553
 21
90.45785300000001
  0
ARC
  5
69
100
AcDbEntity
  8
0
  6
ByLayer
 62
  256
370
   -1
100
AcDbCircle
 10
52.19508451342553
 20
104.457853
 40
0
100
AcDbArc
 50
90
 51
180
  0
ARC
  5
6A
100
AcDbEntity
  8
0
  6
ByLayer
 62
  256
370
   -1
100
AcDbCircle
 10
66.19508451342553
 20
104.457853
 40
0
100
AcDbArc
 50
0
 51
90
  0
ARC
  5
6B
100
AcDbEntity
  8
0
  6
ByLayer
 62
  256
370
   -1
100
AcDbCircle
 10
52.19508451342553
 20
90.45785300000001
 40
0
100
AcDbArc
 50
180
 51
270
  0
ARC
  5
6C
100
AcDbEntity
  8
0
  6
ByLayer
 62
  256
370
   -1
100
AcDbCircle
 10
66.19508451342553
 20
90.45785300000001
 40
0
100
AcDbArc
 50
270
 51
360
  0
LINE
  5
6D
100
AcDbEntity
  8
0
  6
ByLayer
 62
  256
370
   -1
100
AcDbLine
 10
71.24508451342552
 20
104.457853
 11
85.24508451342552
 21
104.457853
  0
LINE
  5
6E
100
AcDbEntity
  8
0
  6
ByLayer
 62
  256
370
   -1
100
AcDbLine
 10
71.24508451342552
 20
90.45785300000001
 11
85.24508451342552
 21
90.45785300000001
  0
LINE
  5
6F
100
AcDbEntity
  8
0
  6
ByLayer
 62
  256
370
   -1
100
AcDbLine
 10
71.24508451342552
 20
104.457853
 11
71.24508451342552
 21
90.45785300000001
  0
LINE
  5
70
100
AcDbEntity
  8
0
  6
ByLayer
 62
  256
370
   -1
100
AcDbLine
 10
85.24508451342552
 20
104.457853
 11
85.24508451342552
 21
90.45785300000001
  0
ARC
  5
71
100
AcDbEntity
  8
0
  6
ByLayer
 62
  256
370
   -1
100
AcDbCircle
 10
71.24508451342552
 20
104.457853
 40
0
100
AcDbArc
 50
90
 51
180
  0
ARC
  5
72
100
AcDbEntity
  8
0
  6
ByLayer
 62
  256
370
   -1
100
AcDbCircle
 10
85.24508451342552
 20
104.457853
 40
0
100
AcDbArc
 50
0
 51
90
  0
ARC
  5
73
100
AcDbEntity
  8
0
  6
ByLayer
 62
  256
370
   -1
100
AcDbCircle
 10
71.24508451342552
 20
90.45785300000001
 40
0
100
AcDbArc
 50
180
 51
270
  0
ARC
  5
74
100
AcDbEntity
  8
0
  6
ByLayer
 62
  256
370
   -1
100
AcDbCircle
 10
85.24508451342552
 20
90.45785300000001
 40
0
100
AcDbArc
 50
270
 51
360
  0
LINE
  5
75
100
AcDbEntity
  8
0
  6
ByLayer
 62
  256
370
   -1
100
AcDbLine
 10
90.29508451342552
 20
104.457853
 11
104.2950845134255
 21
104.457853
  0
LINE
  5
76
100
AcDbEntity
  8
0
  6
ByLayer
 62
  256
370
   -1
100
AcDbLine
 10
90.29508451342552
 20
90.45785300000001
 11
104.2950845134255
 21
90.45785300000001
  0
LINE
  5
77
100
AcDbEntity
  8
0
  6
ByLayer
 62
  256
370
   -1
100
AcDbLine
 10
90.29508451342552
 20
104.457853
 11
90.29508451342552
 21
90.45785300000001
  0
LINE
  5
78
100
AcDbEntity
  8
0
  6
ByLayer
 62
  256
370
   -1
100
AcDbLine
 10
104.2950845134255
 20
104.457853
 11
104.2950845134255
 21
90.45785300000001
  0
ARC
  5
79
100
AcDbEntity
  8
0
  6
ByLayer
 62
  256
370
   -1
100
AcDbCircle
 10
90.29508451342552
 20
104.457853
 40
0
100
AcDbArc
 50
90
 51
180
  0
ARC
  5
7A
100
AcDbEntity
  8
0
  6
ByLayer
 62
  256
370
   -1
100
AcDbCircle
 10
104.2950845134255
 20
104.457853
 40
0
100
AcDbArc
 50
0
 51
90
  0
ARC
  5
7B
100
AcDbEntity
  8
0
  6
ByLayer
 62
  256
370
   -1
100
AcDbCircle
 10
90.29508451342552
 20
90.45785300000001
 40
0
100
AcDbArc
 50
180
 51
270
  0
ARC
  5
7C
100
AcDbEntity
  8
0
  6
ByLayer
 62
  256
370
   -1
100
AcDbCircle
 10
104.2950845134255
 20
90.45785300000001
 40
0
100
AcDbArc
 50
270
 51
360
  0
LINE
  5
7D
100
AcDbEntity
  8
0
  6
ByLayer
 62
  256
370
   -1
100
AcDbLine
 10
109.3450845134255
 20
104.457853
 11
123.3450845134255
 21
104.457853
  0
LINE
  5
7E
100
AcDbEntity
  8
0
  6
ByLayer
 62
  256
370
   -1
100
AcDbLine
 10
109.3450845134255
 20
90.45785300000001
 11
123.3450845134255
 21
90.45785300000001
  0
LINE
  5
7F
100
AcDbEntity
  8
0
  6
ByLayer
 62
  256
370
   -1
100
AcDbLine
 10
109.3450845134255
 20
104.457853
 11
109.3450845134255
 21
90.45785300000001
  0
LINE
  5
80
100
AcDbEntity
  8
0
  6
ByLayer
 62
  256
370
   -1
100
AcDbLine
 10
123.3450845134255
 20
104.457853
 11
123.3450845134255
 21
90.45785300000001
  0
ARC
  5
81
100
AcDbEntity
  8
0
  6
ByLayer
 62
  256
370
   -1
100
AcDbCircle
 10
109.3450845134255
 20
104.457853
 40
0
100
AcDbArc
 50
90
 51
180
  0
ARC
  5
82
100
AcDbEntity
  8
0
  6
ByLayer
 62
  256
370
   -1
100
AcDbCircle
 10
123.3450845134255
 20
104.457853
 40
0
100
AcDbArc
 50
0
 51
90
  0
ARC
  5
83
100
AcDbEntity
  8
0
  6
ByLayer
 62
  256
370
   -1
100
AcDbCircle
 10
109.3450845134255
 20
90.45785300000001
 40
0
100
AcDbArc
 50
180
 51
270
  0
ARC
  5
84
100
AcDbEntity
  8
0
  6
ByLayer
 62
  256
370
   -1
100
AcDbCircle
 10
123.3450845134255
 20
90.45785300000001
 40
0
100
AcDbArc
 50
270
 51
360
  0
LINE
  5
85
100
AcDbEntity
  8
0
  6
ByLayer
 62
  256
370
   -1
100
AcDbLine
 10
128.3950845134255
 20
104.457853
 11
142.3950845134255
 21
104.457853
  0
LINE
  5
86
100
AcDbEntity
  8
0
  6
ByLayer
 62
  256
370
   -1
100
AcDbLine
 10
128.3950845134255
 20
90.45785300000001
 11
142.3950845134255
 21
90.45785300000001
  0
LINE
  5
87
100
AcDbEntity
  8
0
  6
ByLayer
 62
  256
370
   -1
100
AcDbLine
 10
128.3950845134255
 20
104.457853
 11
128.3950845134255
 21
90.45785300000001
  0
LINE
  5
88
100
AcDbEntity
  8
0
  6
ByLayer
 62
  256
370
   -1
100
AcDbLine
 10
142.3950845134255
 20
104.457853
 11
142.3950845134255
 21
90.45785300000001
  0
ARC
  5
89
100
AcDbEntity
  8
0
  6
ByLayer
 62
  256
370
   -1
100
AcDbCircle
 10
128.3950845134255
 20
104.457853
 40
0
100
AcDbArc
 50
90
 51
180
  0
ARC
  5
8A
100
AcDbEntity
  8
0
  6
ByLayer
 62
  256
370
   -1
100
AcDbCircle
 10
142.3950845134255
 20
104.457853
 40
0
100
AcDbArc
 50
0
 51
90
  0
ARC
  5
8B
100
AcDbEntity
  8
0
  6
ByLayer
 62
  256
370
   -1
100
AcDbCircle
 10
128.3950845134255
 20
90.45785300000001
 40
0
100
AcDbArc
 50
180
 51
270
  0
ARC
  5
8C
100
AcDbEntity
  8
0
  6
ByLayer
 62
  256
370
   -1
100
AcDbCircle
 10
142.3950845134255
 20
90.45785300000001
 40
0
100
AcDbArc
 50
270
 51
360
  0
LINE
  5
8D
100
AcDbEntity
  8
0
  6
ByLayer
 62
  256
370
   -1
100
AcDbLine
 10
147.4450845134255
 20
104.457853
 11
161.4450845134255
 21
104.457853
  0
LINE
  5
8E
100
AcDbEntity
  8
0
  6
ByLayer
 62
  256
370
   -1
100
AcDbLine
 10
147.4450845134255
 20
90.45785300000001
 11
161.4450845134255
 21
90.45785300000001
  0
LINE
  5
8F
100
AcDbEntity
  8
0
  6
ByLayer
 62
  256
370
   -1
100
AcDbLine
 10
147.4450845134255
 20
104.457853
 11
147.4450845134255
 21
90.45785300000001
  0
LINE
  5
90
100
AcDbEntity
  8
0
  6
ByLayer
 62
  256
370
   -1
100
AcDbLine
 10
161.4450845134255
 20
104.457853
 11
161.4450845134255
 21
90.45785300000001
  0
ARC
  5
91
100
AcDbEntity
  8
0
  6
ByLayer
 62
  256
370
   -1
100
AcDbCircle
 10
147.4450845134255
 20
104.457853
 40
0
100
AcDbArc
 50
90
 51
180
  0
ARC
  5
92
100
AcDbEntity
  8
0
  6
ByLayer
 62
  256
370
   -1
100
AcDbCircle
 10
161.4450845134255
 20
104.457853
 40
0
100
AcDbArc
 50
0
 51
90
  0
ARC
  5
93
100
AcDbEntity
  8
0
  6
ByLayer
 62
  256
370
   -1
100
AcDbCircle
 10
147.4450845134255
 20
90.45785300000001
 40
0
100
AcDbArc
 50
180
 51
270
  0
ARC
  5
94
100
AcDbEntity
  8
0
  6
ByLayer
 62
  256
370
   -1
100
AcDbCircle
 10
161.4450845134255
 20
90.45785300000001
 40
0
100
AcDbArc
 50
270
 51
360
  0
LINE
  5
95
100
AcDbEntity
  8
0
  6
ByLayer
 62
  256
370
   -1
100
AcDbLine
 10
166.4950845134256
 20
104.457853
 11
180.4950845134256
 21
104.457853
  0
LINE
  5
96
100
AcDbEntity
  8
0
  6
ByLayer
 62
  256
370
   -1
100
AcDbLine
 10
166.4950845134256
 20
90.45785300000001
 11
180.4950845134256
 21
90.45785300000001
  0
LINE
  5
97
100
AcDbEntity
  8
0
  6
ByLayer
 62
  256
370
   -1
100
AcDbLine
 10
166.4950845134256
 20
104.457853
 11
166.4950845134256
 21
90.45785300000001
  0
LINE
  5
98
100
AcDbEntity
  8
0
  6
ByLayer
 62
  256
370
   -1
100
AcDbLine
 10
180.4950845134256
 20
104.457853
 11
180.4950845134256
 21
90.45785300000001
  0
ARC
  5
99
100
AcDbEntity
  8
0
  6
ByLayer
 62
  256
370
   -1
100
AcDbCircle
 10
166.4950845134256
 20
104.457853
 40
0
100
AcDbArc
 50
90
 51
180
  0
ARC
  5
9A
100
AcDbEntity
  8
0
  6
ByLayer
 62
  256
370
   -1
100
AcDbCircle
 10
180.4950845134256
 20
104.457853
 40
0
100
AcDbArc
 50
0
 51
90
  0
ARC
  5
9B
100
AcDbEntity
  8
0
  6
ByLayer
 62
  256
370
   -1
100
AcDbCircle
 10
166.4950845134256
 20
90.45785300000001
 40
0
100
AcDbArc
 50
180
 51
270
  0
ARC
  5
9C
100
AcDbEntity
  8
0
  6
ByLayer
 62
  256
370
   -1
100
AcDbCircle
 10
180.4950845134256
 20
90.45785300000001
 40
0
100
AcDbArc
 50
270
 51
360
  0
LINE
  5
9D
100
AcDbEntity
  8
0
  6
ByLayer
 62
  256
370
   -1
100
AcDbLine
 10
185.5450845134255
 20
104.457853
 11
199.5450845134255
 21
104.457853
  0
LINE
  5
9E
100
AcDbEntity
  8
0
  6
ByLayer
 62
  256
370
   -1
100
AcDbLine
 10
185.5450845134255
 20
90.45785300000001
 11
199.5450845134255
 21
90.45785300000001
  0
LINE
  5
9F
100
AcDbEntity
  8
0
  6
ByLayer
 62
  256
370
   -1
100
AcDbLine
 10
185.5450845134255
 20
104.457853
 11
185.5450845134255
 21
90.45785300000001
  0
LINE
  5
A0
100
AcDbEntity
  8
0
  6
ByLayer
 62
  256
370
   -1
100
AcDbLine
 10
199.5450845134255
 20
104.457853
 11
199.5450845134255
 21
90.45785300000001
  0
ARC
  5
A1
100
AcDbEntity
  8
0
  6
ByLayer
 62
  256
370
   -1
100
AcDbCircle
 10
185.5450845134255
 20
104.457853
 40
0
100
AcDbArc
 50
90
 51
180
  0
ARC
  5
A2
100
AcDbEntity
  8
0
  6
ByLayer
 62
  256
370
   -1
100
AcDbCircle
 10
199.5450845134255
 20
104.457853
 40
0
100
AcDbArc
 50
0
 51
90
  0
ARC
  5
A3
100
AcDbEntity
  8
0
  6
ByLayer
 62
  256
370
   -1
100
AcDbCircle
 10
185.5450845134255
 20
90.45785300000001
 40
0
100
AcDbArc
 50
180
 51
270
  0
ARC
  5
A4
100
AcDbEntity
  8
0
  6
ByLayer
 62
  256
370
   -1
100
AcDbCircle
 10
199.5450845134255
 20
90.45785300000001
 40
0
100
AcDbArc
 50
270
 51
360
  0
LINE
  5
A5
100
AcDbEntity
  8
0
  6
ByLayer
 62
  256
370
   -1
100
AcDbLine
 10
204.5950845134256
 20
104.457853
 11
218.5950845134256
 21
104.457853
  0
LINE
  5
A6
100
AcDbEntity
  8
0
  6
ByLayer
 62
  256
370
   -1
100
AcDbLine
 10
204.5950845134256
 20
90.45785300000001
 11
218.5950845134256
 21
90.45785300000001
  0
LINE
  5
A7
100
AcDbEntity
  8
0
  6
ByLayer
 62
  256
370
   -1
100
AcDbLine
 10
204.5950845134256
 20
104.457853
 11
204.5950845134256
 21
90.45785300000001
  0
LINE
  5
A8
100
AcDbEntity
  8
0
  6
ByLayer
 62
  256
370
   -1
100
AcDbLine
 10
218.5950845134256
 20
104.457853
 11
218.5950845134256
 21
90.45785300000001
  0
ARC
  5
A9
100
AcDbEntity
  8
0
  6
ByLayer
 62
  256
370
   -1
100
AcDbCircle
 10
204.5950845134256
 20
104.457853
 40
0
100
AcDbArc
 50
90
 51
180
  0
ARC
  5
AA
100
AcDbEntity
  8
0
  6
ByLayer
 62
  256
370
   -1
100
AcDbCircle
 10
218.5950845134256
 20
104.457853
 40
0
100
AcDbArc
 50
0
 51
90
  0
ARC
  5
AB
100
AcDbEntity
  8
0
  6
ByLayer
 62
  256
370
   -1
100
AcDbCircle
 10
204.5950845134256
 20
90.45785300000001
 40
0
100
AcDbArc
 50
180
 51
270
  0
ARC
  5
AC
100
AcDbEntity
  8
0
  6
ByLayer
 62
  256
370
   -1
100
AcDbCircle
 10
218.5950845134256
 20
90.45785300000001
 40
0
100
AcDbArc
 50
270
 51
360
  0
LINE
  5
AD
100
AcDbEntity
  8
0
  6
ByLayer
 62
  256
370
   -1
100
AcDbLine
 10
223.6450845134255
 20
104.457853
 11
237.6450845134255
 21
104.457853
  0
LINE
  5
AE
100
AcDbEntity
  8
0
  6
ByLayer
 62
  256
370
   -1
100
AcDbLine
 10
223.6450845134255
 20
90.45785300000001
 11
237.6450845134255
 21
90.45785300000001
  0
LINE
  5
AF
100
AcDbEntity
  8
0
  6
ByLayer
 62
  256
370
   -1
100
AcDbLine
 10
223.6450845134255
 20
104.457853
 11
223.6450845134255
 21
90.45785300000001
  0
LINE
  5
B0
100
AcDbEntity
  8
0
  6
ByLayer
 62
  256
370
   -1
100
AcDbLine
 10
237.6450845134255
 20
104.457853
 11
237.6450845134255
 21
90.45785300000001
  0
ARC
  5
B1
100
AcDbEntity
  8
0
  6
ByLayer
 62
  256
370
   -1
100
AcDbCircle
 10
223.6450845134255
 20
104.457853
 40
0
100
AcDbArc
 50
90
 51
180
  0
ARC
  5
B2
100
AcDbEntity
  8
0
  6
ByLayer
 62
  256
370
   -1
100
AcDbCircle
 10
237.6450845134255
 20
104.457853
 40
0
100
AcDbArc
 50
0
 51
90
  0
ARC
  5
B3
100
AcDbEntity
  8
0
  6
ByLayer
 62
  256
370
   -1
100
AcDbCircle
 10
223.6450845134255
 20
90.45785300000001
 40
0
100
AcDbArc
 50
180
 51
270
  0
ARC
  5
B4
100
AcDbEntity
  8
0
  6
ByLayer
 62
  256
370
   -1
100
AcDbCircle
 10
237.6450845134255
 20
90.45785300000001
 40
0
100
AcDbArc
 50
270
 51
360
  0
LINE
  5
B5
100
AcDbEntity
  8
0
  6
ByLayer
 62
  256
370
   -1
100
AcDbLine
 10
242.6950845134255
 20
104.457853
 11
256.6950845134255
 21
104.457853
  0
LINE
  5
B6
100
AcDbEntity
  8
0
  6
ByLayer
 62
  256
370
   -1
100
AcDbLine
 10
242.6950845134255
 20
90.45785300000001
 11
256.6950845134255
 21
90.45785300000001
  0
LINE
  5
B7
100
AcDbEntity
  8
0
  6
ByLayer
 62
  256
370
   -1
100
AcDbLine
 10
242.6950845134255
 20
104.457853
 11
242.6950845134255
 21
90.45785300000001
  0
LINE
  5
B8
100
AcDbEntity
  8
0
  6
ByLayer
 62
  256
370
   -1
100
AcDbLine
 10
256.6950845134255
 20
104.457853
 11
256.6950845134255
 21
90.45785300000001
  0
ARC
  5
B9
100
AcDbEntity
  8
0
  6
ByLayer
 62
  256
370
   -1
100
AcDbCircle
 10
242.6950845134255
 20
104.457853
 40
0
100
AcDbArc
 50
90
 51
180
  0
ARC
  5
BA
100
AcDbEntity
  8
0
  6
ByLayer
 62
  256
370
   -1
100
AcDbCircle
 10
256.6950845134255
 20
104.457853
 40
0
100
AcDbArc
 50
0
 51
90
  0
ARC
  5
BB
100
AcDbEntity
  8
0
  6
ByLayer
 62
  256
370
   -1
100
AcDbCircle
 10
242.6950845134255
 20
90.45785300000001
 40
0
100
AcDbArc
 50
180
 51
270
  0
ARC
  5
BC
100
AcDbEntity
  8
0
  6
ByLayer
 62
  256
370
   -1
100
AcDbCircle
 10
256.6950845134255
 20
90.45785300000001
 40
0
100
AcDbArc
 50
270
 51
360
  0
LINE
  5
BD
100
AcDbEntity
  8
0
  6
ByLayer
 62
  256
370
   -1
100
AcDbLine
 10
261.7450845134255
 20
104.457853
 11
275.7450845134255
 21
104.457853
  0
LINE
  5
BE
100
AcDbEntity
  8
0
  6
ByLayer
 62
  256
370
   -1
100
AcDbLine
 10
261.7450845134255
 20
90.45785300000001
 11
275.7450845134255
 21
90.45785300000001
  0
LINE
  5
BF
100
AcDbEntity
  8
0
  6
ByLayer
 62
  256
370
   -1
100
AcDbLine
 10
261.7450845134255
 20
104.457853
 11
261.7450845134255
 21
90.45785300000001
  0
LINE
  5
C0
100
AcDbEntity
  8
0
  6
ByLayer
 62
  256
370
   -1
100
AcDbLine
 10
275.7450845134255
 20
104.457853
 11
275.7450845134255
 21
90.45785300000001
  0
ARC
  5
C1
100
AcDbEntity
  8
0
  6
ByLayer
 62
  256
370
   -1
100
AcDbCircle
 10
261.7450845134255
 20
104.457853
 40
0
100
AcDbArc
 50
90
 51
180
  0
ARC
  5
C2
100
AcDbEntity
  8
0
  6
ByLayer
 62
  256
370
   -1
100
AcDbCircle
 10
275.7450845134255
 20
104.457853
 40
0
100
AcDbArc
 50
0
 51
90
  0
ARC
  5
C3
100
AcDbEntity
  8
0
  6
ByLayer
 62
  256
370
   -1
100
AcDbCircle
 10
261.7450845134255
 20
90.45785300000001
 40
0
100
AcDbArc
 50
180
 51
270
  0
ARC
  5
C4
100
AcDbEntity
  8
0
  6
ByLayer
 62
  256
370
   -1
100
AcDbCircle
 10
275.7450845134255
 20
90.45785300000001
 40
0
100
AcDbArc
 50
270
 51
360
  0
LINE
  5
C5
100
AcDbEntity
  8
0
  6
ByLayer
 62
  256
370
   -1
100
AcDbLine
 10
280.7950845134255
 20
104.457853
 11
294.7950845134255
 21
104.457853
  0
LINE
  5
C6
100
AcDbEntity
  8
0
  6
ByLayer
 62
  256
370
   -1
100
AcDbLine
 10
280.7950845134255
 20
90.45785300000001
 11
294.7950845134255
 21
90.45785300000001
  0
LINE
  5
C7
100
AcDbEntity
  8
0
  6
ByLayer
 62
  256
370
   -1
100
AcDbLine
 10
280.7950845134255
 20
104.457853
 11
280.7950845134255
 21
90.45785300000001
  0
LINE
  5
C8
100
AcDbEntity
  8
0
  6
ByLayer
 62
  256
370
   -1
100
AcDbLine
 10
294.7950845134255
 20
104.457853
 11
294.7950845134255
 21
90.45785300000001
  0
ARC
  5
C9
100
AcDbEntity
  8
0
  6
ByLayer
 62
  256
370
   -1
100
AcDbCircle
 10
280.7950845134255
 20
104.457853
 40
0
100
AcDbArc
 50
90
 51
180
  0
ARC
  5
CA
100
AcDbEntity
  8
0
  6
ByLayer
 62
  256
370
   -1
100
AcDbCircle
 10
294.7950845134255
 20
104.457853
 40
0
100
AcDbArc
 50
0
 51
90
  0
ARC
  5
CB
100
AcDbEntity
  8
0
  6
ByLayer
 62
  256
370
   -1
100
AcDbCircle
 10
280.7950845134255
 20
90.45785300000001
 40
0
100
AcDbArc
 50
180
 51
270
  0
ARC
  5
CC
100
AcDbEntity
  8
0
  6
ByLayer
 62
  256
370
   -1
100
AcDbCircle
 10
294.7950845134255
 20
90.45785300000001
 40
0
100
AcDbArc
 50
270
 51
360
  0
LINE
  5
CD
100
AcDbEntity
  8
0
  6
ByLayer
 62
  256
370
   -1
100
AcDbLine
 10
18.85758451342553
 20
85.40785300000002
 11
32.85758451342554
 21
85.40785300000002
  0
LINE
  5
CE
100
AcDbEntity
  8
0
  6
ByLayer
 62
  256
370
   -1
100
AcDbLine
 10
18.85758451342553
 20
71.40785300000002
 11
32.85758451342554
 21
71.40785300000002
  0
LINE
  5
CF
100
AcDbEntity
  8
0
  6
ByLayer
 62
  256
370
   -1
100
AcDbLine
 10
18.85758451342553
 20
85.40785300000002
 11
18.85758451342553
 21
71.40785300000002
  0
LINE
  5
D0
100
AcDbEntity
  8
0
  6
ByLayer
 62
  256
370
   -1
100
AcDbLine
 10
32.85758451342554
 20
85.40785300000002
 11
32.85758451342554
 21
71.40785300000002
  0
ARC
  5
D1
100
AcDbEntity
  8
0
  6
ByLayer
 62
  256
370
   -1
100
AcDbCircle
 10
18.85758451342553
 20
85.40785300000002
 40
0
100
AcDbArc
 50
90
 51
180
  0
ARC
  5
D2
100
AcDbEntity
  8
0
  6
ByLayer
 62
  256
370
   -1
100
AcDbCircle
 10
32.85758451342554
 20
85.40785300000002
 40
0
100
AcDbArc
 50
0
 51
90
  0
ARC
  5
D3
100
AcDbEntity
  8
0
  6
ByLayer
 62
  256
370
   -1
100
AcDbCircle
 10
18.85758451342553
 20
71.40785300000002
 40
0
100
AcDbArc
 50
180
 51
270
  0
ARC
  5
D4
100
AcDbEntity
  8
0
  6
ByLayer
 62
  256
370
   -1
100
AcDbCircle
 10
32.85758451342554
 20
71.40785300000002
 40
0
100
AcDbArc
 50
270
 51
360
  0
LINE
  5
D5
100
AcDbEntity
  8
0
  6
ByLayer
 62
  256
370
   -1
100
AcDbLine
 10
42.67008451342554
 20
85.40785300000002
 11
56.67008451342554
 21
85.40785300000002
  0
LINE
  5
D6
100
AcDbEntity
  8
0
  6
ByLayer
 62
  256
370
   -1
100
AcDbLine
 10
42.67008451342554
 20
71.40785300000002
 11
56.67008451342554
 21
71.40785300000002
  0
LINE
  5
D7
100
AcDbEntity
  8
0
  6
ByLayer
 62
  256
370
   -1
100
AcDbLine
 10
42.67008451342554
 20
85.40785300000002
 11
42.67008451342554
 21
71.40785300000002
  0
LINE
  5
D8
100
AcDbEntity
  8
0
  6
ByLayer
 62
  256
370
   -1
100
AcDbLine
 10
56.67008451342554
 20
85.40785300000002
 11
56.67008451342554
 21
71.40785300000002
  0
ARC
  5
D9
100
AcDbEntity
  8
0
  6
ByLayer
 62
  256
370
   -1
100
AcDbCircle
 10
42.67008451342554
 20
85.40785300000002
 40
0
100
AcDbArc
 50
90
 51
180
  0
ARC
  5
DA
100
AcDbEntity
  8
0
  6
ByLayer
 62
  256
370
   -1
100
AcDbCircle
 10
56.67008451342554
 20
85.40785300000002
 40
0
100
AcDbArc
 50
0
 51
90
  0
ARC
  5
DB
100
AcDbEntity
  8
0
  6
ByLayer
 62
  256
370
   -1
100
AcDbCircle
 10
42.67008451342554
 20
71.40785300000002
 40
0
100
AcDbArc
 50
180
 51
270
  0
ARC
  5
DC
100
AcDbEntity
  8
0
  6
ByLayer
 62
  256
370
   -1
100
AcDbCircle
 10
56.67008451342554
 20
71.40785300000002
 40
0
100
AcDbArc
 50
270
 51
360
  0
LINE
  5
DD
100
AcDbEntity
  8
0
  6
ByLayer
 62
  256
370
   -1
100
AcDbLine
 10
61.72008451342553
 20
85.40785300000002
 11
75.72008451342553
 21
85.40785300000002
  0
LINE
  5
DE
100
AcDbEntity
  8
0
  6
ByLayer
 62
  256
370
   -1
100
AcDbLine
 10
61.72008451342553
 20
71.40785300000002
 11
75.72008451342553
 21
71.40785300000002
  0
LINE
  5
DF
100
AcDbEntity
  8
0
  6
ByLayer
 62
  256
370
   -1
100
AcDbLine
 10
61.72008451342553
 20
85.40785300000002
 11
61.72008451342553
 21
71.40785300000002
  0
LINE
  5
E0
100
AcDbEntity
  8
0
  6
ByLayer
 62
  256
370
   -1
100
AcDbLine
 10
75.72008451342553
 20
85.40785300000002
 11
75.72008451342553
 21
71.40785300000002
  0
ARC
  5
E1
100
AcDbEntity
  8
0
  6
ByLayer
 62
  256
370
   -1
100
AcDbCircle
 10
61.72008451342553
 20
85.40785300000002
 40
0
100
AcDbArc
 50
90
 51
180
  0
ARC
  5
E2
100
AcDbEntity
  8
0
  6
ByLayer
 62
  256
370
   -1
100
AcDbCircle
 10
75.72008451342553
 20
85.40785300000002
 40
0
100
AcDbArc
 50
0
 51
90
  0
ARC
  5
E3
100
AcDbEntity
  8
0
  6
ByLayer
 62
  256
370
   -1
100
AcDbCircle
 10
61.72008451342553
 20
71.40785300000002
 40
0
100
AcDbArc
 50
180
 51
270
  0
ARC
  5
E4
100
AcDbEntity
  8
0
  6
ByLayer
 62
  256
370
   -1
100
AcDbCircle
 10
75.72008451342553
 20
71.40785300000002
 40
0
100
AcDbArc
 50
270
 51
360
  0
LINE
  5
E5
100
AcDbEntity
  8
0
  6
ByLayer
 62
  256
370
   -1
100
AcDbLine
 10
80.77008451342553
 20
85.40785300000002
 11
94.77008451342553
 21
85.40785300000002
  0
LINE
  5
E6
100
AcDbEntity
  8
0
  6
ByLayer
 62
  256
370
   -1
100
AcDbLine
 10
80.77008451342553
 20
71.40785300000002
 11
94.77008451342553
 21
71.40785300000002
  0
LINE
  5
E7
100
AcDbEntity
  8
0
  6
ByLayer
 62
  256
370
   -1
100
AcDbLine
 10
80.77008451342553
 20
85.40785300000002
 11
80.77008451342553
 21
71.40785300000002
  0
LINE
  5
E8
100
AcDbEntity
  8
0
  6
ByLayer
 62
  256
370
   -1
100
AcDbLine
 10
94.77008451342553
 20
85.40785300000002
 11
94.77008451342553
 21
71.40785300000002
  0
ARC
  5
E9
100
AcDbEntity
  8
0
  6
ByLayer
 62
  256
370
   -1
100
AcDbCircle
 10
80.77008451342553
 20
85.40785300000002
 40
0
100
AcDbArc
 50
90
 51
180
  0
ARC
  5
EA
100
AcDbEntity
  8
0
  6
ByLayer
 62
  256
370
   -1
100
AcDbCircle
 10
94.77008451342553
 20
85.40785300000002
 40
0
100
AcDbArc
 50
0
 51
90
  0
ARC
  5
EB
100
AcDbEntity
  8
0
  6
ByLayer
 62
  256
370
   -1
100
AcDbCircle
 10
80.77008451342553
 20
71.40785300000002
 40
0
100
AcDbArc
 50
180
 51
270
  0
ARC
  5
EC
100
AcDbEntity
  8
0
  6
ByLayer
 62
  256
370
   -1
100
AcDbCircle
 10
94.77008451342553
 20
71.40785300000002
 40
0
100
AcDbArc
 50
270
 51
360
  0
LINE
  5
ED
100
AcDbEntity
  8
0
  6
ByLayer
 62
  256
370
   -1
100
AcDbLine
 10
99.82008451342553
 20
85.40785300000002
 11
113.8200845134255
 21
85.40785300000002
  0
LINE
  5
EE
100
AcDbEntity
  8
0
  6
ByLayer
 62
  256
370
   -1
100
AcDbLine
 10
99.82008451342553
 20
71.40785300000002
 11
113.8200845134255
 21
71.40785300000002
  0
LINE
  5
EF
100
AcDbEntity
  8
0
  6
ByLayer
 62
  256
370
   -1
100
AcDbLine
 10
99.82008451342553
 20
85.40785300000002
 11
99.82008451342553
 21
71.40785300000002
  0
LINE
  5
F0
100
AcDbEntity
  8
0
  6
ByLayer
 62
  256
370
   -1
100
AcDbLine
 10
113.8200845134255
 20
85.40785300000002
 11
113.8200845134255
 21
71.40785300000002
  0
ARC
  5
F1
100
AcDbEntity
  8
0
  6
ByLayer
 62
  256
370
   -1
100
AcDbCircle
 10
99.82008451342553
 20
85.40785300000002
 40
0
100
AcDbArc
 50
90
 51
180
  0
ARC
  5
F2
100
AcDbEntity
  8
0
  6
ByLayer
 62
  256
370
   -1
100
AcDbCircle
 10
113.8200845134255
 20
85.40785300000002
 40
0
100
AcDbArc
 50
0
 51
90
  0
ARC
  5
F3
100
AcDbEntity
  8
0
  6
ByLayer
 62
  256
370
   -1
100
AcDbCircle
 10
99.82008451342553
 20
71.40785300000002
 40
0
100
AcDbArc
 50
180
 51
270
  0
ARC
  5
F4
100
AcDbEntity
  8
0
  6
ByLayer
 62
  256
370
   -1
100
AcDbCircle
 10
113.8200845134255
 20
71.40785300000002
 40
0
100
AcDbArc
 50
270
 51
360
  0
LINE
  5
F5
100
AcDbEntity
  8
0
  6
ByLayer
 62
  256
370
   -1
100
AcDbLine
 10
118.8700845134255
 20
85.40785300000002
 11
132.8700845134255
 21
85.40785300000002
  0
LINE
  5
F6
100
AcDbEntity
  8
0
  6
ByLayer
 62
  256
370
   -1
100
AcDbLine
 10
118.8700845134255
 20
71.40785300000002
 11
132.8700845134255
 21
71.40785300000002
  0
LINE
  5
F7
100
AcDbEntity
  8
0
  6
ByLayer
 62
  256
370
   -1
100
AcDbLine
 10
118.8700845134255
 20
85.40785300000002
 11
118.8700845134255
 21
71.40785300000002
  0
LINE
  5
F8
100
AcDbEntity
  8
0
  6
ByLayer
 62
  256
370
   -1
100
AcDbLine
 10
132.8700845134255
 20
85.40785300000002
 11
132.8700845134255
 21
71.40785300000002
  0
ARC
  5
F9
100
AcDbEntity
  8
0
  6
ByLayer
 62
  256
370
   -1
100
AcDbCircle
 10
118.8700845134255
 20
85.40785300000002
 40
0
100
AcDbArc
 50
90
 51
180
  0
ARC
  5
FA
100
AcDbEntity
  8
0
  6
ByLayer
 62
  256
370
   -1
100
AcDbCircle
 10
132.8700845134255
 20
85.40785300000002
 40
0
100
AcDbArc
 50
0
 51
90
  0
ARC
  5
FB
100
AcDbEntity
  8
0
  6
ByLayer
 62
  256
370
   -1
100
AcDbCircle
 10
118.8700845134255
 20
71.40785300000002
 40
0
100
AcDbArc
 50
180
 51
270
  0
ARC
  5
FC
100
AcDbEntity
  8
0
  6
ByLayer
 62
  256
370
   -1
100
AcDbCircle
 10
132.8700845134255
 20
71.40785300000002
 40
0
100
AcDbArc
 50
270
 51
360
  0
LINE
  5
FD
100
AcDbEntity
  8
0
  6
ByLayer
 62
  256
370
   -1
100
AcDbLine
 10
137.9200845134255
 20
85.40785300000002
 11
151.9200845134255
 21
85.40785300000002
  0
LINE
  5
FE
100
AcDbEntity
  8
0
  6
ByLayer
 62
  256
370
   -1
100
AcDbLine
 10
137.9200845134255
 20
71.40785300000002
 11
151.9200845134255
 21
71.40785300000002
  0
LINE
  5
FF
100
AcDbEntity
  8
0
  6
ByLayer
 62
  256
370
   -1
100
AcDbLine
 10
137.9200845134255
 20
85.40785300000002
 11
137.9200845134255
 21
71.40785300000002
  0
LINE
  5
100
100
AcDbEntity
  8
0
  6
ByLayer
 62
  256
370
   -1
100
AcDbLine
 10
151.9200845134255
 20
85.40785300000002
 11
151.9200845134255
 21
71.40785300000002
  0
ARC
  5
101
100
AcDbEntity
  8
0
  6
ByLayer
 62
  256
370
   -1
100
AcDbCircle
 10
137.9200845134255
 20
85.40785300000002
 40
0
100
AcDbArc
 50
90
 51
180
  0
ARC
  5
102
100
AcDbEntity
  8
0
  6
ByLayer
 62
  256
370
   -1
100
AcDbCircle
 10
151.9200845134255
 20
85.40785300000002
 40
0
100
AcDbArc
 50
0
 51
90
  0
ARC
  5
103
100
AcDbEntity
  8
0
  6
ByLayer
 62
  256
370
   -1
100
AcDbCircle
 10
137.9200845134255
 20
71.40785300000002
 40
0
100
AcDbArc
 50
180
 51
270
  0
ARC
  5
104
100
AcDbEntity
  8
0
  6
ByLayer
 62
  256
370
   -1
100
AcDbCircle
 10
151.9200845134255
 20
71.40785300000002
 40
0
100
AcDbArc
 50
270
 51
360
  0
LINE
  5
105
100
AcDbEntity
  8
0
  6
ByLayer
 62
  256
370
   -1
100
AcDbLine
 10
156.9700845134256
 20
85.40785300000002
 11
170.9700845134256
 21
85.40785300000002
  0
LINE
  5
106
100
AcDbEntity
  8
0
  6
ByLayer
 62
  256
370
   -1
100
AcDbLine
 10
156.9700845134256
 20
71.40785300000002
 11
170.9700845134256
 21
71.40785300000002
  0
LINE
  5
107
100
AcDbEntity
  8
0
  6
ByLayer
 62
  256
370
   -1
100
AcDbLine
 10
156.9700845134256
 20
85.40785300000002
 11
156.9700845134256
 21
71.40785300000002
  0
LINE
  5
108
100
AcDbEntity
  8
0
  6
ByLayer
 62
  256
370
   -1
100
AcDbLine
 10
170.9700845134256
 20
85.40785300000002
 11
170.9700845134256
 21
71.40785300000002
  0
ARC
  5
109
100
AcDbEntity
  8
0
  6
ByLayer
 62
  256
370
   -1
100
AcDbCircle
 10
156.9700845134256
 20
85.40785300000002
 40
0
100
AcDbArc
 50
90
 51
180
  0
ARC
  5
10A
100
AcDbEntity
  8
0
  6
ByLayer
 62
  256
370
   -1
100
AcDbCircle
 10
170.9700845134256
 20
85.40785300000002
 40
0
100
AcDbArc
 50
0
 51
90
  0
ARC
  5
10B
100
AcDbEntity
  8
0
  6
ByLayer
 62
  256
370
   -1
100
AcDbCircle
 10
156.9700845134256
 20
71.40785300000002
 40
0
100
AcDbArc
 50
180
 51
270
  0
ARC
  5
10C
100
AcDbEntity
  8
0
  6
ByLayer
 62
  256
370
   -1
100
AcDbCircle
 10
170.9700845134256
 20
71.40785300000002
 40
0
100
AcDbArc
 50
270
 51
360
  0
LINE
  5
10D
100
AcDbEntity
  8
0
  6
ByLayer
 62
  256
370
   -1
100
AcDbLine
 10
176.0200845134255
 20
85.40785300000002
 11
190.0200845134255
 21
85.40785300000002
  0
LINE
  5
10E
100
AcDbEntity
  8
0
  6
ByLayer
 62
  256
370
   -1
100
AcDbLine
 10
176.0200845134255
 20
71.40785300000002
 11
190.0200845134255
 21
71.40785300000002
  0
LINE
  5
10F
100
AcDbEntity
  8
0
  6
ByLayer
 62
  256
370
   -1
100
AcDbLine
 10
176.0200845134255
 20
85.40785300000002
 11
176.0200845134255
 21
71.40785300000002
  0
LINE
  5
110
100
AcDbEntity
  8
0
  6
ByLayer
 62
  256
370
   -1
100
AcDbLine
 10
190.0200845134255
 20
85.40785300000002
 11
190.0200845134255
 21
71.40785300000002
  0
ARC
  5
111
100
AcDbEntity
  8
0
  6
ByLayer
 62
  256
370
   -1
100
AcDbCircle
 10
176.0200845134255
 20
85.40785300000002
 40
0
100
AcDbArc
 50
90
 51
180
  0
ARC
  5
112
100
AcDbEntity
  8
0
  6
ByLayer
 62
  256
370
   -1
100
AcDbCircle
 10
190.0200845134255
 20
85.40785300000002
 40
0
100
AcDbArc
 50
0
 51
90
  0
ARC
  5
113
100
AcDbEntity
  8
0
  6
ByLayer
 62
  256
370
   -1
100
AcDbCircle
 10
176.0200845134255
 20
71.40785300000002
 40
0
100
AcDbArc
 50
180
 51
270
  0
ARC
  5
114
100
AcDbEntity
  8
0
  6
ByLayer
 62
  256
370
   -1
100
AcDbCircle
 10
190.0200845134255
 20
71.40785300000002
 40
0
100
AcDbArc
 50
270
 51
360
  0
LINE
  5
115
100
AcDbEntity
  8
0
  6
ByLayer
 62
  256
370
   -1
100
AcDbLine
 10
195.0700845134255
 20
85.40785300000002
 11
209.0700845134255
 21
85.40785300000002
  0
LINE
  5
116
100
AcDbEntity
  8
0
  6
ByLayer
 62
  256
370
   -1
100
AcDbLine
 10
195.0700845134255
 20
71.40785300000002
 11
209.0700845134255
 21
71.40785300000002
  0
LINE
  5
117
100
AcDbEntity
  8
0
  6
ByLayer
 62
  256
370
   -1
100
AcDbLine
 10
195.0700845134255
 20
85.40785300000002
 11
195.0700845134255
 21
71.40785300000002
  0
LINE
  5
118
100
AcDbEntity
  8
0
  6
ByLayer
 62
  256
370
   -1
100
AcDbLine
 10
209.0700845134255
 20
85.40785300000002
 11
209.0700845134255
 21
71.40785300000002
  0
ARC
  5
119
100
AcDbEntity
  8
0
  6
ByLayer
 62
  256
370
   -1
100
AcDbCircle
 10
195.0700845134255
 20
85.40785300000002
 40
0
100
AcDbArc
 50
90
 51
180
  0
ARC
  5
11A
100
AcDbEntity
  8
0
  6
ByLayer
 62
  256
370
   -1
100
AcDbCircle
 10
209.0700845134255
 20
85.40785300000002
 40
0
100
AcDbArc
 50
0
 51
90
  0
ARC
  5
11B
100
AcDbEntity
  8
0
  6
ByLayer
 62
  256
370
   -1
100
AcDbCircle
 10
195.0700845134255
 20
71.40785300000002
 40
0
100
AcDbArc
 50
180
 51
270
  0
ARC
  5
11C
100
AcDbEntity
  8
0
  6
ByLayer
 62
  256
370
   -1
100
AcDbCircle
 10
209.0700845134255
 20
71.40785300000002
 40
0
100
AcDbArc
 50
270
 51
360
  0
LINE
  5
11D
100
AcDbEntity
  8
0
  6
ByLayer
 62
  256
370
   -1
100
AcDbLine
 10
214.1200845134256
 20
85.40785300000002
 11
228.1200845134256
 21
85.40785300000002
  0
LINE
  5
11E
100
AcDbEntity
  8
0
  6
ByLayer
 62
  256
370
   -1
100
AcDbLine
 10
214.1200845134256
 20
71.40785300000002
 11
228.1200845134256
 21
71.40785300000002
  0
LINE
  5
11F
100
AcDbEntity
  8
0
  6
ByLayer
 62
  256
370
   -1
100
AcDbLine
 10
214.1200845134256
 20
85.40785300000002
 11
214.1200845134256
 21
71.40785300000002
  0
LINE
  5
120
100
AcDbEntity
  8
0
  6
ByLayer
 62
  256
370
   -1
100
AcDbLine
 10
228.1200845134256
 20
85.40785300000002
 11
228.1200845134256
 21
71.40785300000002
  0
ARC
  5
121
100
AcDbEntity
  8
0
  6
ByLayer
 62
  256
370
   -1
100
AcDbCircle
 10
214.1200845134256
 20
85.40785300000002
 40
0
100
AcDbArc
 50
90
 51
180
  0
ARC
  5
122
100
AcDbEntity
  8
0
  6
ByLayer
 62
  256
370
   -1
100
AcDbCircle
 10
228.1200845134256
 20
85.40785300000002
 40
0
100
AcDbArc
 50
0
 51
90
  0
ARC
  5
123
100
AcDbEntity
  8
0
  6
ByLayer
 62
  256
370
   -1
100
AcDbCircle
 10
214.1200845134256
 20
71.40785300000002
 40
0
100
AcDbArc
 50
180
 51
270
  0
ARC
  5
124
100
AcDbEntity
  8
0
  6
ByLayer
 62
  256
370
   -1
100
AcDbCircle
 10
228.1200845134256
 20
71.40785300000002
 40
0
100
AcDbArc
 50
270
 51
360
  0
LINE
  5
125
100
AcDbEntity
  8
0
  6
ByLayer
 62
  256
370
   -1
100
AcDbLine
 10
233.1700845134255
 20
85.40785300000002
 11
247.1700845134255
 21
85.40785300000002
  0
LINE
  5
126
100
AcDbEntity
  8
0
  6
ByLayer
 62
  256
370
   -1
100
AcDbLine
 10
233.1700845134255
 20
71.40785300000002
 11
247.1700845134255
 21
71.40785300000002
  0
LINE
  5
127
100
AcDbEntity
  8
0
  6
ByLayer
 62
  256
370
   -1
100
AcDbLine
 10
233.1700845134255
 20
85.40785300000002
 11
233.1700845134255
 21
71.40785300000002
  0
LINE
  5
128
100
AcDbEntity
  8
0
  6
ByLayer
 62
  256
370
   -1
100
AcDbLine
 10
247.1700845134255
 20
85.40785300000002
 11
247.1700845134255
 21
71.40785300000002
  0
ARC
  5
129
100
AcDbEntity
  8
0
  6
ByLayer
 62
  256
370
   -1
100
AcDbCircle
 10
233.1700845134255
 20
85.40785300000002
 40
0
100
AcDbArc
 50
90
 51
180
  0
ARC
  5
12A
100
AcDbEntity
  8
0
  6
ByLayer
 62
  256
370
   -1
100
AcDbCircle
 10
247.1700845134255
 20
85.40785300000002
 40
0
100
AcDbArc
 50
0
 51
90
  0
ARC
  5
12B
100
AcDbEntity
  8
0
  6
ByLayer
 62
  256
370
   -1
100
AcDbCircle
 10
233.1700845134255
 20
71.40785300000002
 40
0
100
AcDbArc
 50
180
 51
270
  0
ARC
  5
12C
100
AcDbEntity
  8
0
  6
ByLayer
 62
  256
370
   -1
100
AcDbCircle
 10
247.1700845134255
 20
71.40785300000002
 40
0
100
AcDbArc
 50
270
 51
360
  0
LINE
  5
12D
100
AcDbEntity
  8
0
  6
ByLayer
 62
  256
370
   -1
100
AcDbLine
 10
252.2200845134256
 20
85.40785300000002
 11
266.2200845134256
 21
85.40785300000002
  0
LINE
  5
12E
100
AcDbEntity
  8
0
  6
ByLayer
 62
  256
370
   -1
100
AcDbLine
 10
252.2200845134256
 20
71.40785300000002
 11
266.2200845134256
 21
71.40785300000002
  0
LINE
  5
12F
100
AcDbEntity
  8
0
  6
ByLayer
 62
  256
370
   -1
100
AcDbLine
 10
252.2200845134256
 20
85.40785300000002
 11
252.2200845134256
 21
71.40785300000002
  0
LINE
  5
130
100
AcDbEntity
  8
0
  6
ByLayer
 62
  256
370
   -1
100
AcDbLine
 10
266.2200845134256
 20
85.40785300000002
 11
266.2200845134256
 21
71.40785300000002
  0
ARC
  5
131
100
AcDbEntity
  8
0
  6
ByLayer
 62
  256
370
   -1
100
AcDbCircle
 10
252.2200845134256
 20
85.40785300000002
 40
0
100
AcDbArc
 50
90
 51
180
  0
ARC
  5
132
100
AcDbEntity
  8
0
  6
ByLayer
 62
  256
370
   -1
100
AcDbCircle
 10
266.2200845134256
 20
85.40785300000002
 40
0
100
AcDbArc
 50
0
 51
90
  0
ARC
  5
133
100
AcDbEntity
  8
0
  6
ByLayer
 62
  256
370
   -1
100
AcDbCircle
 10
252.2200845134256
 20
71.40785300000002
 40
0
100
AcDbArc
 50
180
 51
270
  0
ARC
  5
134
100
AcDbEntity
  8
0
  6
ByLayer
 62
  256
370
   -1
100
AcDbCircle
 10
266.2200845134256
 20
71.40785300000002
 40
0
100
AcDbArc
 50
270
 51
360
  0
LINE
  5
135
100
AcDbEntity
  8
0
  6
ByLayer
 62
  256
370
   -1
100
AcDbLine
 10
276.0325845134255
 20
85.40785300000002
 11
290.0325845134255
 21
85.40785300000002
  0
LINE
  5
136
100
AcDbEntity
  8
0
  6
ByLayer
 62
  256
370
   -1
100
AcDbLine
 10
276.0325845134255
 20
71.40785300000002
 11
290.0325845134255
 21
71.40785300000002
  0
LINE
  5
137
100
AcDbEntity
  8
0
  6
ByLayer
 62
  256
370
   -1
100
AcDbLine
 10
276.0325845134255
 20
85.40785300000002
 11
276.0325845134255
 21
71.40785300000002
  0
LINE
  5
138
100
AcDbEntity
  8
0
  6
ByLayer
 62
  256
370
   -1
100
AcDbLine
 10
290.0325845134255
 20
85.40785300000002
 11
290.0325845134255
 21
71.40785300000002
  0
ARC
  5
139
100
AcDbEntity
  8
0
  6
ByLayer
 62
  256
370
   -1
100
AcDbCircle
 10
276.0325845134255
 20
85.40785300000002
 40
0
100
AcDbArc
 50
90
 51
180
  0
ARC
  5
13A
100
AcDbEntity
  8
0
  6
ByLayer
 62
  256
370
   -1
100
AcDbCircle
 10
290.0325845134255
 20
85.40785300000002
 40
0
100
AcDbArc
 50
0
 51
90
  0
ARC
  5
13B
100
AcDbEntity
  8
0
  6
ByLayer
 62
  256
370
   -1
100
AcDbCircle
 10
276.0325845134255
 20
71.40785300000002
 40
0
100
AcDbArc
 50
180
 51
270
  0
ARC
  5
13C
100
AcDbEntity
  8
0
  6
ByLayer
 62
  256
370
   -1
100
AcDbCircle
 10
290.0325845134255
 20
71.40785300000002
 40
0
100
AcDbArc
 50
270
 51
360
  0
LINE
  5
13D
100
AcDbEntity
  8
0
  6
ByLayer
 62
  256
370
   -1
100
AcDbLine
 10
21.23883451342553
 20
66.35785300000002
 11
35.23883451342553
 21
66.35785300000002
  0
LINE
  5
13E
100
AcDbEntity
  8
0
  6
ByLayer
 62
  256
370
   -1
100
AcDbLine
 10
21.23883451342553
 20
52.35785300000002
 11
35.23883451342553
 21
52.35785300000002
  0
LINE
  5
13F
100
AcDbEntity
  8
0
  6
ByLayer
 62
  256
370
   -1
100
AcDbLine
 10
35.23883451342553
 20
66.35785300000002
 11
35.23883451342553
 21
52.35785300000002
  0
ARC
  5
140
100
AcDbEntity
  8
0
  6
ByLayer
 62
  256
370
   -1
100
AcDbCircle
 10
21.23883451342553
 20
66.35785300000002
 40
0
100
AcDbArc
 50
90
 51
180
  0
ARC
  5
141
100
AcDbEntity
  8
0
  6
ByLayer
 62
  256
370
   -1
100
AcDbCircle
 10
35.23883451342553
 20
66.35785300000002
 40
0
100
AcDbArc
 50
0
 51
90
  0
ARC
  5
142
100
AcDbEntity
  8
0
  6
ByLayer
 62
  256
370
   -1
100
AcDbCircle
 10
21.23883451342553
 20
52.35785300000002
 40
0
100
AcDbArc
 50
180
 51
270
  0
ARC
  5
143
100
AcDbEntity
  8
0
  6
ByLayer
 62
  256
370
   -1
100
AcDbCircle
 10
35.23883451342553
 20
52.35785300000002
 40
0
100
AcDbArc
 50
270
 51
360
  0
LINE
  5
144
100
AcDbEntity
  8
0
  6
ByLayer
 62
  256
370
   -1
100
AcDbLine
 10
16.47633451342554
 20
66.35785300000002
 11
30.47633451342554
 21
66.35785300000002
  0
LINE
  5
145
100
AcDbEntity
  8
0
  6
ByLayer
 62
  256
370
   -1
100
AcDbLine
 10
16.47633451342554
 20
52.35785300000002
 11
30.47633451342554
 21
52.35785300000002
  0
LINE
  5
146
100
AcDbEntity
  8
0
  6
ByLayer
 62
  256
370
   -1
100
AcDbLine
 10
16.47633451342554
 20
66.35785300000002
 11
16.47633451342554
 21
52.35785300000002
  0
ARC
  5
147
100
AcDbEntity
  8
0
  6
ByLayer
 62
  256
370
   -1
100
AcDbCircle
 10
16.47633451342554
 20
66.35785300000002
 40
0
100
AcDbArc
 50
90
 51
180
  0
ARC
  5
148
100
AcDbEntity
  8
0
  6
ByLayer
 62
  256
370
   -1
100
AcDbCircle
 10
30.47633451342554
 20
66.35785300000002
 40
0
100
AcDbArc
 50
0
 51
90
  0
ARC
  5
149
100
AcDbEntity
  8
0
  6
ByLayer
 62
  256
370
   -1
100
AcDbCircle
 10
16.47633451342554
 20
52.35785300000002
 40
0
100
AcDbArc
 50
180
 51
270
  0
ARC
  5
14A
100
AcDbEntity
  8
0
  6
ByLayer
 62
  256
370
   -1
100
AcDbCircle
 10
30.47633451342554
 20
52.35785300000002
 40
0
100
AcDbArc
 50
270
 51
360
  0
LINE
  5
14B
100
AcDbEntity
  8
0
  6
ByLayer
 62
  256
370
   -1
100
AcDbLine
 10
47.43258451342552
 20
66.35785300000002
 11
61.43258451342552
 21
66.35785300000002
  0
LINE
  5
14C
100
AcDbEntity
  8
0
  6
ByLayer
 62
  256
370
   -1
100
AcDbLine
 10
47.43258451342552
 20
52.35785300000002
 11
61.43258451342552
 21
52.35785300000002
  0
LINE
  5
14D
100
AcDbEntity
  8
0
  6
ByLayer
 62
  256
370
   -1
100
AcDbLine
 10
47.43258451342552
 20
66.35785300000002
 11
47.43258451342552
 21
52.35785300000002
  0
LINE
  5
14E
100
AcDbEntity
  8
0
  6
ByLayer
 62
  256
370
   -1
100
AcDbLine
 10
61.43258451342552
 20
66.35785300000002
 11
61.43258451342552
 21
52.35785300000002
  0
ARC
  5
14F
100
AcDbEntity
  8
0
  6
ByLayer
 62
  256
370
   -1
100
AcDbCircle
 10
47.43258451342552
 20
66.35785300000002
 40
0
100
AcDbArc
 50
90
 51
180
  0
ARC
  5
150
100
AcDbEntity
  8
0
  6
ByLayer
 62
  256
370
   -1
100
AcDbCircle
 10
61.43258451342552
 20
66.35785300000002
 40
0
100
AcDbArc
 50
0
 51
90
  0
ARC
  5
151
100
AcDbEntity
  8
0
  6
ByLayer
 62
  256
370
   -1
100
AcDbCircle
 10
47.43258451342552
 20
52.35785300000002
 40
0
100
AcDbArc
 50
180
 51
270
  0
ARC
  5
152
100
AcDbEntity
  8
0
  6
ByLayer
 62
  256
370
   -1
100
AcDbCircle
 10
61.43258451342552
 20
52.35785300000002
 40
0
100
AcDbArc
 50
270
 51
360
  0
LINE
  5
153
100
AcDbEntity
  8
0
  6
ByLayer
 62
  256
370
   -1
100
AcDbLine
 10
66.48258451342554
 20
66.35785300000002
 11
80.48258451342552
 21
66.35785300000002
  0
LINE
  5
154
100
AcDbEntity
  8
0
  6
ByLayer
 62
  256
370
   -1
100
AcDbLine
 10
66.48258451342554
 20
52.35785300000002
 11
80.48258451342552
 21
52.35785300000002
  0
LINE
  5
155
100
AcDbEntity
  8
0
  6
ByLayer
 62
  256
370
   -1
100
AcDbLine
 10
66.48258451342554
 20
66.35785300000002
 11
66.48258451342554
 21
52.35785300000002
  0
LINE
  5
156
100
AcDbEntity
  8
0
  6
ByLayer
 62
  256
370
   -1
100
AcDbLine
 10
80.48258451342552
 20
66.35785300000002
 11
80.48258451342552
 21
52.35785300000002
  0
ARC
  5
157
100
AcDbEntity
  8
0
  6
ByLayer
 62
  256
370
   -1
100
AcDbCircle
 10
66.48258451342554
 20
66.35785300000002
 40
0
100
AcDbArc
 50
90
 51
180
  0
ARC
  5
158
100
AcDbEntity
  8
0
  6
ByLayer
 62
  256
370
   -1
100
AcDbCircle
 10
80.48258451342552
 20
66.35785300000002
 40
0
100
AcDbArc
 50
0
 51
90
  0
ARC
  5
159
100
AcDbEntity
  8
0
  6
ByLayer
 62
  256
370
   -1
100
AcDbCircle
 10
66.48258451342554
 20
52.35785300000002
 40
0
100
AcDbArc
 50
180
 51
270
  0
ARC
  5
15A
100
AcDbEntity
  8
0
  6
ByLayer
 62
  256
370
   -1
100
AcDbCircle
 10
80.48258451342552
 20
52.35785300000002
 40
0
100
AcDbArc
 50
270
 51
360
  0
LINE
  5
15B
100
AcDbEntity
  8
0
  6
ByLayer
 62
  256
370
   -1
100
AcDbLine
 10
85.53258451342553
 20
66.35785300000002
 11
99.53258451342553
 21
66.35785300000002
  0
LINE
  5
15C
100
AcDbEntity
  8
0
  6
ByLayer
 62
  256
370
   -1
100
AcDbLine
 10
85.53258451342553
 20
52.35785300000002
 11
99.53258451342553
 21
52.35785300000002
  0
LINE
  5
15D
100
AcDbEntity
  8
0
  6
ByLayer
 62
  256
370
   -1
100
AcDbLine
 10
85.53258451342553
 20
66.35785300000002
 11
85.53258451342553
 21
52.35785300000002
  0
LINE
  5
15E
100
AcDbEntity
  8
0
  6
ByLayer
 62
  256
370
   -1
100
AcDbLine
 10
99.53258451342553
 20
66.35785300000002
 11
99.53258451342553
 21
52.35785300000002
  0
ARC
  5
15F
100
AcDbEntity
  8
0
  6
ByLayer
 62
  256
370
   -1
100
AcDbCircle
 10
85.53258451342553
 20
66.35785300000002
 40
0
100
AcDbArc
 50
90
 51
180
  0
ARC
  5
160
100
AcDbEntity
  8
0
  6
ByLayer
 62
  256
370
   -1
100
AcDbCircle
 10
99.53258451342553
 20
66.35785300000002
 40
0
100
AcDbArc
 50
0
 51
90
  0
ARC
  5
161
100
AcDbEntity
  8
0
  6
ByLayer
 62
  256
370
   -1
100
AcDbCircle
 10
85.53258451342553
 20
52.35785300000002
 40
0
100
AcDbArc
 50
180
 51
270
  0
ARC
  5
162
100
AcDbEntity
  8
0
  6
ByLayer
 62
  256
370
   -1
100
AcDbCircle
 10
99.53258451342553
 20
52.35785300000002
 40
0
100
AcDbArc
 50
270
 51
360
  0
LINE
  5
163
100
AcDbEntity
  8
0
  6
ByLayer
 62
  256
370
   -1
100
AcDbLine
 10
104.5825845134255
 20
66.35785300000002
 11
118.5825845134255
 21
66.35785300000002
  0
LINE
  5
164
100
AcDbEntity
  8
0
  6
ByLayer
 62
  256
370
   -1
100
AcDbLine
 10
104.5825845134255
 20
52.35785300000002
 11
118.5825845134255
 21
52.35785300000002
  0
LINE
  5
165
100
AcDbEntity
  8
0
  6
ByLayer
 62
  256
370
   -1
100
AcDbLine
 10
104.5825845134255
 20
66.35785300000002
 11
104.5825845134255
 21
52.35785300000002
  0
LINE
  5
166
100
AcDbEntity
  8
0
  6
ByLayer
 62
  256
370
   -1
100
AcDbLine
 10
118.5825845134255
 20
66.35785300000002
 11
118.5825845134255
 21
52.35785300000002
  0
ARC
  5
167
100
AcDbEntity
  8
0
  6
ByLayer
 62
  256
370
   -1
100
AcDbCircle
 10
104.5825845134255
 20
66.35785300000002
 40
0
100
AcDbArc
 50
90
 51
180
  0
ARC
  5
168
100
AcDbEntity
  8
0
  6
ByLayer
 62
  256
370
   -1
100
AcDbCircle
 10
118.5825845134255
 20
66.35785300000002
 40
0
100
AcDbArc
 50
0
 51
90
  0
ARC
  5
169
100
AcDbEntity
  8
0
  6
ByLayer
 62
  256
370
   -1
100
AcDbCircle
 10
104.5825845134255
 20
52.35785300000002
 40
0
100
AcDbArc
 50
180
 51
270
  0
ARC
  5
16A
100
AcDbEntity
  8
0
  6
ByLayer
 62
  256
370
   -1
100
AcDbCircle
 10
118.5825845134255
 20
52.35785300000002
 40
0
100
AcDbArc
 50
270
 51
360
  0
LINE
  5
16B
100
AcDbEntity
  8
0
  6
ByLayer
 62
  256
370
   -1
100
AcDbLine
 10
123.6325845134255
 20
66.35785300000002
 11
137.6325845134255
 21
66.35785300000002
  0
LINE
  5
16C
100
AcDbEntity
  8
0
  6
ByLayer
 62
  256
370
   -1
100
AcDbLine
 10
123.6325845134255
 20
52.35785300000002
 11
137.6325845134255
 21
52.35785300000002
  0
LINE
  5
16D
100
AcDbEntity
  8
0
  6
ByLayer
 62
  256
370
   -1
100
AcDbLine
 10
123.6325845134255
 20
66.35785300000002
 11
123.6325845134255
 21
52.35785300000002
  0
LINE
  5
16E
100
AcDbEntity
  8
0
  6
ByLayer
 62
  256
370
   -1
100
AcDbLine
 10
137.6325845134255
 20
66.35785300000002
 11
137.6325845134255
 21
52.35785300000002
  0
ARC
  5
16F
100
AcDbEntity
  8
0
  6
ByLayer
 62
  256
370
   -1
100
AcDbCircle
 10
123.6325845134255
 20
66.35785300000002
 40
0
100
AcDbArc
 50
90
 51
180
  0
ARC
  5
170
100
AcDbEntity
  8
0
  6
ByLayer
 62
  256
370
   -1
100
AcDbCircle
 10
137.6325845134255
 20
66.35785300000002
 40
0
100
AcDbArc
 50
0
 51
90
  0
ARC
  5
171
100
AcDbEntity
  8
0
  6
ByLayer
 62
  256
370
   -1
100
AcDbCircle
 10
123.6325845134255
 20
52.35785300000002
 40
0
100
AcDbArc
 50
180
 51
270
  0
ARC
  5
172
100
AcDbEntity
  8
0
  6
ByLayer
 62
  256
370
   -1
100
AcDbCircle
 10
137.6325845134255
 20
52.35785300000002
 40
0
100
AcDbArc
 50
270
 51
360
  0
LINE
  5
173
100
AcDbEntity
  8
0
  6
ByLayer
 62
  256
370
   -1
100
AcDbLine
 10
142.6825845134256
 20
66.35785300000002
 11
156.6825845134256
 21
66.35785300000002
  0
LINE
  5
174
100
AcDbEntity
  8
0
  6
ByLayer
 62
  256
370
   -1
100
AcDbLine
 10
142.6825845134256
 20
52.35785300000002
 11
156.6825845134256
 21
52.35785300000002
  0
LINE
  5
175
100
AcDbEntity
  8
0
  6
ByLayer
 62
  256
370
   -1
100
AcDbLine
 10
142.6825845134256
 20
66.35785300000002
 11
142.6825845134256
 21
52.35785300000002
  0
LINE
  5
176
100
AcDbEntity
  8
0
  6
ByLayer
 62
  256
370
   -1
100
AcDbLine
 10
156.6825845134256
 20
66.35785300000002
 11
156.6825845134256
 21
52.35785300000002
  0
ARC
  5
177
100
AcDbEntity
  8
0
  6
ByLayer
 62
  256
370
   -1
100
AcDbCircle
 10
142.6825845134256
 20
66.35785300000002
 40
0
100
AcDbArc
 50
90
 51
180
  0
ARC
  5
178
100
AcDbEntity
  8
0
  6
ByLayer
 62
  256
370
   -1
100
AcDbCircle
 10
156.6825845134256
 20
66.35785300000002
 40
0
100
AcDbArc
 50
0
 51
90
  0
ARC
  5
179
100
AcDbEntity
  8
0
  6
ByLayer
 62
  256
370
   -1
100
AcDbCircle
 10
142.6825845134256
 20
52.35785300000002
 40
0
100
AcDbArc
 50
180
 51
270
  0
ARC
  5
17A
100
AcDbEntity
  8
0
  6
ByLayer
 62
  256
370
   -1
100
AcDbCircle
 10
156.6825845134256
 20
52.35785300000002
 40
0
100
AcDbArc
 50
270
 51
360
  0
LINE
  5
17B
100
AcDbEntity
  8
0
  6
ByLayer
 62
  256
370
   -1
100
AcDbLine
 10
161.7325845134255
 20
66.35785300000002
 11
175.7325845134255
 21
66.35785300000002
  0
LINE
  5
17C
100
AcDbEntity
  8
0
  6
ByLayer
 62
  256
370
   -1
100
AcDbLine
 10
161.7325845134255
 20
52.35785300000002
 11
175.7325845134255
 21
52.35785300000002
  0
LINE
  5
17D
100
AcDbEntity
  8
0
  6
ByLayer
 62
  256
370
   -1
100
AcDbLine
 10
161.7325845134255
 20
66.35785300000002
 11
161.7325845134255
 21
52.35785300000002
  0
LINE
  5
17E
100
AcDbEntity
  8
0
  6
ByLayer
 62
  256
370
   -1
100
AcDbLine
 10
175.7325845134255
 20
66.35785300000002
 11
175.7325845134255
 21
52.35785300000002
  0
ARC
  5
17F
100
AcDbEntity
  8
0
  6
ByLayer
 62
  256
370
   -1
100
AcDbCircle
 10
161.7325845134255
 20
66.35785300000002
 40
0
100
AcDbArc
 50
90
 51
180
  0
ARC
  5
180
100
AcDbEntity
  8
0
  6
ByLayer
 62
  256
370
   -1
100
AcDbCircle
 10
175.7325845134255
 20
66.35785300000002
 40
0
100
AcDbArc
 50
0
 51
90
  0
ARC
  5
181
100
AcDbEntity
  8
0
  6
ByLayer
 62
  256
370
   -1
100
AcDbCircle
 10
161.7325845134255
 20
52.35785300000002
 40
0
100
AcDbArc
 50
180
 51
270
  0
ARC
  5
182
100
AcDbEntity
  8
0
  6
ByLayer
 62
  256
370
   -1
100
AcDbCircle
 10
175.7325845134255
 20
52.35785300000002
 40
0
100
AcDbArc
 50
270
 51
360
  0
LINE
  5
183
100
AcDbEntity
  8
0
  6
ByLayer
 62
  256
370
   -1
100
AcDbLine
 10
180.7825845134256
 20
66.35785300000002
 11
194.7825845134256
 21
66.35785300000002
  0
LINE
  5
184
100
AcDbEntity
  8
0
  6
ByLayer
 62
  256
370
   -1
100
AcDbLine
 10
180.7825845134256
 20
52.35785300000002
 11
194.7825845134256
 21
52.35785300000002
  0
LINE
  5
185
100
AcDbEntity
  8
0
  6
ByLayer
 62
  256
370
   -1
100
AcDbLine
 10
180.7825845134256
 20
66.35785300000002
 11
180.7825845134256
 21
52.35785300000002
  0
LINE
  5
186
100
AcDbEntity
  8
0
  6
ByLayer
 62
  256
370
   -1
100
AcDbLine
 10
194.7825845134256
 20
66.35785300000002
 11
194.7825845134256
 21
52.35785300000002
  0
ARC
  5
187
100
AcDbEntity
  8
0
  6
ByLayer
 62
  256
370
   -1
100
AcDbCircle
 10
180.7825845134256
 20
66.35785300000002
 40
0
100
AcDbArc
 50
90
 51
180
  0
ARC
  5
188
100
AcDbEntity
  8
0
  6
ByLayer
 62
  256
370
   -1
100
AcDbCircle
 10
194.7825845134256
 20
66.35785300000002
 40
0
100
AcDbArc
 50
0
 51
90
  0
ARC
  5
189
100
AcDbEntity
  8
0
  6
ByLayer
 62
  256
370
   -1
100
AcDbCircle
 10
180.7825845134256
 20
52.35785300000002
 40
0
100
AcDbArc
 50
180
 51
270
  0
ARC
  5
18A
100
AcDbEntity
  8
0
  6
ByLayer
 62
  256
370
   -1
100
AcDbCircle
 10
194.7825845134256
 20
52.35785300000002
 40
0
100
AcDbArc
 50
270
 51
360
  0
LINE
  5
18B
100
AcDbEntity
  8
0
  6
ByLayer
 62
  256
370
   -1
100
AcDbLine
 10
199.8325845134255
 20
66.35785300000002
 11
213.8325845134255
 21
66.35785300000002
  0
LINE
  5
18C
100
AcDbEntity
  8
0
  6
ByLayer
 62
  256
370
   -1
100
AcDbLine
 10
199.8325845134255
 20
52.35785300000002
 11
213.8325845134255
 21
52.35785300000002
  0
LINE
  5
18D
100
AcDbEntity
  8
0
  6
ByLayer
 62
  256
370
   -1
100
AcDbLine
 10
199.8325845134255
 20
66.35785300000002
 11
199.8325845134255
 21
52.35785300000002
  0
LINE
  5
18E
100
AcDbEntity
  8
0
  6
ByLayer
 62
  256
370
   -1
100
AcDbLine
 10
213.8325845134255
 20
66.35785300000002
 11
213.8325845134255
 21
52.35785300000002
  0
ARC
  5
18F
100
AcDbEntity
  8
0
  6
ByLayer
 62
  256
370
   -1
100
AcDbCircle
 10
199.8325845134255
 20
66.35785300000002
 40
0
100
AcDbArc
 50
90
 51
180
  0
ARC
  5
190
100
AcDbEntity
  8
0
  6
ByLayer
 62
  256
370
   -1
100
AcDbCircle
 10
213.8325845134255
 20
66.35785300000002
 40
0
100
AcDbArc
 50
0
 51
90
  0
ARC
  5
191
100
AcDbEntity
  8
0
  6
ByLayer
 62
  256
370
   -1
100
AcDbCircle
 10
199.8325845134255
 20
52.35785300000002
 40
0
100
AcDbArc
 50
180
 51
270
  0
ARC
  5
192
100
AcDbEntity
  8
0
  6
ByLayer
 62
  256
370
   -1
100
AcDbCircle
 10
213.8325845134255
 20
52.35785300000002
 40
0
100
AcDbArc
 50
270
 51
360
  0
LINE
  5
193
100
AcDbEntity
  8
0
  6
ByLayer
 62
  256
370
   -1
100
AcDbLine
 10
218.8825845134255
 20
66.35785300000002
 11
232.8825845134255
 21
66.35785300000002
  0
LINE
  5
194
100
AcDbEntity
  8
0
  6
ByLayer
 62
  256
370
   -1
100
AcDbLine
 10
218.8825845134255
 20
52.35785300000002
 11
232.8825845134255
 21
52.35785300000002
  0
LINE
  5
195
100
AcDbEntity
  8
0
  6
ByLayer
 62
  256
370
   -1
100
AcDbLine
 10
218.8825845134255
 20
66.35785300000002
 11
218.8825845134255
 21
52.35785300000002
  0
LINE
  5
196
100
AcDbEntity
  8
0
  6
ByLayer
 62
  256
370
   -1
100
AcDbLine
 10
232.8825845134255
 20
66.35785300000002
 11
232.8825845134255
 21
52.35785300000002
  0
ARC
  5
197
100
AcDbEntity
  8
0
  6
ByLayer
 62
  256
370
   -1
100
AcDbCircle
 10
218.8825845134255
 20
66.35785300000002
 40
0
100
AcDbArc
 50
90
 51
180
  0
ARC
  5
198
100
AcDbEntity
  8
0
  6
ByLayer
 62
  256
370
   -1
100
AcDbCircle
 10
232.8825845134255
 20
66.35785300000002
 40
0
100
AcDbArc
 50
0
 51
90
  0
ARC
  5
199
100
AcDbEntity
  8
0
  6
ByLayer
 62
  256
370
   -1
100
AcDbCircle
 10
218.8825845134255
 20
52.35785300000002
 40
0
100
AcDbArc
 50
180
 51
270
  0
ARC
  5
19A
100
AcDbEntity
  8
0
  6
ByLayer
 62
  256
370
   -1
100
AcDbCircle
 10
232.8825845134255
 20
52.35785300000002
 40
0
100
AcDbArc
 50
270
 51
360
  0
LINE
  5
19B
100
AcDbEntity
  8
0
  6
ByLayer
 62
  256
370
   -1
100
AcDbLine
 10
237.9325845134256
 20
66.35785300000002
 11
251.9325845134256
 21
66.35785300000002
  0
LINE
  5
19C
100
AcDbEntity
  8
0
  6
ByLayer
 62
  256
370
   -1
100
AcDbLine
 10
237.9325845134256
 20
52.35785300000002
 11
251.9325845134256
 21
52.35785300000002
  0
LINE
  5
19D
100
AcDbEntity
  8
0
  6
ByLayer
 62
  256
370
   -1
100
AcDbLine
 10
237.9325845134256
 20
66.35785300000002
 11
237.9325845134256
 21
52.35785300000002
  0
LINE
  5
19E
100
AcDbEntity
  8
0
  6
ByLayer
 62
  256
370
   -1
100
AcDbLine
 10
251.9325845134256
 20
66.35785300000002
 11
251.9325845134256
 21
52.35785300000002
  0
ARC
  5
19F
100
AcDbEntity
  8
0
  6
ByLayer
 62
  256
370
   -1
100
AcDbCircle
 10
237.9325845134256
 20
66.35785300000002
 40
0
100
AcDbArc
 50
90
 51
180
  0
ARC
  5
1A0
100
AcDbEntity
  8
0
  6
ByLayer
 62
  256
370
   -1
100
AcDbCircle
 10
251.9325845134256
 20
66.35785300000002
 40
0
100
AcDbArc
 50
0
 51
90
  0
ARC
  5
1A1
100
AcDbEntity
  8
0
  6
ByLayer
 62
  256
370
   -1
100
AcDbCircle
 10
237.9325845134256
 20
52.35785300000002
 40
0
100
AcDbArc
 50
180
 51
270
  0
ARC
  5
1A2
100
AcDbEntity
  8
0
  6
ByLayer
 62
  256
370
   -1
100
AcDbCircle
 10
251.9325845134256
 20
52.35785300000002
 40
0
100
AcDbArc
 50
270
 51
360
  0
LINE
  5
1A3
100
AcDbEntity
  8
0
  6
ByLayer
 62
  256
370
   -1
100
AcDbLine
 10
268.8888345134255
 20
66.35785300000002
 11
282.8888345134255
 21
66.35785300000002
  0
LINE
  5
1A4
100
AcDbEntity
  8
0
  6
ByLayer
 62
  256
370
   -1
100
AcDbLine
 10
268.8888345134255
 20
52.35785300000002
 11
282.8888345134255
 21
52.35785300000002
  0
LINE
  5
1A5
100
AcDbEntity
  8
0
  6
ByLayer
 62
  256
370
   -1
100
AcDbLine
 10
268.8888345134255
 20
66.35785300000002
 11
268.8888345134255
 21
52.35785300000002
  0
LINE
  5
1A6
100
AcDbEntity
  8
0
  6
ByLayer
 62
  256
370
   -1
100
AcDbLine
 10
282.8888345134255
 20
66.35785300000002
 11
282.8888345134255
 21
52.35785300000002
  0
ARC
  5
1A7
100
AcDbEntity
  8
0
  6
ByLayer
 62
  256
370
   -1
100
AcDbCircle
 10
268.8888345134255
 20
66.35785300000002
 40
0
100
AcDbArc
 50
90
 51
180
  0
ARC
  5
1A8
100
AcDbEntity
  8
0
  6
ByLayer
 62
  256
370
   -1
100
AcDbCircle
 10
282.8888345134255
 20
66.35785300000002
 40
0
100
AcDbArc
 50
0
 51
90
  0
ARC
  5
1A9
100
AcDbEntity
  8
0
  6
ByLayer
 62
  256
370
   -1
100
AcDbCircle
 10
268.8888345134255
 20
52.35785300000002
 40
0
100
AcDbArc
 50
180
 51
270
  0
ARC
  5
1AA
100
AcDbEntity
  8
0
  6
ByLayer
 62
  256
370
   -1
100
AcDbCircle
 10
282.8888345134255
 20
52.35785300000002
 40
0
100
AcDbArc
 50
270
 51
360
  0
LINE
  5
1AB
100
AcDbEntity
  8
0
  6
ByLayer
 62
  256
370
   -1
100
AcDbLine
 10
284.4518345134255
 20
65.35785300000002
 11
291.2018345134255
 21
65.35785300000002
  0
LINE
  5
1AC
100
AcDbEntity
  8
0
  6
ByLayer
 62
  256
370
   -1
100
AcDbLine
 10
284.4518345134255
 20
51.35785300000002
 11
291.2018345134255
 21
51.35785300000002
  0
LINE
  5
1AD
100
AcDbEntity
  8
0
  6
ByLayer
 62
  256
370
   -1
100
AcDbLine
 10
284.4518345134255
 20
65.35785300000002
 11
284.4518345134255
 21
51.35785300000002
  0
LINE
  5
1AE
100
AcDbEntity
  8
0
  6
ByLayer
 62
  256
370
   -1
100
AcDbLine
 10
291.2018345134255
 20
65.35785300000002
 11
291.2018345134255
 21
51.35785300000002
  0
ARC
  5
1AF
100
AcDbEntity
  8
0
  6
ByLayer
 62
  256
370
   -1
100
AcDbCircle
 10
284.4518345134255
 20
65.35785300000002
 40
0
100
AcDbArc
 50
90
 51
180
  0
ARC
  5
1B0
100
AcDbEntity
  8
0
  6
ByLayer
 62
  256
370
   -1
100
AcDbCircle
 10
291.2018345134255
 20
65.35785300000002
 40
0
100
AcDbArc
 50
0
 51
90
  0
ARC
  5
1B1
100
AcDbEntity
  8
0
  6
ByLayer
 62
  256
370
   -1
100
AcDbCircle
 10
284.4518345134255
 20
51.35785300000002
 40
0
100
AcDbArc
 50
180
 51
270
  0
ARC
  5
1B2
100
AcDbEntity
  8
0
  6
ByLayer
 62
  256
370
   -1
100
AcDbCircle
 10
291.2018345134255
 20
51.35785300000002
 40
0
100
AcDbArc
 50
270
 51
360
  0
LINE
  5
1B3
100
AcDbEntity
  8
0
  6
ByLayer
 62
  256
370
   -1
100
AcDbLine
 10
260.5758345134256
 20
65.35785300000002
 11
267.3258345134256
 21
65.35785300000002
  0
LINE
  5
1B4
100
AcDbEntity
  8
0
  6
ByLayer
 62
  256
370
   -1
100
AcDbLine
 10
260.5758345134256
 20
51.35785300000002
 11
267.3258345134256
 21
51.35785300000002
  0
LINE
  5
1B5
100
AcDbEntity
  8
0
  6
ByLayer
 62
  256
370
   -1
100
AcDbLine
 10
260.5758345134256
 20
65.35785300000002
 11
260.5758345134256
 21
51.35785300000002
  0
LINE
  5
1B6
100
AcDbEntity
  8
0
  6
ByLayer
 62
  256
370
   -1
100
AcDbLine
 10
267.3258345134256
 20
65.35785300000002
 11
267.3258345134256
 21
51.35785300000002
  0
ARC
  5
1B7
100
AcDbEntity
  8
0
  6
ByLayer
 62
  256
370
   -1
100
AcDbCircle
 10
260.5758345134256
 20
65.35785300000002
 40
0
100
AcDbArc
 50
90
 51
180
  0
ARC
  5
1B8
100
AcDbEntity
  8
0
  6
ByLayer
 62
  256
370
   -1
100
AcDbCircle
 10
267.3258345134256
 20
65.35785300000002
 40
0
100
AcDbArc
 50
0
 51
90
  0
ARC
  5
1B9
100
AcDbEntity
  8
0
  6
ByLayer
 62
  256
370
   -1
100
AcDbCircle
 10
260.5758345134256
 20
51.35785300000002
 40
0
100
AcDbArc
 50
180
 51
270
  0
ARC
  5
1BA
100
AcDbEntity
  8
0
  6
ByLayer
 62
  256
370
   -1
100
AcDbCircle
 10
267.3258345134256
 20
51.35785300000002
 40
0
100
AcDbArc
 50
270
 51
360
  0
LINE
  5
1BB
100
AcDbEntity
  8
0
  6
ByLayer
 62
  256
370
   -1
100
AcDbLine
 10
26.00133451342554
 20
47.30785300000002
 11
40.00133451342553
 21
47.30785300000002
  0
LINE
  5
1BC
100
AcDbEntity
  8
0
  6
ByLayer
 62
  256
370
   -1
100
AcDbLine
 10
26.00133451342554
 20
33.30785300000002
 11
40.00133451342553
 21
33.30785300000002
  0
LINE
  5
1BD
100
AcDbEntity
  8
0
  6
ByLayer
 62
  256
370
   -1
100
AcDbLine
 10
26.00133451342554
 20
47.30785300000002
 11
26.00133451342554
 21
33.30785300000002
  0
LINE
  5
1BE
100
AcDbEntity
  8
0
  6
ByLayer
 62
  256
370
   -1
100
AcDbLine
 10
40.00133451342553
 20
47.30785300000002
 11
40.00133451342553
 21
33.30785300000002
  0
ARC
  5
1BF
100
AcDbEntity
  8
0
  6
ByLayer
 62
  256
370
   -1
100
AcDbCircle
 10
26.00133451342554
 20
47.30785300000002
 40
0
100
AcDbArc
 50
90
 51
180
  0
ARC
  5
1C0
100
AcDbEntity
  8
0
  6
ByLayer
 62
  256
370
   -1
100
AcDbCircle
 10
40.00133451342553
 20
47.30785300000002
 40
0
100
AcDbArc
 50
0
 51
90
  0
ARC
  5
1C1
100
AcDbEntity
  8
0
  6
ByLayer
 62
  256
370
   -1
100
AcDbCircle
 10
26.00133451342554
 20
33.30785300000002
 40
0
100
AcDbArc
 50
180
 51
270
  0
ARC
  5
1C2
100
AcDbEntity
  8
0
  6
ByLayer
 62
  256
370
   -1
100
AcDbCircle
 10
40.00133451342553
 20
33.30785300000002
 40
0
100
AcDbArc
 50
270
 51
360
  0
LINE
  5
1C3
100
AcDbEntity
  8
0
  6
ByLayer
 62
  256
370
   -1
100
AcDbLine
 10
41.56433451342554
 20
46.30785300000002
 11
48.31433451342554
 21
46.30785300000002
  0
LINE
  5
1C4
100
AcDbEntity
  8
0
  6
ByLayer
 62
  256
370
   -1
100
AcDbLine
 10
41.56433451342554
 20
32.30785300000002
 11
48.31433451342554
 21
32.30785300000002
  0
LINE
  5
1C5
100
AcDbEntity
  8
0
  6
ByLayer
 62
  256
370
   -1
100
AcDbLine
 10
41.56433451342554
 20
46.30785300000002
 11
41.56433451342554
 21
32.30785300000002
  0
LINE
  5
1C6
100
AcDbEntity
  8
0
  6
ByLayer
 62
  256
370
   -1
100
AcDbLine
 10
48.31433451342554
 20
46.30785300000002
 11
48.31433451342554
 21
32.30785300000002
  0
ARC
  5
1C7
100
AcDbEntity
  8
0
  6
ByLayer
 62
  256
370
   -1
100
AcDbCircle
 10
41.56433451342554
 20
46.30785300000002
 40
0
100
AcDbArc
 50
90
 51
180
  0
ARC
  5
1C8
100
AcDbEntity
  8
0
  6
ByLayer
 62
  256
370
   -1
100
AcDbCircle
 10
48.31433451342554
 20
46.30785300000002
 40
0
100
AcDbArc
 50
0
 51
90
  0
ARC
  5
1C9
100
AcDbEntity
  8
0
  6
ByLayer
 62
  256
370
   -1
100
AcDbCircle
 10
41.56433451342554
 20
32.30785300000002
 40
0
100
AcDbArc
 50
180
 51
270
  0
ARC
  5
1CA
100
AcDbEntity
  8
0
  6
ByLayer
 62
  256
370
   -1
100
AcDbCircle
 10
48.31433451342554
 20
32.30785300000002
 40
0
100
AcDbArc
 50
270
 51
360
  0
LINE
  5
1CB
100
AcDbEntity
  8
0
  6
ByLayer
 62
  256
370
   -1
100
AcDbLine
 10
17.68833451342554
 20
46.30785300000002
 11
24.43833451342554
 21
46.30785300000002
  0
LINE
  5
1CC
100
AcDbEntity
  8
0
  6
ByLayer
 62
  256
370
   -1
100
AcDbLine
 10
17.68833451342554
 20
32.30785300000002
 11
24.43833451342554
 21
32.30785300000002
  0
LINE
  5
1CD
100
AcDbEntity
  8
0
  6
ByLayer
 62
  256
370
   -1
100
AcDbLine
 10
17.68833451342554
 20
46.30785300000002
 11
17.68833451342554
 21
32.30785300000002
  0
LINE
  5
1CE
100
AcDbEntity
  8
0
  6
ByLayer
 62
  256
370
   -1
100
AcDbLine
 10
24.43833451342554
 20
46.30785300000002
 11
24.43833451342554
 21
32.30785300000002
  0
ARC
  5
1CF
100
AcDbEntity
  8
0
  6
ByLayer
 62
  256
370
   -1
100
AcDbCircle
 10
17.68833451342554
 20
46.30785300000002
 40
0
100
AcDbArc
 50
90
 51
180
  0
ARC
  5
1D0
100
AcDbEntity
  8
0
  6
ByLayer
 62
  256
370
   -1
100
AcDbCircle
 10
24.43833451342554
 20
46.30785300000002
 40
0
100
AcDbArc
 50
0
 51
90
  0
ARC
  5
1D1
100
AcDbEntity
  8
0
  6
ByLayer
 62
  256
370
   -1
100
AcDbCircle
 10
17.68833451342554
 20
32.30785300000002
 40
0
100
AcDbArc
 50
180
 51
270
  0
ARC
  5
1D2
100
AcDbEntity
  8
0
  6
ByLayer
 62
  256
370
   -1
100
AcDbCircle
 10
24.43833451342554
 20
32.30785300000002
 40
0
100
AcDbArc
 50
270
 51
360
  0
LINE
  5
1D3
100
AcDbEntity
  8
0
  6
ByLayer
 62
  256
370
   -1
100
AcDbLine
 10
56.95758451342552
 20
47.30785300000002
 11
70.95758451342553
 21
47.30785300000002
  0
LINE
  5
1D4
100
AcDbEntity
  8
0
  6
ByLayer
 62
  256
370
   -1
100
AcDbLine
 10
56.95758451342552
 20
33.30785300000002
 11
70.95758451342553
 21
33.30785300000002
  0
LINE
  5
1D5
100
AcDbEntity
  8
0
  6
ByLayer
 62
  256
370
   -1
100
AcDbLine
 10
56.95758451342552
 20
47.30785300000002
 11
56.95758451342552
 21
33.30785300000002
  0
LINE
  5
1D6
100
AcDbEntity
  8
0
  6
ByLayer
 62
  256
370
   -1
100
AcDbLine
 10
70.95758451342553
 20
47.30785300000002
 11
70.95758451342553
 21
33.30785300000002
  0
ARC
  5
1D7
100
AcDbEntity
  8
0
  6
ByLayer
 62
  256
370
   -1
100
AcDbCircle
 10
56.95758451342552
 20
47.30785300000002
 40
0
100
AcDbArc
 50
90
 51
180
  0
ARC
  5
1D8
100
AcDbEntity
  8
0
  6
ByLayer
 62
  256
370
   -1
100
AcDbCircle
 10
70.95758451342553
 20
47.30785300000002
 40
0
100
AcDbArc
 50
0
 51
90
  0
ARC
  5
1D9
100
AcDbEntity
  8
0
  6
ByLayer
 62
  256
370
   -1
100
AcDbCircle
 10
56.95758451342552
 20
33.30785300000002
 40
0
100
AcDbArc
 50
180
 51
270
  0
ARC
  5
1DA
100
AcDbEntity
  8
0
  6
ByLayer
 62
  256
370
   -1
100
AcDbCircle
 10
70.95758451342553
 20
33.30785300000002
 40
0
100
AcDbArc
 50
270
 51
360
  0
LINE
  5
1DB
100
AcDbEntity
  8
0
  6
ByLayer
 62
  256
370
   -1
100
AcDbLine
 10
76.00758451342553
 20
47.30785300000002
 11
90.00758451342553
 21
47.30785300000002
  0
LINE
  5
1DC
100
AcDbEntity
  8
0
  6
ByLayer
 62
  256
370
   -1
100
AcDbLine
 10
76.00758451342553
 20
33.30785300000002
 11
90.00758451342553
 21
33.30785300000002
  0
LINE
  5
1DD
100
AcDbEntity
  8
0
  6
ByLayer
 62
  256
370
   -1
100
AcDbLine
 10
76.00758451342553
 20
47.30785300000002
 11
76.00758451342553
 21
33.30785300000002
  0
LINE
  5
1DE
100
AcDbEntity
  8
0
  6
ByLayer
 62
  256
370
   -1
100
AcDbLine
 10
90.00758451342553
 20
47.30785300000002
 11
90.00758451342553
 21
33.30785300000002
  0
ARC
  5
1DF
100
AcDbEntity
  8
0
  6
ByLayer
 62
  256
370
   -1
100
AcDbCircle
 10
76.00758451342553
 20
47.30785300000002
 40
0
100
AcDbArc
 50
90
 51
180
  0
ARC
  5
1E0
100
AcDbEntity
  8
0
  6
ByLayer
 62
  256
370
   -1
100
AcDbCircle
 10
90.00758451342553
 20
47.30785300000002
 40
0
100
AcDbArc
 50
0
 51
90
  0
ARC
  5
1E1
100
AcDbEntity
  8
0
  6
ByLayer
 62
  256
370
   -1
100
AcDbCircle
 10
76.00758451342553
 20
33.30785300000002
 40
0
100
AcDbArc
 50
180
 51
270
  0
ARC
  5
1E2
100
AcDbEntity
  8
0
  6
ByLayer
 62
  256
370
   -1
100
AcDbCircle
 10
90.00758451342553
 20
33.30785300000002
 40
0
100
AcDbArc
 50
270
 51
360
  0
LINE
  5
1E3
100
AcDbEntity
  8
0
  6
ByLayer
 62
  256
370
   -1
100
AcDbLine
 10
95.05758451342552
 20
47.30785300000002
 11
109.0575845134255
 21
47.30785300000002
  0
LINE
  5
1E4
100
AcDbEntity
  8
0
  6
ByLayer
 62
  256
370
   -1
100
AcDbLine
 10
95.05758451342552
 20
33.30785300000002
 11
109.0575845134255
 21
33.30785300000002
  0
LINE
  5
1E5
100
AcDbEntity
  8
0
  6
ByLayer
 62
  256
370
   -1
100
AcDbLine
 10
95.05758451342552
 20
47.30785300000002
 11
95.05758451342552
 21
33.30785300000002
  0
LINE
  5
1E6
100
AcDbEntity
  8
0
  6
ByLayer
 62
  256
370
   -1
100
AcDbLine
 10
109.0575845134255
 20
47.30785300000002
 11
109.0575845134255
 21
33.30785300000002
  0
ARC
  5
1E7
100
AcDbEntity
  8
0
  6
ByLayer
 62
  256
370
   -1
100
AcDbCircle
 10
95.05758451342552
 20
47.30785300000002
 40
0
100
AcDbArc
 50
90
 51
180
  0
ARC
  5
1E8
100
AcDbEntity
  8
0
  6
ByLayer
 62
  256
370
   -1
100
AcDbCircle
 10
109.0575845134255
 20
47.30785300000002
 40
0
100
AcDbArc
 50
0
 51
90
  0
ARC
  5
1E9
100
AcDbEntity
  8
0
  6
ByLayer
 62
  256
370
   -1
100
AcDbCircle
 10
95.05758451342552
 20
33.30785300000002
 40
0
100
AcDbArc
 50
180
 51
270
  0
ARC
  5
1EA
100
AcDbEntity
  8
0
  6
ByLayer
 62
  256
370
   -1
100
AcDbCircle
 10
109.0575845134255
 20
33.30785300000002
 40
0
100
AcDbArc
 50
270
 51
360
  0
LINE
  5
1EB
100
AcDbEntity
  8
0
  6
ByLayer
 62
  256
370
   -1
100
AcDbLine
 10
114.1075845134255
 20
47.30785300000002
 11
128.1075845134255
 21
47.30785300000002
  0
LINE
  5
1EC
100
AcDbEntity
  8
0
  6
ByLayer
 62
  256
370
   -1
100
AcDbLine
 10
114.1075845134255
 20
33.30785300000002
 11
128.1075845134255
 21
33.30785300000002
  0
LINE
  5
1ED
100
AcDbEntity
  8
0
  6
ByLayer
 62
  256
370
   -1
100
AcDbLine
 10
114.1075845134255
 20
47.30785300000002
 11
114.1075845134255
 21
33.30785300000002
  0
LINE
  5
1EE
100
AcDbEntity
  8
0
  6
ByLayer
 62
  256
370
   -1
100
AcDbLine
 10
128.1075845134255
 20
47.30785300000002
 11
128.1075845134255
 21
33.30785300000002
  0
ARC
  5
1EF
100
AcDbEntity
  8
0
  6
ByLayer
 62
  256
370
   -1
100
AcDbCircle
 10
114.1075845134255
 20
47.30785300000002
 40
0
100
AcDbArc
 50
90
 51
180
  0
ARC
  5
1F0
100
AcDbEntity
  8
0
  6
ByLayer
 62
  256
370
   -1
100
AcDbCircle
 10
128.1075845134255
 20
47.30785300000002
 40
0
100
AcDbArc
 50
0
 51
90
  0
ARC
  5
1F1
100
AcDbEntity
  8
0
  6
ByLayer
 62
  256
370
   -1
100
AcDbCircle
 10
114.1075845134255
 20
33.30785300000002
 40
0
100
AcDbArc
 50
180
 51
270
  0
ARC
  5
1F2
100
AcDbEntity
  8
0
  6
ByLayer
 62
  256
370
   -1
100
AcDbCircle
 10
128.1075845134255
 20
33.30785300000002
 40
0
100
AcDbArc
 50
270
 51
360
  0
LINE
  5
1F3
100
AcDbEntity
  8
0
  6
ByLayer
 62
  256
370
   -1
100
AcDbLine
 10
133.1575845134256
 20
47.30785300000002
 11
147.1575845134256
 21
47.30785300000002
  0
LINE
  5
1F4
100
AcDbEntity
  8
0
  6
ByLayer
 62
  256
370
   -1
100
AcDbLine
 10
133.1575845134256
 20
33.30785300000002
 11
147.1575845134256
 21
33.30785300000002
  0
LINE
  5
1F5
100
AcDbEntity
  8
0
  6
ByLayer
 62
  256
370
   -1
100
AcDbLine
 10
133.1575845134256
 20
47.30785300000002
 11
133.1575845134256
 21
33.30785300000002
  0
LINE
  5
1F6
100
AcDbEntity
  8
0
  6
ByLayer
 62
  256
370
   -1
100
AcDbLine
 10
147.1575845134256
 20
47.30785300000002
 11
147.1575845134256
 21
33.30785300000002
  0
ARC
  5
1F7
100
AcDbEntity
  8
0
  6
ByLayer
 62
  256
370
   -1
100
AcDbCircle
 10
133.1575845134256
 20
47.30785300000002
 40
0
100
AcDbArc
 50
90
 51
180
  0
ARC
  5
1F8
100
AcDbEntity
  8
0
  6
ByLayer
 62
  256
370
   -1
100
AcDbCircle
 10
147.1575845134256
 20
47.30785300000002
 40
0
100
AcDbArc
 50
0
 51
90
  0
ARC
  5
1F9
100
AcDbEntity
  8
0
  6
ByLayer
 62
  256
370
   -1
100
AcDbCircle
 10
133.1575845134256
 20
33.30785300000002
 40
0
100
AcDbArc
 50
180
 51
270
  0
ARC
  5
1FA
100
AcDbEntity
  8
0
  6
ByLayer
 62
  256
370
   -1
100
AcDbCircle
 10
147.1575845134256
 20
33.30785300000002
 40
0
100
AcDbArc
 50
270
 51
360
  0
LINE
  5
1FB
100
AcDbEntity
  8
0
  6
ByLayer
 62
  256
370
   -1
100
AcDbLine
 10
152.2075845134255
 20
47.30785300000002
 11
166.2075845134255
 21
47.30785300000002
  0
LINE
  5
1FC
100
AcDbEntity
  8
0
  6
ByLayer
 62
  256
370
   -1
100
AcDbLine
 10
152.2075845134255
 20
33.30785300000002
 11
166.2075845134255
 21
33.30785300000002
  0
LINE
  5
1FD
100
AcDbEntity
  8
0
  6
ByLayer
 62
  256
370
   -1
100
AcDbLine
 10
152.2075845134255
 20
47.30785300000002
 11
152.2075845134255
 21
33.30785300000002
  0
LINE
  5
1FE
100
AcDbEntity
  8
0
  6
ByLayer
 62
  256
370
   -1
100
AcDbLine
 10
166.2075845134255
 20
47.30785300000002
 11
166.2075845134255
 21
33.30785300000002
  0
ARC
  5
1FF
100
AcDbEntity
  8
0
  6
ByLayer
 62
  256
370
   -1
100
AcDbCircle
 10
152.2075845134255
 20
47.30785300000002
 40
0
100
AcDbArc
 50
90
 51
180
  0
ARC
  5
200
100
AcDbEntity
  8
0
  6
ByLayer
 62
  256
370
   -1
100
AcDbCircle
 10
166.2075845134255
 20
47.30785300000002
 40
0
100
AcDbArc
 50
0
 51
90
  0
ARC
  5
201
100
AcDbEntity
  8
0
  6
ByLayer
 62
  256
370
   -1
100
AcDbCircle
 10
152.2075845134255
 20
33.30785300000002
 40
0
100
AcDbArc
 50
180
 51
270
  0
ARC
  5
202
100
AcDbEntity
  8
0
  6
ByLayer
 62
  256
370
   -1
100
AcDbCircle
 10
166.2075845134255
 20
33.30785300000002
 40
0
100
AcDbArc
 50
270
 51
360
  0
LINE
  5
203
100
AcDbEntity
  8
0
  6
ByLayer
 62
  256
370
   -1
100
AcDbLine
 10
171.2575845134255
 20
47.30785300000002
 11
185.2575845134255
 21
47.30785300000002
  0
LINE
  5
204
100
AcDbEntity
  8
0
  6
ByLayer
 62
  256
370
   -1
100
AcDbLine
 10
171.2575845134255
 20
33.30785300000002
 11
185.2575845134255
 21
33.30785300000002
  0
LINE
  5
205
100
AcDbEntity
  8
0
  6
ByLayer
 62
  256
370
   -1
100
AcDbLine
 10
171.2575845134255
 20
47.30785300000002
 11
171.2575845134255
 21
33.30785300000002
  0
LINE
  5
206
100
AcDbEntity
  8
0
  6
ByLayer
 62
  256
370
   -1
100
AcDbLine
 10
185.2575845134255
 20
47.30785300000002
 11
185.2575845134255
 21
33.30785300000002
  0
ARC
  5
207
100
AcDbEntity
  8
0
  6
ByLayer
 62
  256
370
   -1
100
AcDbCircle
 10
171.2575845134255
 20
47.30785300000002
 40
0
100
AcDbArc
 50
90
 51
180
  0
ARC
  5
208
100
AcDbEntity
  8
0
  6
ByLayer
 62
  256
370
   -1
100
AcDbCircle
 10
185.2575845134255
 20
47.30785300000002
 40
0
100
AcDbArc
 50
0
 51
90
  0
ARC
  5
209
100
AcDbEntity
  8
0
  6
ByLayer
 62
  256
370
   -1
100
AcDbCircle
 10
171.2575845134255
 20
33.30785300000002
 40
0
100
AcDbArc
 50
180
 51
270
  0
ARC
  5
20A
100
AcDbEntity
  8
0
  6
ByLayer
 62
  256
370
   -1
100
AcDbCircle
 10
185.2575845134255
 20
33.30785300000002
 40
0
100
AcDbArc
 50
270
 51
360
  0
LINE
  5
20B
100
AcDbEntity
  8
0
  6
ByLayer
 62
  256
370
   -1
100
AcDbLine
 10
190.3075845134256
 20
47.30785300000002
 11
204.3075845134256
 21
47.30785300000002
  0
LINE
  5
20C
100
AcDbEntity
  8
0
  6
ByLayer
 62
  256
370
   -1
100
AcDbLine
 10
190.3075845134256
 20
33.30785300000002
 11
204.3075845134256
 21
33.30785300000002
  0
LINE
  5
20D
100
AcDbEntity
  8
0
  6
ByLayer
 62
  256
370
   -1
100
AcDbLine
 10
190.3075845134256
 20
47.30785300000002
 11
190.3075845134256
 21
33.30785300000002
  0
LINE
  5
20E
100
AcDbEntity
  8
0
  6
ByLayer
 62
  256
370
   -1
100
AcDbLine
 10
204.3075845134256
 20
47.30785300000002
 11
204.3075845134256
 21
33.30785300000002
  0
ARC
  5
20F
100
AcDbEntity
  8
0
  6
ByLayer
 62
  256
370
   -1
100
AcDbCircle
 10
190.3075845134256
 20
47.30785300000002
 40
0
100
AcDbArc
 50
90
 51
180
  0
ARC
  5
210
100
AcDbEntity
  8
0
  6
ByLayer
 62
  256
370
   -1
100
AcDbCircle
 10
204.3075845134256
 20
47.30785300000002
 40
0
100
AcDbArc
 50
0
 51
90
  0
ARC
  5
211
100
AcDbEntity
  8
0
  6
ByLayer
 62
  256
370
   -1
100
AcDbCircle
 10
190.3075845134256
 20
33.30785300000002
 40
0
100
AcDbArc
 50
180
 51
270
  0
ARC
  5
212
100
AcDbEntity
  8
0
  6
ByLayer
 62
  256
370
   -1
100
AcDbCircle
 10
204.3075845134256
 20
33.30785300000002
 40
0
100
AcDbArc
 50
270
 51
360
  0
LINE
  5
213
100
AcDbEntity
  8
0
  6
ByLayer
 62
  256
370
   -1
100
AcDbLine
 10
209.3575845134255
 20
47.30785300000002
 11
223.3575845134255
 21
47.30785300000002
  0
LINE
  5
214
100
AcDbEntity
  8
0
  6
ByLayer
 62
  256
370
   -1
100
AcDbLine
 10
209.3575845134255
 20
33.30785300000002
 11
223.3575845134255
 21
33.30785300000002
  0
LINE
  5
215
100
AcDbEntity
  8
0
  6
ByLayer
 62
  256
370
   -1
100
AcDbLine
 10
209.3575845134255
 20
47.30785300000002
 11
209.3575845134255
 21
33.30785300000002
  0
LINE
  5
216
100
AcDbEntity
  8
0
  6
ByLayer
 62
  256
370
   -1
100
AcDbLine
 10
223.3575845134255
 20
47.30785300000002
 11
223.3575845134255
 21
33.30785300000002
  0
ARC
  5
217
100
AcDbEntity
  8
0
  6
ByLayer
 62
  256
370
   -1
100
AcDbCircle
 10
209.3575845134255
 20
47.30785300000002
 40
0
100
AcDbArc
 50
90
 51
180
  0
ARC
  5
218
100
AcDbEntity
  8
0
  6
ByLayer
 62
  256
370
   -1
100
AcDbCircle
 10
223.3575845134255
 20
47.30785300000002
 40
0
100
AcDbArc
 50
0
 51
90
  0
ARC
  5
219
100
AcDbEntity
  8
0
  6
ByLayer
 62
  256
370
   -1
100
AcDbCircle
 10
209.3575845134255
 20
33.30785300000002
 40
0
100
AcDbArc
 50
180
 51
270
  0
ARC
  5
21A
100
AcDbEntity
  8
0
  6
ByLayer
 62
  256
370
   -1
100
AcDbCircle
 10
223.3575845134255
 20
33.30785300000002
 40
0
100
AcDbArc
 50
270
 51
360
  0
LINE
  5
21B
100
AcDbEntity
  8
0
  6
ByLayer
 62
  256
370
   -1
100
AcDbLine
 10
228.4075845134256
 20
47.30785300000002
 11
242.4075845134256
 21
47.30785300000002
  0
LINE
  5
21C
100
AcDbEntity
  8
0
  6
ByLayer
 62
  256
370
   -1
100
AcDbLine
 10
228.4075845134256
 20
33.30785300000002
 11
242.4075845134256
 21
33.30785300000002
  0
LINE
  5
21D
100
AcDbEntity
  8
0
  6
ByLayer
 62
  256
370
   -1
100
AcDbLine
 10
228.4075845134256
 20
47.30785300000002
 11
228.4075845134256
 21
33.30785300000002
  0
LINE
  5
21E
100
AcDbEntity
  8
0
  6
ByLayer
 62
  256
370
   -1
100
AcDbLine
 10
242.4075845134256
 20
47.30785300000002
 11
242.4075845134256
 21
33.30785300000002
  0
ARC
  5
21F
100
AcDbEntity
  8
0
  6
ByLayer
 62
  256
370
   -1
100
AcDbCircle
 10
228.4075845134256
 20
47.30785300000002
 40
0
100
AcDbArc
 50
90
 51
180
  0
ARC
  5
220
100
AcDbEntity
  8
0
  6
ByLayer
 62
  256
370
   -1
100
AcDbCircle
 10
242.4075845134256
 20
47.30785300000002
 40
0
100
AcDbArc
 50
0
 51
90
  0
ARC
  5
221
100
AcDbEntity
  8
0
  6
ByLayer
 62
  256
370
   -1
100
AcDbCircle
 10
228.4075845134256
 20
33.30785300000002
 40
0
100
AcDbArc
 50
180
 51
270
  0
ARC
  5
222
100
AcDbEntity
  8
0
  6
ByLayer
 62
  256
370
   -1
100
AcDbCircle
 10
242.4075845134256
 20
33.30785300000002
 40
0
100
AcDbArc
 50
270
 51
360
  0
LINE
  5
223
100
AcDbEntity
  8
0
  6
ByLayer
 62
  256
370
   -1
100
AcDbLine
 10
254.6013345134255
 20
47.30785300000002
 11
268.6013345134255
 21
47.30785300000002
  0
LINE
  5
224
100
AcDbEntity
  8
0
  6
ByLayer
 62
  256
370
   -1
100
AcDbLine
 10
254.6013345134255
 20
33.30785300000002
 11
268.6013345134255
 21
33.30785300000002
  0
LINE
  5
225
100
AcDbEntity
  8
0
  6
ByLayer
 62
  256
370
   -1
100
AcDbLine
 10
254.6013345134255
 20
47.30785300000002
 11
254.6013345134255
 21
33.30785300000002
  0
LINE
  5
226
100
AcDbEntity
  8
0
  6
ByLayer
 62
  256
370
   -1
100
AcDbLine
 10
268.6013345134255
 20
47.30785300000002
 11
268.6013345134255
 21
33.30785300000002
  0
ARC
  5
227
100
AcDbEntity
  8
0
  6
ByLayer
 62
  256
370
   -1
100
AcDbCircle
 10
254.6013345134255
 20
47.30785300000002
 40
0
100
AcDbArc
 50
90
 51
180
  0
ARC
  5
228
100
AcDbEntity
  8
0
  6
ByLayer
 62
  256
370
   -1
100
AcDbCircle
 10
268.6013345134255
 20
47.30785300000002
 40
0
100
AcDbArc
 50
0
 51
90
  0
ARC
  5
229
100
AcDbEntity
  8
0
  6
ByLayer
 62
  256
370
   -1
100
AcDbCircle
 10
254.6013345134255
 20
33.30785300000002
 40
0
100
AcDbArc
 50
180
 51
270
  0
ARC
  5
22A
100
AcDbEntity
  8
0
  6
ByLayer
 62
  256
370
   -1
100
AcDbCircle
 10
268.6013345134255
 20
33.30785300000002
 40
0
100
AcDbArc
 50
270
 51
360
  0
LINE
  5
22B
100
AcDbEntity
  8
0
  6
ByLayer
 62
  256
370
   -1
100
AcDbLine
 10
280.7950845134255
 20
47.30785300000002
 11
294.7950845134255
 21
47.30785300000002
  0
LINE
  5
22C
100
AcDbEntity
  8
0
  6
ByLayer
 62
  256
370
   -1
100
AcDbLine
 10
280.7950845134255
 20
33.30785300000002
 11
294.7950845134255
 21
33.30785300000002
  0
LINE
  5
22D
100
AcDbEntity
  8
0
  6
ByLayer
 62
  256
370
   -1
100
AcDbLine
 10
280.7950845134255
 20
47.30785300000002
 11
280.7950845134255
 21
33.30785300000002
  0
LINE
  5
22E
100
AcDbEntity
  8
0
  6
ByLayer
 62
  256
370
   -1
100
AcDbLine
 10
294.7950845134255
 20
47.30785300000002
 11
294.7950845134255
 21
33.30785300000002
  0
ARC
  5
22F
100
AcDbEntity
  8
0
  6
ByLayer
 62
  256
370
   -1
100
AcDbCircle
 10
280.7950845134255
 20
47.30785300000002
 40
0
100
AcDbArc
 50
90
 51
180
  0
ARC
  5
230
100
AcDbEntity
  8
0
  6
ByLayer
 62
  256
370
   -1
100
AcDbCircle
 10
294.7950845134255
 20
47.30785300000002
 40
0
100
AcDbArc
 50
0
 51
90
  0
ARC
  5
231
100
AcDbEntity
  8
0
  6
ByLayer
 62
  256
370
   -1
100
AcDbCircle
 10
280.7950845134255
 20
33.30785300000002
 40
0
100
AcDbArc
 50
180
 51
270
  0
ARC
  5
232
100
AcDbEntity
  8
0
  6
ByLayer
 62
  256
370
   -1
100
AcDbCircle
 10
294.7950845134255
 20
33.30785300000002
 40
0
100
AcDbArc
 50
270
 51
360
  0
LINE
  5
233
100
AcDbEntity
  8
0
  6
ByLayer
 62
  256
370
   -1
100
AcDbLine
 10
16.47633451342554
 20
28.25785300000002
 11
30.47633451342554
 21
28.25785300000002
  0
LINE
  5
234
100
AcDbEntity
  8
0
  6
ByLayer
 62
  256
370
   -1
100
AcDbLine
 10
16.47633451342554
 20
14.25785300000002
 11
30.47633451342554
 21
14.25785300000002
  0
LINE
  5
235
100
AcDbEntity
  8
0
  6
ByLayer
 62
  256
370
   -1
100
AcDbLine
 10
16.47633451342554
 20
28.25785300000002
 11
16.47633451342554
 21
14.25785300000002
  0
ARC
  5
236
100
AcDbEntity
  8
0
  6
ByLayer
 62
  256
370
   -1
100
AcDbCircle
 10
16.47633451342554
 20
28.25785300000002
 40
0
100
AcDbArc
 50
90
 51
180
  0
ARC
  5
237
100
AcDbEntity
  8
0
  6
ByLayer
 62
  256
370
   -1
100
AcDbCircle
 10
30.47633451342554
 20
28.25785300000002
 40
0
100
AcDbArc
 50
0
 51
90
  0
ARC
  5
238
100
AcDbEntity
  8
0
  6
ByLayer
 62
  256
370
   -1
100
AcDbCircle
 10
16.47633451342554
 20
14.25785300000002
 40
0
100
AcDbArc
 50
180
 51
270
  0
ARC
  5
239
100
AcDbEntity
  8
0
  6
ByLayer
 62
  256
370
   -1
100
AcDbCircle
 10
30.47633451342554
 20
14.25785300000002
 40
0
100
AcDbArc
 50
270
 51
360
  0
LINE
  5
23A
100
AcDbEntity
  8
0
  6
ByLayer
 62
  256
370
   -1
100
AcDbLine
 10
18.85758451342553
 20
28.25785300000002
 11
32.85758451342554
 21
28.25785300000002
  0
LINE
  5
23B
100
AcDbEntity
  8
0
  6
ByLayer
 62
  256
370
   -1
100
AcDbLine
 10
18.85758451342553
 20
14.25785300000002
 11
32.85758451342554
 21
14.25785300000002
  0
LINE
  5
23C
100
AcDbEntity
  8
0
  6
ByLayer
 62
  256
370
   -1
100
AcDbLine
 10
32.85758451342554
 20
28.25785300000002
 11
32.85758451342554
 21
14.25785300000002
  0
ARC
  5
23D
100
AcDbEntity
  8
0
  6
ByLayer
 62
  256
370
   -1
100
AcDbCircle
 10
18.85758451342553
 20
28.25785300000002
 40
0
100
AcDbArc
 50
90
 51
180
  0
ARC
  5
23E
100
AcDbEntity
  8
0
  6
ByLayer
 62
  256
370
   -1
100
AcDbCircle
 10
32.85758451342554
 20
28.25785300000002
 40
0
100
AcDbArc
 50
0
 51
90
  0
ARC
  5
23F
100
AcDbEntity
  8
0
  6
ByLayer
 62
  256
370
   -1
100
AcDbCircle
 10
18.85758451342553
 20
14.25785300000002
 40
0
100
AcDbArc
 50
180
 51
270
  0
ARC
  5
240
100
AcDbEntity
  8
0
  6
ByLayer
 62
  256
370
   -1
100
AcDbCircle
 10
32.85758451342554
 20
14.25785300000002
 40
0
100
AcDbArc
 50
270
 51
360
  0
LINE
  5
241
100
AcDbEntity
  8
0
  6
ByLayer
 62
  256
370
   -1
100
AcDbLine
 10
40.28883451342553
 20
28.25785300000002
 11
54.28883451342553
 21
28.25785300000002
  0
LINE
  5
242
100
AcDbEntity
  8
0
  6
ByLayer
 62
  256
370
   -1
100
AcDbLine
 10
40.28883451342553
 20
14.25785300000002
 11
54.28883451342553
 21
14.25785300000002
  0
LINE
  5
243
100
AcDbEntity
  8
0
  6
ByLayer
 62
  256
370
   -1
100
AcDbLine
 10
40.28883451342553
 20
28.25785300000002
 11
40.28883451342553
 21
14.25785300000002
  0
ARC
  5
244
100
AcDbEntity
  8
0
  6
ByLayer
 62
  256
370
   -1
100
AcDbCircle
 10
40.28883451342553
 20
28.25785300000002
 40
0
100
AcDbArc
 50
90
 51
180
  0
ARC
  5
245
100
AcDbEntity
  8
0
  6
ByLayer
 62
  256
370
   -1
100
AcDbCircle
 10
54.28883451342553
 20
28.25785300000002
 40
0
100
AcDbArc
 50
0
 51
90
  0
ARC
  5
246
100
AcDbEntity
  8
0
  6
ByLayer
 62
  256
370
   -1
100
AcDbCircle
 10
40.28883451342553
 20
14.25785300000002
 40
0
100
AcDbArc
 50
180
 51
270
  0
ARC
  5
247
100
AcDbEntity
  8
0
  6
ByLayer
 62
  256
370
   -1
100
AcDbCircle
 10
54.28883451342553
 20
14.25785300000002
 40
0
100
AcDbArc
 50
270
 51
360
  0
LINE
  5
248
100
AcDbEntity
  8
0
  6
ByLayer
 62
  256
370
   -1
100
AcDbLine
 10
42.67008451342554
 20
28.25785300000002
 11
56.67008451342554
 21
28.25785300000002
  0
LINE
  5
249
100
AcDbEntity
  8
0
  6
ByLayer
 62
  256
370
   -1
100
AcDbLine
 10
42.67008451342554
 20
14.25785300000002
 11
56.67008451342554
 21
14.25785300000002
  0
LINE
  5
24A
100
AcDbEntity
  8
0
  6
ByLayer
 62
  256
370
   -1
100
AcDbLine
 10
56.67008451342554
 20
28.25785300000002
 11
56.67008451342554
 21
14.25785300000002
  0
ARC
  5
24B
100
AcDbEntity
  8
0
  6
ByLayer
 62
  256
370
   -1
100
AcDbCircle
 10
42.67008451342554
 20
28.25785300000002
 40
0
100
AcDbArc
 50
90
 51
180
  0
ARC
  5
24C
100
AcDbEntity
  8
0
  6
ByLayer
 62
  256
370
   -1
100
AcDbCircle
 10
56.67008451342554
 20
28.25785300000002
 40
0
100
AcDbArc
 50
0
 51
90
  0
ARC
  5
24D
100
AcDbEntity
  8
0
  6
ByLayer
 62
  256
370
   -1
100
AcDbCircle
 10
42.67008451342554
 20
14.25785300000002
 40
0
100
AcDbArc
 50
180
 51
270
  0
ARC
  5
24E
100
AcDbEntity
  8
0
  6
ByLayer
 62
  256
370
   -1
100
AcDbCircle
 10
56.67008451342554
 20
14.25785300000002
 40
0
100
AcDbArc
 50
270
 51
360
  0
LINE
  5
24F
100
AcDbEntity
  8
0
  6
ByLayer
 62
  256
370
   -1
100
AcDbLine
 10
64.10133451342553
 20
28.25785300000002
 11
78.10133451342553
 21
28.25785300000002
  0
LINE
  5
250
100
AcDbEntity
  8
0
  6
ByLayer
 62
  256
370
   -1
100
AcDbLine
 10
64.10133451342553
 20
14.25785300000002
 11
78.10133451342553
 21
14.25785300000002
  0
LINE
  5
251
100
AcDbEntity
  8
0
  6
ByLayer
 62
  256
370
   -1
100
AcDbLine
 10
64.10133451342553
 20
28.25785300000002
 11
64.10133451342553
 21
14.25785300000002
  0
ARC
  5
252
100
AcDbEntity
  8
0
  6
ByLayer
 62
  256
370
   -1
100
AcDbCircle
 10
64.10133451342553
 20
28.25785300000002
 40
0
100
AcDbArc
 50
90
 51
180
  0
ARC
  5
253
100
AcDbEntity
  8
0
  6
ByLayer
 62
  256
370
   -1
100
AcDbCircle
 10
78.10133451342553
 20
28.25785300000002
 40
0
100
AcDbArc
 50
0
 51
90
  0
ARC
  5
254
100
AcDbEntity
  8
0
  6
ByLayer
 62
  256
370
   -1
100
AcDbCircle
 10
64.10133451342553
 20
14.25785300000002
 40
0
100
AcDbArc
 50
180
 51
270
  0
ARC
  5
255
100
AcDbEntity
  8
0
  6
ByLayer
 62
  256
370
   -1
100
AcDbCircle
 10
78.10133451342553
 20
14.25785300000002
 40
0
100
AcDbArc
 50
270
 51
360
  0
LINE
  5
256
100
AcDbEntity
  8
0
  6
ByLayer
 62
  256
370
   -1
100
AcDbLine
 10
66.48258451342554
 20
28.25785300000002
 11
80.48258451342552
 21
28.25785300000002
  0
LINE
  5
257
100
AcDbEntity
  8
0
  6
ByLayer
 62
  256
370
   -1
100
AcDbLine
 10
66.48258451342554
 20
14.25785300000002
 11
80.48258451342552
 21
14.25785300000002
  0
LINE
  5
258
100
AcDbEntity
  8
0
  6
ByLayer
 62
  256
370
   -1
100
AcDbLine
 10
80.48258451342552
 20
28.25785300000002
 11
80.48258451342552
 21
14.25785300000002
  0
ARC
  5
259
100
AcDbEntity
  8
0
  6
ByLayer
 62
  256
370
   -1
100
AcDbCircle
 10
66.48258451342554
 20
28.25785300000002
 40
0
100
AcDbArc
 50
90
 51
180
  0
ARC
  5
25A
100
AcDbEntity
  8
0
  6
ByLayer
 62
  256
370
   -1
100
AcDbCircle
 10
80.48258451342552
 20
28.25785300000002
 40
0
100
AcDbArc
 50
0
 51
90
  0
ARC
  5
25B
100
AcDbEntity
  8
0
  6
ByLayer
 62
  256
370
   -1
100
AcDbCircle
 10
66.48258451342554
 20
14.25785300000002
 40
0
100
AcDbArc
 50
180
 51
270
  0
ARC
  5
25C
100
AcDbEntity
  8
0
  6
ByLayer
 62
  256
370
   -1
100
AcDbCircle
 10
80.48258451342552
 20
14.25785300000002
 40
0
100
AcDbArc
 50
270
 51
360
  0
LINE
  5
25D
100
AcDbEntity
  8
0
  6
ByLayer
 62
  256
370
   -1
100
AcDbLine
 10
135.5388345134255
 20
28.25785300000002
 11
149.5388345134255
 21
28.25785300000002
  0
LINE
  5
25E
100
AcDbEntity
  8
0
  6
ByLayer
 62
  256
370
   -1
100
AcDbLine
 10
135.5388345134255
 20
14.25785300000002
 11
149.5388345134255
 21
14.25785300000002
  0
LINE
  5
25F
100
AcDbEntity
  8
0
  6
ByLayer
 62
  256
370
   -1
100
AcDbLine
 10
135.5388345134255
 20
28.25785300000002
 11
135.5388345134255
 21
14.25785300000002
  0
ARC
  5
260
100
AcDbEntity
  8
0
  6
ByLayer
 62
  256
370
   -1
100
AcDbCircle
 10
135.5388345134255
 20
28.25785300000002
 40
0
100
AcDbArc
 50
90
 51
180
  0
ARC
  5
261
100
AcDbEntity
  8
0
  6
ByLayer
 62
  256
370
   -1
100
AcDbCircle
 10
149.5388345134255
 20
28.25785300000002
 40
0
100
AcDbArc
 50
0
 51
90
  0
ARC
  5
262
100
AcDbEntity
  8
0
  6
ByLayer
 62
  256
370
   -1
100
AcDbCircle
 10
135.5388345134255
 20
14.25785300000002
 40
0
100
AcDbArc
 50
180
 51
270
  0
ARC
  5
263
100
AcDbEntity
  8
0
  6
ByLayer
 62
  256
370
   -1
100
AcDbCircle
 10
149.5388345134255
 20
14.25785300000002
 40
0
100
AcDbArc
 50
270
 51
360
  0
LINE
  5
264
100
AcDbEntity
  8
0
  6
ByLayer
 62
  256
370
   -1
100
AcDbLine
 10
189.1638345134255
 20
27.25785300000002
 11
195.9138345134255
 21
27.25785300000002
  0
LINE
  5
265
100
AcDbEntity
  8
0
  6
ByLayer
 62
  256
370
   -1
100
AcDbLine
 10
189.1638345134255
 20
13.25785300000002
 11
195.9138345134255
 21
13.25785300000002
  0
LINE
  5
266
100
AcDbEntity
  8
0
  6
ByLayer
 62
  256
370
   -1
100
AcDbLine
 10
189.1638345134255
 20
27.25785300000002
 11
189.1638345134255
 21
13.25785300000002
  0
LINE
  5
267
100
AcDbEntity
  8
0
  6
ByLayer
 62
  256
370
   -1
100
AcDbLine
 10
195.9138345134255
 20
27.25785300000002
 11
195.9138345134255
 21
13.25785300000002
  0
ARC
  5
268
100
AcDbEntity
  8
0
  6
ByLayer
 62
  256
370
   -1
100
AcDbCircle
 10
189.1638345134255
 20
27.25785300000002
 40
0
100
AcDbArc
 50
90
 51
180
  0
ARC
  5
269
100
AcDbEntity
  8
0
  6
ByLayer
 62
  256
370
   -1
100
AcDbCircle
 10
195.9138345134255
 20
27.25785300000002
 40
0
100
AcDbArc
 50
0
 51
90
  0
ARC
  5
26A
100
AcDbEntity
  8
0
  6
ByLayer
 62
  256
370
   -1
100
AcDbCircle
 10
189.1638345134255
 20
13.25785300000002
 40
0
100
AcDbArc
 50
180
 51
270
  0
ARC
  5
26B
100
AcDbEntity
  8
0
  6
ByLayer
 62
  256
370
   -1
100
AcDbCircle
 10
195.9138345134255
 20
13.25785300000002
 40
0
100
AcDbArc
 50
270
 51
360
  0
LINE
  5
26C
100
AcDbEntity
  8
0
  6
ByLayer
 62
  256
370
   -1
100
AcDbLine
 10
89.16383451342553
 20
27.25785300000002
 11
95.91383451342553
 21
27.25785300000002
  0
LINE
  5
26D
100
AcDbEntity
  8
0
  6
ByLayer
 62
  256
370
   -1
100
AcDbLine
 10
89.16383451342553
 20
13.25785300000002
 11
95.91383451342553
 21
13.25785300000002
  0
LINE
  5
26E
100
AcDbEntity
  8
0
  6
ByLayer
 62
  256
370
   -1
100
AcDbLine
 10
95.91383451342553
 20
27.25785300000002
 11
95.91383451342553
 21
13.25785300000002
  0
ARC
  5
26F
100
AcDbEntity
  8
0
  6
ByLayer
 62
  256
370
   -1
100
AcDbCircle
 10
89.16383451342553
 20
27.25785300000002
 40
0
100
AcDbArc
 50
90
 51
180
  0
ARC
  5
270
100
AcDbEntity
  8
0
  6
ByLayer
 62
  256
370
   -1
100
AcDbCircle
 10
95.91383451342553
 20
27.25785300000002
 40
0
100
AcDbArc
 50
0
 51
90
  0
ARC
  5
271
100
AcDbEntity
  8
0
  6
ByLayer
 62
  256
370
   -1
100
AcDbCircle
 10
89.16383451342553
 20
13.25785300000002
 40
0
100
AcDbArc
 50
180
 51
270
  0
ARC
  5
272
100
AcDbEntity
  8
0
  6
ByLayer
 62
  256
370
   -1
100
AcDbCircle
 10
95.91383451342553
 20
13.25785300000002
 40
0
100
AcDbArc
 50
270
 51
360
  0
LINE
  5
273
100
AcDbEntity
  8
0
  6
ByLayer
 62
  256
370
   -1
100
AcDbLine
 10
137.9200845134255
 20
28.25785300000002
 11
151.9200845134255
 21
28.25785300000002
  0
LINE
  5
274
100
AcDbEntity
  8
0
  6
ByLayer
 62
  256
370
   -1
100
AcDbLine
 10
137.9200845134255
 20
14.25785300000002
 11
151.9200845134255
 21
14.25785300000002
  0
LINE
  5
275
100
AcDbEntity
  8
0
  6
ByLayer
 62
  256
370
   -1
100
AcDbLine
 10
151.9200845134255
 20
28.25785300000002
 11
151.9200845134255
 21
14.25785300000002
  0
ARC
  5
276
100
AcDbEntity
  8
0
  6
ByLayer
 62
  256
370
   -1
100
AcDbCircle
 10
137.9200845134255
 20
28.25785300000002
 40
0
100
AcDbArc
 50
90
 51
180
  0
ARC
  5
277
100
AcDbEntity
  8
0
  6
ByLayer
 62
  256
370
   -1
100
AcDbCircle
 10
151.9200845134255
 20
28.25785300000002
 40
0
100
AcDbArc
 50
0
 51
90
  0
ARC
  5
278
100
AcDbEntity
  8
0
  6
ByLayer
 62
  256
370
   -1
100
AcDbCircle
 10
137.9200845134255
 20
14.25785300000002
 40
0
100
AcDbArc
 50
180
 51
270
  0
ARC
  5
279
100
AcDbEntity
  8
0
  6
ByLayer
 62
  256
370
   -1
100
AcDbCircle
 10
151.9200845134255
 20
14.25785300000002
 40
0
100
AcDbArc
 50
270
 51
360
  0
LINE
  5
27A
100
AcDbEntity
  8
0
  6
ByLayer
 62
  256
370
   -1
100
AcDbLine
 10
179.6450845134255
 20
27.25785300000002
 11
186.3950845134255
 21
27.25785300000002
  0
LINE
  5
27B
100
AcDbEntity
  8
0
  6
ByLayer
 62
  256
370
   -1
100
AcDbLine
 10
179.6450845134255
 20
13.25785300000002
 11
186.3950845134255
 21
13.25785300000002
  0
LINE
  5
27C
100
AcDbEntity
  8
0
  6
ByLayer
 62
  256
370
   -1
100
AcDbLine
 10
179.6450845134255
 20
27.25785300000002
 11
179.6450845134255
 21
13.25785300000002
  0
LINE
  5
27D
100
AcDbEntity
  8
0
  6
ByLayer
 62
  256
370
   -1
100
AcDbLine
 10
186.3950845134255
 20
27.25785300000002
 11
186.3950845134255
 21
13.25785300000002
  0
ARC
  5
27E
100
AcDbEntity
  8
0
  6
ByLayer
 62
  256
370
   -1
100
AcDbCircle
 10
179.6450845134255
 20
27.25785300000002
 40
0
100
AcDbArc
 50
90
 51
180
  0
ARC
  5
27F
100
AcDbEntity
  8
0
  6
ByLayer
 62
  256
370
   -1
100
AcDbCircle
 10
186.3950845134255
 20
27.25785300000002
 40
0
100
AcDbArc
 50
0
 51
90
  0
ARC
  5
280
100
AcDbEntity
  8
0
  6
ByLayer
 62
  256
370
   -1
100
AcDbCircle
 10
179.6450845134255
 20
13.25785300000002
 40
0
100
AcDbArc
 50
180
 51
270
  0
ARC
  5
281
100
AcDbEntity
  8
0
  6
ByLayer
 62
  256
370
   -1
100
AcDbCircle
 10
186.3950845134255
 20
13.25785300000002
 40
0
100
AcDbArc
 50
270
 51
360
  0
LINE
  5
282
100
AcDbEntity
  8
0
  6
ByLayer
 62
  256
370
   -1
100
AcDbLine
 10
84.39508451342553
 20
27.25785300000002
 11
91.14508451342553
 21
27.25785300000002
  0
LINE
  5
283
100
AcDbEntity
  8
0
  6
ByLayer
 62
  256
370
   -1
100
AcDbLine
 10
84.39508451342553
 20
13.25785300000002
 11
91.14508451342553
 21
13.25785300000002
  0
LINE
  5
284
100
AcDbEntity
  8
0
  6
ByLayer
 62
  256
370
   -1
100
AcDbLine
 10
84.39508451342553
 20
27.25785300000002
 11
84.39508451342553
 21
13.25785300000002
  0
ARC
  5
285
100
AcDbEntity
  8
0
  6
ByLayer
 62
  256
370
   -1
100
AcDbCircle
 10
84.39508451342553
 20
27.25785300000002
 40
0
100
AcDbArc
 50
90
 51
180
  0
ARC
  5
286
100
AcDbEntity
  8
0
  6
ByLayer
 62
  256
370
   -1
100
AcDbCircle
 10
91.14508451342553
 20
27.25785300000002
 40
0
100
AcDbArc
 50
0
 51
90
  0
ARC
  5
287
100
AcDbEntity
  8
0
  6
ByLayer
 62
  256
370
   -1
100
AcDbCircle
 10
84.39508451342553
 20
13.25785300000002
 40
0
100
AcDbArc
 50
180
 51
270
  0
ARC
  5
288
100
AcDbEntity
  8
0
  6
ByLayer
 62
  256
370
   -1
100
AcDbCircle
 10
91.14508451342553
 20
13.25785300000002
 40
0
100
AcDbArc
 50
270
 51
360
  0
LINE
  5
289
100
AcDbEntity
  8
0
  6
ByLayer
 62
  256
370
   -1
100
AcDbLine
 10
206.9763345134255
 20
28.25785300000002
 11
220.9763345134255
 21
28.25785300000002
  0
LINE
  5
28A
100
AcDbEntity
  8
0
  6
ByLayer
 62
  256
370
   -1
100
AcDbLine
 10
206.9763345134255
 20
14.25785300000002
 11
220.9763345134255
 21
14.25785300000002
  0
LINE
  5
28B
100
AcDbEntity
  8
0
  6
ByLayer
 62
  256
370
   -1
100
AcDbLine
 10
206.9763345134255
 20
28.25785300000002
 11
206.9763345134255
 21
14.25785300000002
  0
ARC
  5
28C
100
AcDbEntity
  8
0
  6
ByLayer
 62
  256
370
   -1
100
AcDbCircle
 10
206.9763345134255
 20
28.25785300000002
 40
0
100
AcDbArc
 50
90
 51
180
  0
ARC
  5
28D
100
AcDbEntity
  8
0
  6
ByLayer
 62
  256
370
   -1
100
AcDbCircle
 10
220.9763345134255
 20
28.25785300000002
 40
0
100
AcDbArc
 50
0
 51
90
  0
ARC
  5
28E
100
AcDbEntity
  8
0
  6
ByLayer
 62
  256
370
   -1
100
AcDbCircle
 10
206.9763345134255
 20
14.25785300000002
 40
0
100
AcDbArc
 50
180
 51
270
  0
ARC
  5
28F
100
AcDbEntity
  8
0
  6
ByLayer
 62
  256
370
   -1
100
AcDbCircle
 10
220.9763345134255
 20
14.25785300000002
 40
0
100
AcDbArc
 50
270
 51
360
  0
LINE
  5
290
100
AcDbEntity
  8
0
  6
ByLayer
 62
  256
370
   -1
100
AcDbLine
 10
209.3575845134255
 20
28.25785300000002
 11
223.3575845134255
 21
28.25785300000002
  0
LINE
  5
291
100
AcDbEntity
  8
0
  6
ByLayer
 62
  256
370
   -1
100
AcDbLine
 10
209.3575845134255
 20
14.25785300000002
 11
223.3575845134255
 21
14.25785300000002
  0
LINE
  5
292
100
AcDbEntity
  8
0
  6
ByLayer
 62
  256
370
   -1
100
AcDbLine
 10
223.3575845134255
 20
28.25785300000002
 11
223.3575845134255
 21
14.25785300000002
  0
ARC
  5
293
100
AcDbEntity
  8
0
  6
ByLayer
 62
  256
370
   -1
100
AcDbCircle
 10
209.3575845134255
 20
28.25785300000002
 40
0
100
AcDbArc
 50
90
 51
180
  0
ARC
  5
294
100
AcDbEntity
  8
0
  6
ByLayer
 62
  256
370
   -1
100
AcDbCircle
 10
223.3575845134255
 20
28.25785300000002
 40
0
100
AcDbArc
 50
0
 51
90
  0
ARC
  5
295
100
AcDbEntity
  8
0
  6
ByLayer
 62
  256
370
   -1
100
AcDbCircle
 10
209.3575845134255
 20
14.25785300000002
 40
0
100
AcDbArc
 50
180
 51
270
  0
ARC
  5
296
100
AcDbEntity
  8
0
  6
ByLayer
 62
  256
370
   -1
100
AcDbCircle
 10
223.3575845134255
 20
14.25785300000002
 40
0
100
AcDbArc
 50
270
 51
360
  0
LINE
  5
297
100
AcDbEntity
  8
0
  6
ByLayer
 62
  256
370
   -1
100
AcDbLine
 10
230.7888345134255
 20
28.25785300000002
 11
244.7888345134255
 21
28.25785300000002
  0
LINE
  5
298
100
AcDbEntity
  8
0
  6
ByLayer
 62
  256
370
   -1
100
AcDbLine
 10
230.7888345134255
 20
14.25785300000002
 11
244.7888345134255
 21
14.25785300000002
  0
LINE
  5
299
100
AcDbEntity
  8
0
  6
ByLayer
 62
  256
370
   -1
100
AcDbLine
 10
230.7888345134255
 20
28.25785300000002
 11
230.7888345134255
 21
14.25785300000002
  0
ARC
  5
29A
100
AcDbEntity
  8
0
  6
ByLayer
 62
  256
370
   -1
100
AcDbCircle
 10
230.7888345134255
 20
28.25785300000002
 40
0
100
AcDbArc
 50
90
 51
180
  0
ARC
  5
29B
100
AcDbEntity
  8
0
  6
ByLayer
 62
  256
370
   -1
100
AcDbCircle
 10
244.7888345134255
 20
28.25785300000002
 40
0
100
AcDbArc
 50
0
 51
90
  0
ARC
  5
29C
100
AcDbEntity
  8
0
  6
ByLayer
 62
  256
370
   -1
100
AcDbCircle
 10
230.7888345134255
 20
14.25785300000002
 40
0
100
AcDbArc
 50
180
 51
270
  0
ARC
  5
29D
100
AcDbEntity
  8
0
  6
ByLayer
 62
  256
370
   -1
100
AcDbCircle
 10
244.7888345134255
 20
14.25785300000002
 40
0
100
AcDbArc
 50
270
 51
360
  0
LINE
  5
29E
100
AcDbEntity
  8
0
  6
ByLayer
 62
  256
370
   -1
100
AcDbLine
 10
233.1700845134255
 20
28.25785300000002
 11
247.1700845134255
 21
28.25785300000002
  0
LINE
  5
29F
100
AcDbEntity
  8
0
  6
ByLayer
 62
  256
370
   -1
100
AcDbLine
 10
233.1700845134255
 20
14.25785300000002
 11
247.1700845134255
 21
14.25785300000002
  0
LINE
  5
2A0
100
AcDbEntity
  8
0
  6
ByLayer
 62
  256
370
   -1
100
AcDbLine
 10
247.1700845134255
 20
28.25785300000002
 11
247.1700845134255
 21
14.25785300000002
  0
ARC
  5
2A1
100
AcDbEntity
  8
0
  6
ByLayer
 62
  256
370
   -1
100
AcDbCircle
 10
233.1700845134255
 20
28.25785300000002
 40
0
100
AcDbArc
 50
90
 51
180
  0
ARC
  5
2A2
100
AcDbEntity
  8
0
  6
ByLayer
 62
  256
370
   -1
100
AcDbCircle
 10
247.1700845134255
 20
28.25785300000002
 40
0
100
AcDbArc
 50
0
 51
90
  0
ARC
  5
2A3
100
AcDbEntity
  8
0
  6
ByLayer
 62
  256
370
   -1
100
AcDbCircle
 10
233.1700845134255
 20
14.25785300000002
 40
0
100
AcDbArc
 50
180
 51
270
  0
ARC
  5
2A4
100
AcDbEntity
  8
0
  6
ByLayer
 62
  256
370
   -1
100
AcDbCircle
 10
247.1700845134255
 20
14.25785300000002
 40
0
100
AcDbArc
 50
270
 51
360
  0
LINE
  5
2A5
100
AcDbEntity
  8
0
  6
ByLayer
 62
  256
370
   -1
100
AcDbLine
 10
254.6013345134255
 20
28.25785300000002
 11
268.6013345134255
 21
28.25785300000002
  0
LINE
  5
2A6
100
AcDbEntity
  8
0
  6
ByLayer
 62
  256
370
   -1
100
AcDbLine
 10
254.6013345134255
 20
14.25785300000002
 11
268.6013345134255
 21
14.25785300000002
  0
LINE
  5
2A7
100
AcDbEntity
  8
0
  6
ByLayer
 62
  256
370
   -1
100
AcDbLine
 10
268.6013345134255
 20
28.25785300000002
 11
268.6013345134255
 21
14.25785300000002
  0
ARC
  5
2A8
100
AcDbEntity
  8
0
  6
ByLayer
 62
  256
370
   -1
100
AcDbCircle
 10
254.6013345134255
 20
28.25785300000002
 40
0
100
AcDbArc
 50
90
 51
180
  0
ARC
  5
2A9
100
AcDbEntity
  8
0
  6
ByLayer
 62
  256
370
   -1
100
AcDbCircle
 10
268.6013345134255
 20
28.25785300000002
 40
0
100
AcDbArc
 50
0
 51
90
  0
ARC
  5
2AA
100
AcDbEntity
  8
0
  6
ByLayer
 62
  256
370
   -1
100
AcDbCircle
 10
254.6013345134255
 20
14.25785300000002
 40
0
100
AcDbArc
 50
180
 51
270
  0
ARC
  5
2AB
100
AcDbEntity
  8
0
  6
ByLayer
 62
  256
370
   -1
100
AcDbCircle
 10
268.6013345134255
 20
14.25785300000002
 40
0
100
AcDbArc
 50
270
 51
360
  0
LINE
  5
2AC
100
AcDbEntity
  8
0
  6
ByLayer
 62
  256
370
   -1
100
AcDbLine
 10
252.2200845134256
 20
28.25785300000002
 11
266.2200845134256
 21
28.25785300000002
  0
LINE
  5
2AD
100
AcDbEntity
  8
0
  6
ByLayer
 62
  256
370
   -1
100
AcDbLine
 10
252.2200845134256
 20
14.25785300000002
 11
266.2200845134256
 21
14.25785300000002
  0
LINE
  5
2AE
100
AcDbEntity
  8
0
  6
ByLayer
 62
  256
370
   -1
100
AcDbLine
 10
252.2200845134256
 20
28.25785300000002
 11
252.2200845134256
 21
14.25785300000002
  0
ARC
  5
2AF
100
AcDbEntity
  8
0
  6
ByLayer
 62
  256
370
   -1
100
AcDbCircle
 10
252.2200845134256
 20
28.25785300000002
 40
0
100
AcDbArc
 50
90
 51
180
  0
ARC
  5
2B0
100
AcDbEntity
  8
0
  6
ByLayer
 62
  256
370
   -1
100
AcDbCircle
 10
266.2200845134256
 20
28.25785300000002
 40
0
100
AcDbArc
 50
0
 51
90
  0
ARC
  5
2B1
100
AcDbEntity
  8
0
  6
ByLayer
 62
  256
370
   -1
100
AcDbCircle
 10
252.2200845134256
 20
14.25785300000002
 40
0
100
AcDbArc
 50
180
 51
270
  0
ARC
  5
2B2
100
AcDbEntity
  8
0
  6
ByLayer
 62
  256
370
   -1
100
AcDbCircle
 10
266.2200845134256
 20
14.25785300000002
 40
0
100
AcDbArc
 50
270
 51
360
  0
LINE
  5
2B3
100
AcDbEntity
  8
0
  6
ByLayer
 62
  256
370
   -1
100
AcDbLine
 10
276.0325845134255
 20
28.25785300000002
 11
290.0325845134255
 21
28.25785300000002
  0
LINE
  5
2B4
100
AcDbEntity
  8
0
  6
ByLayer
 62
  256
370
   -1
100
AcDbLine
 10
276.0325845134255
 20
14.25785300000002
 11
290.0325845134255
 21
14.25785300000002
  0
LINE
  5
2B5
100
AcDbEntity
  8
0
  6
ByLayer
 62
  256
370
   -1
100
AcDbLine
 10
276.0325845134255
 20
28.25785300000002
 11
276.0325845134255
 21
14.25785300000002
  0
ARC
  5
2B6
100
AcDbEntity
  8
0
  6
ByLayer
 62
  256
370
   -1
100
AcDbCircle
 10
276.0325845134255
 20
28.25785300000002
 40
0
100
AcDbArc
 50
90
 51
180
  0
ARC
  5
2B7
100
AcDbEntity
  8
0
  6
ByLayer
 62
  256
370
   -1
100
AcDbCircle
 10
290.0325845134255
 20
28.25785300000002
 40
0
100
AcDbArc
 50
0
 51
90
  0
ARC
  5
2B8
100
AcDbEntity
  8
0
  6
ByLayer
 62
  256
370
   -1
100
AcDbCircle
 10
276.0325845134255
 20
14.25785300000002
 40
0
100
AcDbArc
 50
180
 51
270
  0
ARC
  5
2B9
100
AcDbEntity
  8
0
  6
ByLayer
 62
  256
370
   -1
100
AcDbCircle
 10
290.0325845134255
 20
14.25785300000002
 40
0
100
AcDbArc
 50
270
 51
360
  0
LINE
  5
2BA
100
AcDbEntity
  8
0
  6
ByLayer
 62
  256
370
   -1
100
AcDbLine
 10
278.4138345134255
 20
28.25785300000002
 11
292.4138345134255
 21
28.25785300000002
  0
LINE
  5
2BB
100
AcDbEntity
  8
0
  6
ByLayer
 62
  256
370
   -1
100
AcDbLine
 10
278.4138345134255
 20
14.25785300000002
 11
292.4138345134255
 21
14.25785300000002
  0
LINE
  5
2BC
100
AcDbEntity
  8
0
  6
ByLayer
 62
  256
370
   -1
100
AcDbLine
 10
292.4138345134255
 20
28.25785300000002
 11
292.4138345134255
 21
14.25785300000002
  0
ARC
  5
2BD
100
AcDbEntity
  8
0
  6
ByLayer
 62
  256
370
   -1
100
AcDbCircle
 10
278.4138345134255
 20
28.25785300000002
 40
0
100
AcDbArc
 50
90
 51
180
  0
ARC
  5
2BE
100
AcDbEntity
  8
0
  6
ByLayer
 62
  256
370
   -1
100
AcDbCircle
 10
292.4138345134255
 20
28.25785300000002
 40
0
100
AcDbArc
 50
0
 51
90
  0
ARC
  5
2BF
100
AcDbEntity
  8
0
  6
ByLayer
 62
  256
370
   -1
100
AcDbCircle
 10
278.4138345134255
 20
14.25785300000002
 40
0
100
AcDbArc
 50
180
 51
270
  0
ARC
  5
2C0
100
AcDbEntity
  8
0
  6
ByLayer
 62
  256
370
   -1
100
AcDbCircle
 10
292.4138345134255
 20
14.25785300000002
 40
0
100
AcDbArc
 50
270
 51
360
  0
CIRCLE
  5
2C1
100
AcDbEntity
  8
0
  6
ByLayer
 62
  256
370
   -1
100
AcDbCircle
 10
21.09508460041855
 20
97.45785300000001
 40
2
  0
CIRCLE
  5
2C2
100
AcDbEntity
  8
0
  6
ByLayer
 62
  256
370
   -1
100
AcDbCircle
 10
40.14508442643252
 20
97.457853
 40
2
  0
CIRCLE
  5
2C3
100
AcDbEntity
  8
0
  6
ByLayer
 62
  256
370
   -1
100
AcDbCircle
 10
59.19508442643252
 20
97.45785136704681
 40
2
  0
CIRCLE
  5
2C4
100
AcDbEntity
  8
0
  6
ByLayer
 62
  256
370
   -1
100
AcDbCircle
 10
78.2450844264325
 20
97.457853
 40
2
  0
CIRCLE
  5
2C5
100
AcDbEntity
  8
0
  6
ByLayer
 62
  256
370
   -1
100
AcDbCircle
 10
97.2950861533842
 20
97.45785300000001
 40
2
  0
CIRCLE
  5
2C6
100
AcDbEntity
  8
0
  6
ByLayer
 62
  256
370
   -1
100
AcDbCircle
 10
116.3450876346041
 20
97.45785300000001
 40
2
  0
CIRCLE
  5
2C7
100
AcDbEntity
  8
0
  6
ByLayer
 62
  256
370
   -1
100
AcDbCircle
 10
135.3950844264325
 20
97.45785159118675
 40
2
  0
CIRCLE
  5
2C8
100
AcDbEntity
  8
0
  6
ByLayer
 62
  256
370
   -1
100
AcDbCircle
 10
154.4450811061957
 20
97.457853
 40
2
  0
CIRCLE
  5
2C9
100
AcDbEntity
  8
0
  6
ByLayer
 62
  256
370
   -1
100
AcDbCircle
 10
173.4950844264325
 20
97.457853
 40
2
  0
CIRCLE
  5
2CA
100
AcDbEntity
  8
0
  6
ByLayer
 62
  256
370
   -1
100
AcDbCircle
 10
192.5450844264325
 20
97.457853
 40
2
  0
CIRCLE
  5
2CB
100
AcDbEntity
  8
0
  6
ByLayer
 62
  256
370
   -1
100
AcDbCircle
 10
211.5950893820225
 20
97.45785300000001
 40
2
  0
CIRCLE
  5
2CC
100
AcDbEntity
  8
0
  6
ByLayer
 62
  256
370
   -1
100
AcDbCircle
 10
230.6450844264325
 20
97.457853
 40
2
  0
CIRCLE
  5
2CD
100
AcDbEntity
  8
0
  6
ByLayer
 62
  256
370
   -1
100
AcDbCircle
 10
249.6950844264325
 20
97.457853
 40
2
  0
CIRCLE
  5
2CE
100
AcDbEntity
  8
0
  6
ByLayer
 62
  256
370
   -1
100
AcDbCircle
 10
268.7450844264325
 20
97.457853
 40
2
  0
CIRCLE
  5
2CF
100
AcDbEntity
  8
0
  6
ByLayer
 62
  256
370
   -1
100
AcDbCircle
 10
287.7950858330981
 20
97.457853
 40
2
  0
CIRCLE
  5
2D0
100
AcDbEntity
  8
0
  6
ByLayer
 62
  256
370
   -1
100
AcDbCircle
 10
25.85758442643251
 20
78.40785229764892
 40
2
  0
CIRCLE
  5
2D1
100
AcDbEntity
  8
0
  6
ByLayer
 62
  256
370
   -1
100
AcDbCircle
 10
49.67008442643252
 20
78.407853
 40
2
  0
CIRCLE
  5
2D2
100
AcDbEntity
  8
0
  6
ByLayer
 62
  256
370
   -1
100
AcDbCircle
 10
68.72008442643252
 20
78.40785509161751
 40
2
  0
CIRCLE
  5
2D3
100
AcDbEntity
  8
0
  6
ByLayer
 62
  256
370
   -1
100
AcDbCircle
 10
87.7700844264325
 20
78.407853
 40
2
  0
CIRCLE
  5
2D4
100
AcDbEntity
  8
0
  6
ByLayer
 62
  256
370
   -1
100
AcDbCircle
 10
106.8200844264325
 20
78.4078544504782
 40
2
  0
CIRCLE
  5
2D5
100
AcDbEntity
  8
0
  6
ByLayer
 62
  256
370
   -1
100
AcDbCircle
 10
125.8700844264325
 20
78.407853
 40
2
  0
CIRCLE
  5
2D6
100
AcDbEntity
  8
0
  6
ByLayer
 62
  256
370
   -1
100
AcDbCircle
 10
144.9200844264325
 20
78.407853
 40
2
  0
CIRCLE
  5
2D7
100
AcDbEntity
  8
0
  6
ByLayer
 62
  256
370
   -1
100
AcDbCircle
 10
163.9700844264325
 20
78.407853
 40
2
  0
CIRCLE
  5
2D8
100
AcDbEntity
  8
0
  6
ByLayer
 62
  256
370
   -1
100
AcDbCircle
 10
183.0200867663632
 20
78.407853
 40
2
  0
CIRCLE
  5
2D9
100
AcDbEntity
  8
0
  6
ByLayer
 62
  256
370
   -1
100
AcDbCircle
 10
202.0700844264325
 20
78.407853
 40
2
  0
CIRCLE
  5
2DA
100
AcDbEntity
  8
0
  6
ByLayer
 62
  256
370
   -1
100
AcDbCircle
 10
221.1200897697448
 20
78.40785300000002
 40
2
  0
CIRCLE
  5
2DB
100
AcDbEntity
  8
0
  6
ByLayer
 62
  256
370
   -1
100
AcDbCircle
 10
240.1700844264325
 20
78.407853
 40
2
  0
CIRCLE
  5
2DC
100
AcDbEntity
  8
0
  6
ByLayer
 62
  256
370
   -1
100
AcDbCircle
 10
259.2200844264326
 20
78.407853
 40
2
  0
CIRCLE
  5
2DD
100
AcDbEntity
  8
0
  6
ByLayer
 62
  256
370
   -1
100
AcDbCircle
 10
283.0325844264325
 20
78.407853
 40
2
  0
CIRCLE
  5
2DE
100
AcDbEntity
  8
0
  6
ByLayer
 62
  256
370
   -1
100
AcDbCircle
 10
23.47633531879491
 20
59.35785300000001
 40
2
  0
CIRCLE
  5
2DF
100
AcDbEntity
  8
0
  6
ByLayer
 62
  256
370
   -1
100
AcDbCircle
 10
28.23883442643252
 20
59.35785300000001
 40
2
  0
CIRCLE
  5
2E0
100
AcDbEntity
  8
0
  6
ByLayer
 62
  256
370
   -1
100
AcDbCircle
 10
54.43258442643251
 20
59.35785300000001
 40
2
  0
CIRCLE
  5
2E1
100
AcDbEntity
  8
0
  6
ByLayer
 62
  256
370
   -1
100
AcDbCircle
 10
73.48258442643251
 20
59.35785300000001
 40
2
  0
CIRCLE
  5
2E2
100
AcDbEntity
  8
0
  6
ByLayer
 62
  256
370
   -1
100
AcDbCircle
 10
92.53258442643252
 20
59.35785300000001
 40
2
  0
CIRCLE
  5
2E3
100
AcDbEntity
  8
0
  6
ByLayer
 62
  256
370
   -1
100
AcDbCircle
 10
111.5825844264325
 20
59.35785401178009
 40
2
  0
CIRCLE
  5
2E4
100
AcDbEntity
  8
0
  6
ByLayer
 62
  256
370
   -1
100
AcDbCircle
 10
130.6325844264325
 20
59.35785300000001
 40
2
  0
CIRCLE
  5
2E5
100
AcDbEntity
  8
0
  6
ByLayer
 62
  256
370
   -1
100
AcDbCircle
 10
149.6825865674226
 20
59.35785300000002
 40
2
  0
CIRCLE
  5
2E6
100
AcDbEntity
  8
0
  6
ByLayer
 62
  256
370
   -1
100
AcDbCircle
 10
168.7325844264325
 20
59.35785300000001
 40
2
  0
CIRCLE
  5
2E7
100
AcDbEntity
  8
0
  6
ByLayer
 62
  256
370
   -1
100
AcDbCircle
 10
187.7825844264325
 20
59.35785300000001
 40
2
  0
CIRCLE
  5
2E8
100
AcDbEntity
  8
0
  6
ByLayer
 62
  256
370
   -1
100
AcDbCircle
 10
206.8325844264325
 20
59.35785454144174
 40
2
  0
CIRCLE
  5
2E9
100
AcDbEntity
  8
0
  6
ByLayer
 62
  256
370
   -1
100
AcDbCircle
 10
225.8825844264325
 20
59.35785300000001
 40
2
  0
CIRCLE
  5
2EA
100
AcDbEntity
  8
0
  6
ByLayer
 62
  256
370
   -1
100
AcDbCircle
 10
244.9325844264325
 20
59.35785300000001
 40
2
  0
CIRCLE
  5
2EB
100
AcDbEntity
  8
0
  6
ByLayer
 62
  256
370
   -1
100
AcDbCircle
 10
275.8888344264325
 20
59.35785506656403
 40
2
  0
CIRCLE
  5
2EC
100
AcDbEntity
  8
0
  6
ByLayer
 62
  256
370
   -1
100
AcDbCircle
 10
33.00133442643252
 20
40.30785370082523
 40
2
  0
CIRCLE
  5
2ED
100
AcDbEntity
  8
0
  6
ByLayer
 62
  256
370
   -1
100
AcDbCircle
 10
63.95758442643252
 20
40.30785299999999
 40
2
  0
CIRCLE
  5
2EE
100
AcDbEntity
  8
0
  6
ByLayer
 62
  256
370
   -1
100
AcDbCircle
 10
83.0075857385049
 20
40.30785299999999
 40
2
  0
CIRCLE
  5
2EF
100
AcDbEntity
  8
0
  6
ByLayer
 62
  256
370
   -1
100
AcDbCircle
 10
102.0575844264325
 20
40.30785299999999
 40
2
  0
CIRCLE
  5
2F0
100
AcDbEntity
  8
0
  6
ByLayer
 62
  256
370
   -1
100
AcDbCircle
 10
121.1075844264325
 20
40.30785373483114
 40
2
  0
CIRCLE
  5
2F1
100
AcDbEntity
  8
0
  6
ByLayer
 62
  256
370
   -1
100
AcDbCircle
 10
140.1575844264325
 20
40.30785299999999
 40
2
  0
CIRCLE
  5
2F2
100
AcDbEntity
  8
0
  6
ByLayer
 62
  256
370
   -1
100
AcDbCircle
 10
159.2075844264325
 20
40.3078549947556
 40
2
  0
CIRCLE
  5
2F3
100
AcDbEntity
  8
0
  6
ByLayer
 62
  256
370
   -1
100
AcDbCircle
 10
178.2575844264325
 20
40.30785299999999
 40
2
  0
CIRCLE
  5
2F4
100
AcDbEntity
  8
0
  6
ByLayer
 62
  256
370
   -1
100
AcDbCircle
 10
197.3075844264325
 20
40.30785299999999
 40
2
  0
CIRCLE
  5
2F5
100
AcDbEntity
  8
0
  6
ByLayer
 62
  256
370
   -1
100
AcDbCircle
 10
216.3575849759508
 20
40.30785299999999
 40
2
  0
CIRCLE
  5
2F6
100
AcDbEntity
  8
0
  6
ByLayer
 62
  256
370
   -1
100
AcDbCircle
 10
235.4075844264325
 20
40.30785299999999
 40
2
  0
CIRCLE
  5
2F7
100
AcDbEntity
  8
0
  6
ByLayer
 62
  256
370
   -1
100
AcDbCircle
 10
261.6013344264325
 20
40.30785299999999
 40
2
  0
CIRCLE
  5
2F8
100
AcDbEntity
  8
0
  6
ByLayer
 62
  256
370
   -1
100
AcDbCircle
 10
287.7950844264325
 20
40.30785349981841
 40
2
  0
CIRCLE
  5
2F9
100
AcDbEntity
  8
0
  6
ByLayer
 62
  256
370
   -1
100
AcDbCircle
 10
283.0325844264325
 20
21.25785300000001
 40
2
  0
CIRCLE
  5
2FA
100
AcDbEntity
  8
0
  6
ByLayer
 62
  256
370
   -1
100
AcDbCircle
 10
285.4138372211478
 20
21.257853
 40
2
  0
CIRCLE
  5
2FB
100
AcDbEntity
  8
0
  6
ByLayer
 62
  256
370
   -1
100
AcDbCircle
 10
259.2200844264326
 20
21.25785300000001
 40
2
  0
CIRCLE
  5
2FC
100
AcDbEntity
  8
0
  6
ByLayer
 62
  256
370
   -1
100
AcDbCircle
 10
261.6013344264326
 20
21.25785531503516
 40
2
  0
CIRCLE
  5
2FD
100
AcDbEntity
  8
0
  6
ByLayer
 62
  256
370
   -1
100
AcDbCircle
 10
237.7888344264325
 20
21.2578542991895
 40
2
  0
CIRCLE
  5
2FE
100
AcDbEntity
  8
0
  6
ByLayer
 62
  256
370
   -1
100
AcDbCircle
 10
240.1700844264325
 20
21.25785300000001
 40
2
  0
CIRCLE
  5
2FF
100
AcDbEntity
  8
0
  6
ByLayer
 62
  256
370
   -1
100
AcDbCircle
 10
213.9763344264325
 20
21.25785300000001
 40
2
  0
CIRCLE
  5
300
100
AcDbEntity
  8
0
  6
ByLayer
 62
  256
370
   -1
100
AcDbCircle
 10
216.3575851630367
 20
21.25785300000001
 40
2
  0
CIRCLE
  5
301
100
AcDbEntity
  8
0
  6
ByLayer
 62
  256
370
   -1
100
AcDbCircle
 10
71.10133442643252
 20
21.25785300000001
 40
2
  0
CIRCLE
  5
302
100
AcDbEntity
  8
0
  6
ByLayer
 62
  256
370
   -1
100
AcDbCircle
 10
73.48258442643251
 20
21.25785300000001
 40
2
  0
CIRCLE
  5
303
100
AcDbEntity
  8
0
  6
ByLayer
 62
  256
370
   -1
100
AcDbCircle
 10
47.28883442643251
 20
21.25785300000001
 40
2
  0
CIRCLE
  5
304
100
AcDbEntity
  8
0
  6
ByLayer
 62
  256
370
   -1
100
AcDbCircle
 10
49.67008499312001
 20
21.25785300000001
 40
2
  0
CIRCLE
  5
305
100
AcDbEntity
  8
0
  6
ByLayer
 62
  256
370
   -1
100
AcDbCircle
 10
23.47633442643252
 20
21.25785300000001
 40
2
  0
CIRCLE
  5
306
100
AcDbEntity
  8
0
  6
ByLayer
 62
  256
370
   -1
100
AcDbCircle
 10
25.85758442643251
 20
21.25785300000001
 40
2
  0
LINE
  5
307
100
AcDbEntity
  8
0
  6
ByLayer
 62
  256
370
   -1
100
AcDbLine
 10
27.09508460020929
 20
118.9578529997907
 11
27.09508460020929
 21
124.9578529997907
  0
LINE
  5
308
100
AcDbEntity
  8
0
  6
ByLayer
 62
  256
370
   -1
100
AcDbLine
 10
27.09508460020929
 20
124.9578529997907
 11
15.09508460020929
 21
124.9578529997907
  0
LINE
  5
309
100
AcDbEntity
  8
0
  6
ByLayer
 62
  256
370
   -1
100
AcDbLine
 10
15.09508460020929
 20
124.9578529997907
 11
15.09508460020929
 21
112.9578529997907
  0
LINE
  5
30A
100
AcDbEntity
  8
0
  6
ByLayer
 62
  256
370
   -1
100
AcDbLine
 10
15.09508460020929
 20
112.9578529997907
 11
27.09508460020929
 21
112.9578529997907
  0
LINE
  5
30B
100
AcDbEntity
  8
0
  6
ByLayer
 62
  256
370
   -1
100
AcDbLine
 10
27.09508460020929
 20
112.9578529997907
 11
27.09508460020929
 21
118.9578529997907
  0
CIRCLE
  5
30C
100
AcDbEntity
  8
0
  6
ByLayer
 62
  256
370
   -1
100
AcDbCircle
 10
21.09508460020929
 20
118.9578529997907
 40
2
  0
LINE
  5
30D
100
AcDbEntity
  8
0
  6
ByLayer
 62
  256
370
   -1
100
AcDbLine
 10
294.70035
 20
131.20016
 11
14.00000000000007
 21
131.20016
  0
LINE
  5
30E
100
AcDbEntity
  8
0
  6
ByLayer
 62
  256
370
   -1
100
AcDbLine
 10
294.70035
 20
131.20016
 11
298.70035
 21
131.20016
  0
ARC
  5
30F
100
AcDbEntity
  8
0
  6
ByLayer
 62
  256
370
   -1
100
AcDbCircle
 10
298.70035
 20
129.20016
 40
2
100
AcDbArc
 50
4.071109992273301e-013
 51
90
  0
LINE
  5
310
100
AcDbEntity
  8
0
  6
ByLayer
 62
  256
370
   -1
100
AcDbLine
 10
9.999999999999998
 20
131.20016
 11
14.00000000000007
 21
131.20016
  0
ARC
  5
311
100
AcDbEntity
  8
0
  6
ByLayer
 62
  256
370
   -1
100
AcDbCircle
 10
9.999999999999998
 20
129.20016
 40
2
100
AcDbArc
 50
90
 51
180
  0
LINE
  5
312
100
AcDbEntity
  8
0
  6
ByLayer
 62
  256
370
   -1
100
AcDbLine
 10
9.999999999999998
 20
8.000000000000011
 11
142.44235
 21
8.000000000000011
  0
ARC
  5
313
100
AcDbEntity
  8
0
  6
ByLayer
 62
  256
370
   -1
100
AcDbCircle
 10
9.999999999999998
 20
10.00000000000001
 40
2
100
AcDbArc
 50
179.9999999999999
 51
270
  0
LINE
  5
314
100
AcDbEntity
  8
0
  6
ByLayer
 62
  256
370
   -1
100
AcDbLine
 10
142.44235
 20
8.000000000000011
 11
298.70035
 21
8.000000000000011
  0
LINE
  5
315
100
AcDbEntity
  8
0
  6
ByLayer
 62
  256
370
   -1
100
AcDbLine
 10
300.70035
 20
40.04996000000001
 11
300.70035
 21
10.00000000000001
  0
ARC
  5
316
100
AcDbEntity
  8
0
  6
ByLayer
 62
  256
370
   -1
100
AcDbCircle
 10
298.70035
 20
10.00000000000001
 40
2
100
AcDbArc
 50
270
 51
1.017777498068325e-013
  0
LINE
  5
317
100
AcDbEntity
  8
0
  6
ByLayer
 62
  256
370
   -1
100
AcDbLine
 10
21.09508460020929
 20
106.4578529997907
 11
300.70035
 21
106.4578529997907
  0
LINE
  5
318
100
AcDbEntity
  8
0
  6
ByLayer
 62
  256
370
   -1
100
AcDbLine
 10
300.70035
 20
106.4578529997907
 11
7.999999999999998
 21
106.4578529997907
  0
CIRCLE
  5
319
100
AcDbEntity
  8
0
  6
ByLayer
 62
  256
370
   -1
100
AcDbCircle
 10
142.5388344264325
 20
21.25785413963297
 40
2
  0
CIRCLE
  5
31A
100
AcDbEntity
  8
0
  6
ByLayer
 62
  256
370
   -1
100
AcDbCircle
 10
144.9200844264325
 20
21.25785333214153
 40
2
  0
LINE
  5
31B
100
AcDbEntity
  8
0
  6
ByLayer
 62
  256
370
   -1
100
AcDbLine
 10
299.7003500000001
 20
118.9578529997907
 11
299.7003500000001
 21
129.2078529997907
  0
LINE
  5
31C
100
AcDbEntity
  8
0
  6
ByLayer
 62
  256
370
   -1
100
AcDbLine
 10
299.7003500000001
 20
129.2078529997907
 11
246.70035
 21
129.2078529997907
  0
LINE
  5
31D
100
AcDbEntity
  8
0
  6
ByLayer
 62
  256
370
   -1
100
AcDbLine
 10
246.70035
 20
129.2078529997907
 11
246.70035
 21
108.7078529997907
  0
LINE
  5
31E
100
AcDbEntity
  8
0
  6
ByLayer
 62
  256
370
   -1
100
AcDbLine
 10
246.70035
 20
108.7078529997907
 11
299.7003500000001
 21
108.7078529997907
  0
LINE
  5
31F
100
AcDbEntity
  8
0
  6
ByLayer
 62
  256
370
   -1
100
AcDbLine
 10
299.7003500000001
 20
108.7078529997907
 11
299.7003500000001
 21
118.9578529997907
  0
LINE
  5
320
100
AcDbEntity
  8
0
  6
ByLayer
 62
  256
370
   -1
100
AcDbLine
 10
241.70035
 20
118.9578529997907
 11
241.70035
 21
124.4578529997907
  0
LINE
  5
321
100
AcDbEntity
  8
0
  6
ByLayer
 62
  256
370
   -1
100
AcDbLine
 10
241.70035
 20
124.4578529997907
 11
238.1003500000001
 21
124.4578529997907
  0
LINE
  5
322
100
AcDbEntity
  8
0
  6
ByLayer
 62
  256
370
   -1
100
AcDbLine
 10
238.1003500000001
 20
124.4578529997907
 11
238.1003500000001
 21
113.4578529997907
  0
LINE
  5
323
100
AcDbEntity
  8
0
  6
ByLayer
 62
  256
370
   -1
100
AcDbLine
 10
238.1003500000001
 20
113.4578529997907
 11
241.70035
 21
113.4578529997907
  0
LINE
  5
324
100
AcDbEntity
  8
0
  6
ByLayer
 62
  256
370
   -1
100
AcDbLine
 10
241.70035
 20
113.4578529997907
 11
241.70035
 21
118.9578529997907
  0
LINE
  5
325
100
AcDbEntity
  8
0
  6
ByLayer
 62
  256
370
   -1
100
AcDbLine
 10
246.70035
 20
129.2078529997907
 11
299.7003500000001
 21
108.7078529997907
  0
LINE
  5
326
100
AcDbEntity
  8
0
  6
ByLayer
 62
  256
370
   -1
100
AcDbLine
 10
299.7003500000001
 20
129.2078529997907
 11
246.70035
 21
108.7078529997907
  0
LINE
  5
327
100
AcDbEntity
  8
0
  6
ByLayer
 62
  256
370
   -1
100
AcDbLine
 10
238.1003500000001
 20
124.4578529997907
 11
241.70035
 21
113.4578529997907
  0
LINE
  5
328
100
AcDbEntity
  8
0
  6
ByLayer
 62
  256
370
   -1
100
AcDbLine
 10
241.70035
 20
124.4578529997907
 11
238.1003500000001
 21
113.4578529997907
  0
CIRCLE
  5
329
100
AcDbEntity
  8
0
  6
ByLayer
 62
  256
370
   -1
100
AcDbCircle
 10
12.24264068711928
 20
126.9575193128807
 40
2.2
  0
CIRCLE
  5
32A
100
AcDbEntity
  8
0
  6
ByLayer
 62
  256
370
   -1
100
AcDbCircle
 10
41.23883451342552
 20
66.35785300000002
 40
2.2
  0
CIRCLE
  5
32B
100
AcDbEntity
  8
0
  6
ByLayer
 62
  256
370
   -1
100
AcDbCircle
 10
12.24264068711929
 20
12.24264068711929
 40
2.2
  0
CIRCLE
  5
32C
100
AcDbEntity
  8
0
  6
ByLayer
 62
  256
370
   -1
100
AcDbCircle
 10
296.4577093128807
 20
12.2426406871193
 40
2.2
  0
CIRCLE
  5
32D
100
AcDbEntity
  8
0
  6
ByLayer
 62
  256
370
   -1
100
AcDbCircle
 10
233.8577093128808
 20
110.70049368691
 40
2.2
  0
CIRCLE
  5
32E
100
AcDbEntity
  8
0
  6
ByLayer
 62
  256
370
   -1
100
AcDbCircle
 10
233.8577093128808
 20
126.9575193128807
 40
2.2
  0
CIRCLE
  5
32F
100
AcDbEntity
  8
0
  6
ByLayer
 62
  256
370
   -1
100
AcDbCircle
 10
248.4075845134256
 20
47.30785300000002
 40
2.2
  0
CIRCLE
  5
330
100
AcDbEntity
  8
0
  6
ByLayer
 62
  256
370
   -1
100
AcDbCircle
 10
44.49999999999999
 20
87.93285300000002
 40
1.75
  0
CIRCLE
  5
331
100
AcDbEntity
  8
0
  6
ByLayer
 62
  256
370
   -1
100
AcDbCircle
 10
81
 20
87.93285300000002
 40
1.75
  0
CIRCLE
  5
332
100
AcDbEntity
  8
0
  6
ByLayer
 62
  256
370
   -1
100
AcDbCircle
 10
117.5
 20
87.93285300000002
 40
1.75
  0
CIRCLE
  5
333
100
AcDbEntity
  8
0
  6
ByLayer
 62
  256
370
   -1
100
AcDbCircle
 10
154
 20
87.93285300000002
 40
1.75
  0
CIRCLE
  5
334
100
AcDbEntity
  8
0
  6
ByLayer
 62
  256
370
   -1
100
AcDbCircle
 10
190.5
 20
87.93285300000002
 40
1.75
  0
CIRCLE
  5
335
100
AcDbEntity
  8
0
  6
ByLayer
 62
  256
370
   -1
100
AcDbCircle
 10
227
 20
87.93285300000002
 40
1.75
  0
CIRCLE
  5
336
100
AcDbEntity
  8
0
  6
ByLayer
 62
  256
370
   -1
100
AcDbCircle
 10
263.5
 20
87.93285300000002
 40
1.75
  0
CIRCLE
  5
337
100
AcDbEntity
  8
0
  6
ByLayer
 62
  256
370
   -1
100
AcDbCircle
 10
44.49999999999999
 20
30.78285300000002
 40
1.75
  0
CIRCLE
  5
338
100
AcDbEntity
  8
0
  6
ByLayer
 62
  256
370
   -1
100
AcDbCircle
 10
81
 20
30.78285300000002
 40
1.75
  0
CIRCLE
  5
339
100
AcDbEntity
  8
0
  6
ByLayer
 62
  256
370
   -1
100
AcDbCircle
 10
117.5
 20
30.78285300000002
 40
1.75
  0
CIRCLE
  5
33A
100
AcDbEntity
  8
0
  6
ByLayer
 62
  256
370
   -1
100
AcDbCircle
 10
154
 20
30.78285300000002
 40
1.75
  0
CIRCLE
  5
33B
100
AcDbEntity
  8
0
  6
ByLayer
 62
  256
370
   -1
100
AcDbCircle
 10
190.5
 20
30.78285300000002
 40
1.75
  0
CIRCLE
  5
33C
100
AcDbEntity
  8
0
  6
ByLayer
 62
  256
370
   -1
100
AcDbCircle
 10
227
 20
30.78285300000002
 40
1.75
  0
CIRCLE
  5
33D
100
AcDbEntity
  8
0
  6
ByLayer
 62
  256
370
   -1
100
AcDbCircle
 10
263.5
 20
30.78285300000002
 40
1.75
  0
CIRCLE
  5
33E
100
AcDbEntity
  8
0
  6
ByLayer
 62
  256
370
   -1
100
AcDbCircle
 10
272.2200845134256
 20
85.40785300000002
 40
2.2
  0
MTEXT
  5
33F
100
AcDbEntity
  8
0
  6
ByLayer
 62
  256
370
   -1
100
AcDbMText
 10
38.60205599453158
 20
62.78395203525461
 30
0
 40
1
 41
6.194444958731782
 71
    1
 72
    1
  1
case hole
  7
notes
210
0
220
0
230
1
 50
0
 73
    2
 44
1
  0
MTEXT
  5
340
100
AcDbEntity
  8
0
  6
ByLayer
 62
  256
370
   -1
100
AcDbMText
 10
268.8611808079486
 20
82.7376039077697
 30
0
 40
1
 41
6.194444958731782
 71
    1
 72
    1
  1
case hole
  7
notes
210
0
220
0
230
1
 50
0
 73
    2
 44
1
  0
MTEXT
  5
341
100
AcDbEntity
  8
0
  6
ByLayer
 62
  256
370
   -1
100
AcDbMText
 10
288.6939476079681
 20
10.43518208462331
 30
0
 40
1
 41
6.194444958731782
 71
    1
 72
    1
  1
case hole
  7
notes
210
0
220
0
230
1
 50
0
 73
    2
 44
1
  0
MTEXT
  5
342
100
AcDbEntity
  8
0
  6
ByLayer
 62
  256
370
   -1
100
AcDbMText
 10
13.78169163295032
 20
10.16266443344411
 30
0
 40
1
 41
6.194444958731782
 71
    1
 72
    1
  1
case hole
  7
notes
210
0
220
0
230
1
 50
0
 73
    2
 44
1
  0
MTEXT
  5
343
100
AcDbEntity
  8
0
  6
ByLayer
 62
  256
370
   -1
100
AcDbMText
 10
14.50302022817803
 20
129.8638654490632
 30
0
 40
1
 41
6.194444958731782
 71
    1
 72
    1
  1
case hole
  7
notes
210
0
220
0
230
1
 50
0
 73
    2
 44
1
  0
MTEXT
  5
344
100
AcDbEntity
  8
0
  6
ByLayer
 62
  256
370
   -1
100
AcDbMText
 10
245.249001630567
 20
44.50257473935025
 30
0
 40
1
 41
6.194444958731782
 71
    1
 72
    1
  1
case hole
  7
notes
210
0
220
0
230
1
 50
0
 73
    2
 44
1
  0
MTEXT
  5
345
100
AcDbEntity
  8
0
  6
ByLayer
 62
  256
370
   -1
100
AcDbMText
 10
228.9952572419488
 20
124.3279774828882
 30
0
 40
1
 41
5.972222222222269
 71
    1
 72
    1
  1
oled hole
  7
notes
210
0
220
0
230
1
 50
0
 73
    2
 44
1
  0
MTEXT
  5
346
100
AcDbEntity
  8
0
  6
ByLayer
 62
  256
370
   -1
100
AcDbMText
 10
228.4504621339016
 20
108.3855522158102
 30
0
 40
1
 41
5.972222222222269
 71
    1
 72
    1
  1
oled hole
  7
notes
210
0
220
0
230
1
 50
0
 73
    2
 44
1
  0
LINE
  5
347
100
AcDbEntity
  8
0
  6
ByLayer
 62
  256
370
   -1
100
AcDbLine
 10
7.999999999999988
 20
47.75785299979071
 11
8
 21
9.999999886159902
  0
LINE
  5
348
100
AcDbEntity
  8
0
  6
ByLayer
 62
  256
370
   -1
100
AcDbLine
 10
7.999999999999998
 20
129.2001587995521
 11
7.999999999999988
 21
52.15785299979072
  0
LINE
  5
349
100
AcDbEntity
  8
0
  6
ByLayer
 62
  256
370
   -1
100
AcDbLine
 10
300.70035
 20
106.4578529997907
 11
270.75035
 21
106.4578529997907
  0
LINE
  5
34A
100
AcDbEntity
  8
0
  6
ByLayer
 62
  256
370
   -1
100
AcDbLine
 10
300.70035
 20
106.4578529997907
 11
300.70035
 21
52.15785299979071
  0
LINE
  5
34B
100
AcDbEntity
  8
0
  6
ByLayer
 62
  256
370
   -1
100
AcDbLine
 10
300.70035
 20
47.7578529997907
 11
300.70035
 21
10.00000375386932
  0
LINE
  5
34C
100
AcDbEntity
  8
0
  6
ByLayer
 62
  256
370
   -1
100
AcDbLine
 10
300.70035
 20
129.20016
 11
300.70035
 21
106.4578529997907
  0
LINE
  5
34D
100
AcDbEntity
  8
0
  6
ByLayer
 62
  256
370
   -1
100
AcDbLine
 10
300.70035
 20
52.15785299979071
 11
300.70035
 21
47.7578529997907
  0
LINE
  5
34E
100
AcDbEntity
  8
0
  6
ByLayer
 62
  256
370
   -1
100
AcDbLine
 10
7.999999999999988
 20
52.15785299979072
 11
7.999999999999988
 21
47.75785299979071
  0
ARC
  5
34F
100
AcDbEntity
  8
0
  6
ByLayer
 62
  256
370
   -1
100
AcDbCircle
 10
7
 20
132.20016
 40
7
100
AcDbArc
 50
90
 51
180
  0
LINE
  5
350
100
AcDbEntity
  8
0
  6
ByLayer
 62
  256
370
   -1
100
AcDbLine
 10
-4.440892098500626e-016
 20
132.20016
 11
-4.440892098500626e-016
 21
6.999999999999996
  0
ARC
  5
351
100
AcDbEntity
  8
0
  6
ByLayer
 62
  256
370
   -1
100
AcDbCircle
 10
7
 20
7
 40
7
100
AcDbArc
 50
180
 51
270
  0
LINE
  5
352
100
AcDbEntity
  8
0
  6
ByLayer
 62
  256
370
   -1
100
AcDbLine
 10
7
 20
-4.440892098500626e-016
 11
301.70035
 21
-4.440892098500626e-016
  0
ARC
  5
353
100
AcDbEntity
  8
0
  6
ByLayer
 62
  256
370
   -1
100
AcDbCircle
 10
301.70035
 20
7
 40
7
100
AcDbArc
 50
270
 51
9.086944117275063e-014
  0
LINE
  5
354
100
AcDbEntity
  8
0
  6
ByLayer
 62
  256
370
   -1
100
AcDbLine
 10
7
 20
139.20016
 11
301.70035
 21
139.20016
  0
ARC
  5
355
100
AcDbEntity
  8
0
  6
ByLayer
 62
  256
370
   -1
100
AcDbCircle
 10
301.70035
 20
132.20016
 40
7
100
AcDbArc
 50
0
 51
90
  0
CIRCLE
  5
356
100
AcDbEntity
  8
0
  6
ByLayer
 62
  256
370
   -1
100
AcDbCircle
 10
4.671572875253815
 20
134.5285871247462
 40
1.05
  0
CIRCLE
  5
357
100
AcDbEntity
  8
0
  6
ByLayer
 62
  256
370
   -1
100
AcDbCircle
 10
4.671572875253815
 20
134.5285871247462
 40
1.65
  0
CIRCLE
  5
358
100
AcDbEntity
  8
0
  6
ByLayer
 62
  256
370
   -1
100
AcDbCircle
 10
44.5
 20
135.70016
 40
1.05
  0
CIRCLE
  5
359
100
AcDbEntity
  8
0
  6
ByLayer
 62
  256
370
   -1
100
AcDbCircle
 10
44.5
 20
135.70016
 40
1.65
  0
CIRCLE
  5
35A
100
AcDbEntity
  8
0
  6
ByLayer
 62
  256
370
   -1
100
AcDbCircle
 10
81.00000112441867
 20
135.70016
 40
1.05
  0
CIRCLE
  5
35B
100
AcDbEntity
  8
0
  6
ByLayer
 62
  256
370
   -1
100
AcDbCircle
 10
81.00000112441867
 20
135.70016
 40
1.65
  0
CIRCLE
  5
35C
100
AcDbEntity
  8
0
  6
ByLayer
 62
  256
370
   -1
100
AcDbCircle
 10
117.5000022488373
 20
135.7001600000001
 40
1.05
  0
CIRCLE
  5
35D
100
AcDbEntity
  8
0
  6
ByLayer
 62
  256
370
   -1
100
AcDbCircle
 10
117.5000022488373
 20
135.7001600000001
 40
1.65
  0
CIRCLE
  5
35E
100
AcDbEntity
  8
0
  6
ByLayer
 62
  256
370
   -1
100
AcDbCircle
 10
154.000003373256
 20
135.7001600000001
 40
1.05
  0
CIRCLE
  5
35F
100
AcDbEntity
  8
0
  6
ByLayer
 62
  256
370
   -1
100
AcDbCircle
 10
154.000003373256
 20
135.7001600000001
 40
1.65
  0
CIRCLE
  5
360
100
AcDbEntity
  8
0
  6
ByLayer
 62
  256
370
   -1
100
AcDbCircle
 10
190.5000044976747
 20
135.7001600000001
 40
1.05
  0
CIRCLE
  5
361
100
AcDbEntity
  8
0
  6
ByLayer
 62
  256
370
   -1
100
AcDbCircle
 10
190.5000044976747
 20
135.7001600000001
 40
1.65
  0
CIRCLE
  5
362
100
AcDbEntity
  8
0
  6
ByLayer
 62
  256
370
   -1
100
AcDbCircle
 10
227.0000056220934
 20
135.70016
 40
1.05
  0
CIRCLE
  5
363
100
AcDbEntity
  8
0
  6
ByLayer
 62
  256
370
   -1
100
AcDbCircle
 10
227.0000056220934
 20
135.70016
 40
1.65
  0
CIRCLE
  5
364
100
AcDbEntity
  8
0
  6
ByLayer
 62
  256
370
   -1
100
AcDbCircle
 10
263.5000067465121
 20
135.7001600000001
 40
1.05
  0
CIRCLE
  5
365
100
AcDbEntity
  8
0
  6
ByLayer
 62
  256
370
   -1
100
AcDbCircle
 10
263.5000067465121
 20
135.7001600000001
 40
1.65
  0
CIRCLE
  5
366
100
AcDbEntity
  8
0
  6
ByLayer
 62
  256
370
   -1
100
AcDbCircle
 10
304.0287771247462
 20
134.5285871247462
 40
1.05
  0
CIRCLE
  5
367
100
AcDbEntity
  8
0
  6
ByLayer
 62
  256
370
   -1
100
AcDbCircle
 10
304.0287771247462
 20
134.5285871247462
 40
1.65
  0
CIRCLE
  5
368
100
AcDbEntity
  8
0
  6
ByLayer
 62
  256
370
   -1
100
AcDbCircle
 10
44.5
 20
3.500000000000028
 40
1.05
  0
CIRCLE
  5
369
100
AcDbEntity
  8
0
  6
ByLayer
 62
  256
370
   -1
100
AcDbCircle
 10
44.5
 20
3.500000000000028
 40
1.65
  0
CIRCLE
  5
36A
100
AcDbEntity
  8
0
  6
ByLayer
 62
  256
370
   -1
100
AcDbCircle
 10
81.00000112441867
 20
3.500000000000056
 40
1.05
  0
CIRCLE
  5
36B
100
AcDbEntity
  8
0
  6
ByLayer
 62
  256
370
   -1
100
AcDbCircle
 10
81.00000112441867
 20
3.500000000000056
 40
1.65
  0
CIRCLE
  5
36C
100
AcDbEntity
  8
0
  6
ByLayer
 62
  256
370
   -1
100
AcDbCircle
 10
117.5000022488373
 20
3.500000000000085
 40
1.05
  0
CIRCLE
  5
36D
100
AcDbEntity
  8
0
  6
ByLayer
 62
  256
370
   -1
100
AcDbCircle
 10
117.5000022488373
 20
3.500000000000085
 40
1.65
  0
CIRCLE
  5
36E
100
AcDbEntity
  8
0
  6
ByLayer
 62
  256
370
   -1
100
AcDbCircle
 10
154.000003373256
 20
3.500000000000113
 40
1.05
  0
CIRCLE
  5
36F
100
AcDbEntity
  8
0
  6
ByLayer
 62
  256
370
   -1
100
AcDbCircle
 10
154.000003373256
 20
3.500000000000113
 40
1.65
  0
CIRCLE
  5
370
100
AcDbEntity
  8
0
  6
ByLayer
 62
  256
370
   -1
100
AcDbCircle
 10
190.5000044976747
 20
3.500000000000142
 40
1.05
  0
CIRCLE
  5
371
100
AcDbEntity
  8
0
  6
ByLayer
 62
  256
370
   -1
100
AcDbCircle
 10
190.5000044976747
 20
3.500000000000142
 40
1.65
  0
CIRCLE
  5
372
100
AcDbEntity
  8
0
  6
ByLayer
 62
  256
370
   -1
100
AcDbCircle
 10
227.0000056220934
 20
3.500000000000056
 40
1.05
  0
CIRCLE
  5
373
100
AcDbEntity
  8
0
  6
ByLayer
 62
  256
370
   -1
100
AcDbCircle
 10
227.0000056220934
 20
3.500000000000056
 40
1.65
  0
CIRCLE
  5
374
100
AcDbEntity
  8
0
  6
ByLayer
 62
  256
370
   -1
100
AcDbCircle
 10
263.5000067465121
 20
3.500000000000085
 40
1.05
  0
CIRCLE
  5
375
100
AcDbEntity
  8
0
  6
ByLayer
 62
  256
370
   -1
100
AcDbCircle
 10
263.5000067465121
 20
3.500000000000085
 40
1.65
  0
CIRCLE
  5
376
100
AcDbEntity
  8
0
  6
ByLayer
 62
  256
370
   -1
100
AcDbCircle
 10
305.20035
 20
100.4001665653733
 40
1.05
  0
CIRCLE
  5
377
100
AcDbEntity
  8
0
  6
ByLayer
 62
  256
370
   -1
100
AcDbCircle
 10
305.20035
 20
100.4001665653733
 40
1.65
  0
CIRCLE
  5
378
100
AcDbEntity
  8
0
  6
ByLayer
 62
  256
370
   -1
100
AcDbCircle
 10
305.20035
 20
69.6001665653733
 40
1.05
  0
CIRCLE
  5
379
100
AcDbEntity
  8
0
  6
ByLayer
 62
  256
370
   -1
100
AcDbCircle
 10
305.20035
 20
69.6001665653733
 40
1.65
  0
CIRCLE
  5
37A
100
AcDbEntity
  8
0
  6
ByLayer
 62
  256
370
   -1
100
AcDbCircle
 10
305.20035
 20
38.80008000000002
 40
1.05
  0
CIRCLE
  5
37B
100
AcDbEntity
  8
0
  6
ByLayer
 62
  256
370
   -1
100
AcDbCircle
 10
305.20035
 20
38.80008000000002
 40
1.65
  0
CIRCLE
  5
37C
100
AcDbEntity
  8
0
  6
ByLayer
 62
  256
370
   -1
100
AcDbCircle
 10
3.5
 20
100.4001731307465
 40
1.05
  0
CIRCLE
  5
37D
100
AcDbEntity
  8
0
  6
ByLayer
 62
  256
370
   -1
100
AcDbCircle
 10
3.5
 20
100.4001731307465
 40
1.65
  0
CIRCLE
  5
37E
100
AcDbEntity
  8
0
  6
ByLayer
 62
  256
370
   -1
100
AcDbCircle
 10
3.5
 20
69.60017313074651
 40
1.05
  0
CIRCLE
  5
37F
100
AcDbEntity
  8
0
  6
ByLayer
 62
  256
370
   -1
100
AcDbCircle
 10
3.5
 20
69.60017313074651
 40
1.65
  0
CIRCLE
  5
380
100
AcDbEntity
  8
0
  6
ByLayer
 62
  256
370
   -1
100
AcDbCircle
 10
3.5
 20
38.80008656537323
 40
1.05
  0
CIRCLE
  5
381
100
AcDbEntity
  8
0
  6
ByLayer
 62
  256
370
   -1
100
AcDbCircle
 10
3.5
 20
38.80008656537323
 40
1.65
  0
CIRCLE
  5
382
100
AcDbEntity
  8
0
  6
ByLayer
 62
  256
370
   -1
100
AcDbCircle
 10
304.0287771247462
 20
4.671572875253816
 40
1.05
  0
CIRCLE
  5
383
100
AcDbEntity
  8
0
  6
ByLayer
 62
  256
370
   -1
100
AcDbCircle
 10
304.0287771247462
 20
4.671572875253816
 40
1.65
  0
CIRCLE
  5
384
100
AcDbEntity
  8
0
  6
ByLayer
 62
  256
370
   -1
100
AcDbCircle
 10
4.67157287525381
 20
4.671572875253815
 40
1.05
  0
CIRCLE
  5
385
100
AcDbEntity
  8
0
  6
ByLayer
 62
  256
370
   -1
100
AcDbCircle
 10
4.67157287525381
 20
4.671572875253815
 40
1.65
  0
LINE
  5
386
100
AcDbEntity
  8
0
  6
ByLayer
 62
  256
370
   -1
100
AcDbLine
 10
308.70035
 20
129.2078529997907
 11
301.70035
 21
129.2078529997907
  0
LINE
  5
387
100
AcDbEntity
  8
0
  6
ByLayer
 62
  256
370
   -1
100
AcDbLine
 10
308.70035
 20
108.7078529997907
 11
301.70035
 21
108.7078529997907
  0
LINE
  5
388
100
AcDbEntity
  8
0
  6
ByLayer
 62
  256
370
   -1
100
AcDbLine
 10
301.70035
 20
131.20016
 11
301.70035
 21
129.2078529997907
  0
LINE
  5
389
100
AcDbEntity
  8
0
  6
ByLayer
 62
  256
370
   -1
100
AcDbLine
 10
308.70035
 20
132.20016
 11
308.70035
 21
129.2078529997907
  0
LINE
  5
38A
100
AcDbEntity
  8
0
  6
ByLayer
 62
  256
370
   -1
100
AcDbLine
 10
308.70035
 20
129.2078529997907
 11
308.70035
 21
108.7078529997907
  0
LINE
  5
38B
100
AcDbEntity
  8
0
  6
ByLayer
 62
  256
370
   -1
100
AcDbLine
 10
301.7003500000001
 20
129.2078529997907
 11
301.70035
 21
108.7078529997907
  0
LINE
  5
38C
100
AcDbEntity
  8
0
  6
ByLayer
 62
  256
370
   -1
100
AcDbLine
 10
308.70035
 20
108.7078529997907
 11
308.70035
 21
7.000000000000011
  0
LINE
  5
38D
100
AcDbEntity
  8
0
  6
ByLayer
 62
  256
370
   -1
100
AcDbLine
 10
301.70035
 20
8.000000000000011
 11
301.70035
 21
108.7078529997907
  0
ENDSEC
  0
SECTION
  2
OBJECTS
  0
DICTIONARY
  5
C
330
0
100
AcDbDictionary
281
    1
  3
ACAD_GROUP
350
D
  0
DICTIONARY
  5
D
330
C
100
AcDbDictionary
281
    1
  0
ENDSEC
  0
EOF
