M48
; DRILL file {KiCad (5.1.6)-1} date 08/24/20 23:39:14
; FORMAT={-:-/ absolute / metric / decimal}
; #@! TF.CreationDate,2020-08-24T23:39:14+07:00
; #@! TF.GenerationSoftware,Kicad,Pcbnew,(5.1.6)-1
; #@! TF.FileFunction,NonPlated,1,2,NPTH
FMAT,2
METRIC
T1C1.750
T2C2.200
T3C3.000
T4C3.048
T5C3.988
%
G90
G05
T1
X123.507Y-152.4
X133.667Y-152.4
X256.858Y-152.4
X267.017Y-152.4
X199.707Y-152.4
X209.867Y-152.4
X242.57Y-114.3
X252.73Y-114.3
X87.789Y-171.45
X97.949Y-171.45
X325.914Y-171.45
X336.074Y-171.45
X156.845Y-95.25
X167.005Y-95.25
X66.358Y-171.45
X76.517Y-171.45
X194.945Y-95.25
X205.105Y-95.25
X328.295Y-95.25
X338.455Y-95.25
X190.183Y-133.35
X200.343Y-133.35
X266.382Y-133.35
X276.542Y-133.35
X185.42Y-114.3
X195.58Y-114.3
X104.457Y-152.4
X114.617Y-152.4
X280.67Y-171.45
X290.83Y-171.45
X90.17Y-171.45
X100.33Y-171.45
X66.358Y-114.3
X76.517Y-114.3
X63.976Y-171.45
X74.136Y-171.45
X63.976Y-133.35
X74.136Y-133.35
X180.657Y-152.4
X190.817Y-152.4
X213.995Y-95.25
X224.155Y-95.25
X271.145Y-95.25
X281.305Y-95.25
X161.607Y-152.4
X171.767Y-152.4
X209.232Y-133.35
X219.392Y-133.35
X261.62Y-114.3
X271.78Y-114.3
X113.983Y-171.45
X124.142Y-171.45
X252.095Y-95.25
X262.255Y-95.25
X80.645Y-95.25
X90.805Y-95.25
X175.895Y-95.25
X186.055Y-95.25
X142.558Y-152.4
X152.718Y-152.4
X290.195Y-95.25
X300.355Y-95.25
X233.045Y-95.25
X243.205Y-95.25
X204.47Y-114.3
X214.63Y-114.3
X285.433Y-133.35
X295.592Y-133.35
X90.17Y-114.3
X100.33Y-114.3
X68.739Y-133.35
X78.899Y-133.35
X111.601Y-171.45
X121.761Y-171.45
X302.101Y-152.4
X312.261Y-152.4
X99.695Y-95.25
X109.855Y-95.25
X128.27Y-114.3
X138.43Y-114.3
X61.595Y-95.25
X71.755Y-95.25
X109.22Y-114.3
X119.38Y-114.3
X183.039Y-171.45
X193.199Y-171.45
X147.32Y-114.3
X157.48Y-114.3
X228.282Y-133.35
X238.442Y-133.35
X237.807Y-152.4
X247.968Y-152.4
X73.501Y-152.4
X83.661Y-152.4
X316.389Y-133.35
X326.549Y-133.35
X137.795Y-95.25
X147.955Y-95.25
X323.532Y-114.3
X333.692Y-114.3
X118.745Y-95.25
X128.905Y-95.25
X133.032Y-133.35
X143.192Y-133.35
X152.082Y-133.35
X162.243Y-133.35
X275.907Y-152.4
X286.067Y-152.4
X185.42Y-171.45
X195.58Y-171.45
X299.72Y-171.45
X309.88Y-171.45
X247.332Y-133.35
X257.493Y-133.35
X218.757Y-152.4
X228.917Y-152.4
X278.289Y-171.45
X288.449Y-171.45
X171.132Y-133.35
X181.292Y-133.35
X223.52Y-114.3
X233.68Y-114.3
X323.532Y-171.45
X333.692Y-171.45
X113.983Y-133.35
X124.142Y-133.35
X280.67Y-114.3
X290.83Y-114.3
X299.72Y-114.3
X309.88Y-114.3
X302.101Y-171.45
X312.261Y-171.45
X254.476Y-171.45
X264.636Y-171.45
X256.858Y-171.45
X267.017Y-171.45
X94.932Y-133.35
X105.093Y-133.35
X328.295Y-152.4
X338.455Y-152.4
X309.245Y-95.25
X319.405Y-95.25
X166.37Y-114.3
X176.53Y-114.3
T2
X293.98Y-145.4
X249.07Y-171.45
X57.82Y-65.77
X316.34Y-114.17
X342.01Y-180.47
X86.86Y-126.36
X279.45Y-65.75
X279.41Y-82.01
X57.81Y-180.46
X317.8Y-107.29
T3
X65.246Y-130.81
X71.596Y-128.27
X70.009Y-130.81
X76.359Y-128.27
T4
X138.119Y-178.435
X238.119Y-178.435
X66.643Y-145.415
X90.519Y-145.415
X309.531Y-126.365
X333.407Y-126.365
X133.35Y-178.435
X228.6Y-178.435
T5
X152.4Y-114.3
X233.362Y-133.35
X242.887Y-152.4
X66.643Y-160.655
X78.581Y-152.4
X90.519Y-160.655
X309.531Y-141.605
X321.469Y-133.35
X333.407Y-141.605
X142.875Y-95.25
X328.613Y-114.3
X123.825Y-95.25
X138.112Y-133.35
X157.162Y-133.35
X280.988Y-152.4
X133.35Y-163.195
X190.5Y-171.45
X228.6Y-163.195
X304.8Y-171.45
X252.412Y-133.35
X223.837Y-152.4
X283.369Y-171.45
X176.213Y-133.35
X228.6Y-114.3
X328.613Y-171.45
X119.062Y-133.35
X285.75Y-114.3
X304.8Y-114.3
X307.181Y-171.45
X259.556Y-171.45
X261.938Y-171.45
X100.012Y-133.35
X333.375Y-152.4
X314.325Y-95.25
X171.45Y-114.3
X128.588Y-152.4
X261.938Y-152.4
X204.787Y-152.4
X247.65Y-114.3
X92.869Y-171.45
X330.994Y-171.45
X161.925Y-95.25
X71.438Y-171.45
X200.025Y-95.25
X333.375Y-95.25
X195.262Y-133.35
X271.462Y-133.35
X190.5Y-114.3
X109.537Y-152.4
X285.75Y-171.45
X95.25Y-171.45
X71.438Y-114.3
X69.056Y-171.45
X69.056Y-133.35
X185.737Y-152.4
X219.075Y-95.25
X276.225Y-95.25
X166.688Y-152.4
X214.312Y-133.35
X266.7Y-114.3
X119.062Y-171.45
X257.175Y-95.25
X85.725Y-95.25
X180.975Y-95.25
X147.637Y-152.4
X295.275Y-95.25
X238.125Y-95.25
X209.55Y-114.3
X290.512Y-133.35
X95.25Y-114.3
X73.819Y-133.35
X116.681Y-171.45
X307.181Y-152.4
X104.775Y-95.25
X133.35Y-114.3
X66.675Y-95.25
X114.3Y-114.3
X138.119Y-163.195
X188.119Y-171.45
X238.119Y-163.195
T0
M30
