%TF.GenerationSoftware,KiCad,Pcbnew,(5.1.6)-1*%
%TF.CreationDate,2020-08-24T23:39:16+07:00*%
%TF.ProjectId,Pill60,50696c6c-3630-42e6-9b69-6361645f7063,rev?*%
%TF.SameCoordinates,Original*%
%TF.FileFunction,Soldermask,Top*%
%TF.FilePolarity,Negative*%
%FSLAX46Y46*%
G04 Gerber Fmt 4.6, Leading zero omitted, Abs format (unit mm)*
G04 Created by KiCad (PCBNEW (5.1.6)-1) date 2020-08-24 23:39:16*
%MOMM*%
%LPD*%
G01*
G04 APERTURE LIST*
%ADD10C,1.624000*%
%ADD11C,2.300000*%
%ADD12C,2.100000*%
%ADD13R,3.300000X2.100000*%
%ADD14R,2.100000X2.100000*%
%ADD15O,1.800000X1.800000*%
%ADD16R,1.800000X1.800000*%
%ADD17C,1.850000*%
%ADD18C,4.087800*%
%ADD19C,3.148000*%
%ADD20C,3.100000*%
G04 APERTURE END LIST*
D10*
%TO.C,U1*%
X342790000Y-81374000D03*
X330090000Y-81120000D03*
X312310000Y-81374000D03*
X302150000Y-81374000D03*
X340250000Y-81120000D03*
X317390000Y-81374000D03*
X335170000Y-81120000D03*
X332630000Y-81374000D03*
X337710000Y-81374000D03*
X314850000Y-81120000D03*
X319930000Y-81120000D03*
X307230000Y-81374000D03*
X327550000Y-81374000D03*
X299610000Y-81120000D03*
X304690000Y-81120000D03*
X309770000Y-81120000D03*
X297070000Y-81374000D03*
X322470000Y-81374000D03*
X294530000Y-81120000D03*
X325010000Y-81120000D03*
X342790000Y-66134000D03*
X340250000Y-65880000D03*
X337710000Y-66134000D03*
X335170000Y-65880000D03*
X332630000Y-66134000D03*
X325010000Y-65880000D03*
X330090000Y-65880000D03*
X327550000Y-66134000D03*
X322470000Y-66134000D03*
X319930000Y-65880000D03*
X317390000Y-66134000D03*
X312310000Y-66134000D03*
X314850000Y-65880000D03*
X309770000Y-66134000D03*
X307230000Y-65880000D03*
X299610000Y-66134000D03*
X304690000Y-66134000D03*
X302150000Y-65880000D03*
X297070000Y-65880000D03*
X294530000Y-66134000D03*
%TD*%
D11*
%TO.C,H10*%
X342010000Y-180470000D03*
%TD*%
%TO.C,H9*%
X249070000Y-171450000D03*
%TD*%
%TO.C,H8*%
X57810000Y-180460000D03*
%TD*%
D12*
%TO.C,SW1*%
X59675000Y-71318750D03*
X59675000Y-76318750D03*
D13*
X66675000Y-68218750D03*
X66675000Y-79418750D03*
D12*
X74175000Y-71318750D03*
X74175000Y-73818750D03*
D14*
X74175000Y-76318750D03*
%TD*%
D15*
%TO.C,J1*%
X285500000Y-69860000D03*
X285500000Y-72400000D03*
X285500000Y-74940000D03*
D16*
X285500000Y-77480000D03*
%TD*%
D11*
%TO.C,H7*%
X279410000Y-82010000D03*
%TD*%
%TO.C,H6*%
X316340000Y-114170000D03*
%TD*%
%TO.C,H5*%
X317800000Y-107290000D03*
%TD*%
%TO.C,H4*%
X57820000Y-65770000D03*
%TD*%
%TO.C,H3*%
X279450000Y-65750000D03*
%TD*%
%TO.C,H2*%
X293980000Y-145400000D03*
%TD*%
%TO.C,H1*%
X86860000Y-126360000D03*
%TD*%
D17*
%TO.C,15MXRCTRL2*%
X323532500Y-171450000D03*
D18*
X328612500Y-171450000D03*
D17*
X333692500Y-171450000D03*
%TD*%
%TO.C,6MXSPC1*%
X185420000Y-171450000D03*
X195580000Y-171450000D03*
D18*
X190500000Y-171450000D03*
D19*
X133350000Y-178435000D03*
X228600000Y-178435000D03*
D18*
X133350000Y-163195000D03*
X228600000Y-163195000D03*
%TD*%
D17*
%TO.C,MXZ1*%
X114617500Y-152400000D03*
X104457500Y-152400000D03*
D18*
X109537500Y-152400000D03*
%TD*%
D17*
%TO.C,MXY1*%
X195580000Y-114300000D03*
X185420000Y-114300000D03*
D18*
X190500000Y-114300000D03*
%TD*%
D17*
%TO.C,MXX1*%
X133667500Y-152400000D03*
X123507500Y-152400000D03*
D18*
X128587500Y-152400000D03*
%TD*%
D17*
%TO.C,MXW1*%
X119380000Y-114300000D03*
X109220000Y-114300000D03*
D18*
X114300000Y-114300000D03*
%TD*%
D17*
%TO.C,MXV1*%
X171767500Y-152400000D03*
X161607500Y-152400000D03*
D18*
X166687500Y-152400000D03*
%TD*%
D17*
%TO.C,MXU1*%
X214630000Y-114300000D03*
X204470000Y-114300000D03*
D18*
X209550000Y-114300000D03*
%TD*%
D17*
%TO.C,MXT1*%
X176530000Y-114300000D03*
X166370000Y-114300000D03*
D18*
X171450000Y-114300000D03*
%TD*%
D17*
%TO.C,MXSLSH1*%
X286067500Y-152400000D03*
X275907500Y-152400000D03*
D18*
X280987500Y-152400000D03*
%TD*%
D17*
%TO.C,MXS1*%
X124142500Y-133350000D03*
X113982500Y-133350000D03*
D18*
X119062500Y-133350000D03*
%TD*%
D17*
%TO.C,MXRNGL1*%
X267017500Y-152400000D03*
X256857500Y-152400000D03*
D18*
X261937500Y-152400000D03*
%TD*%
D17*
%TO.C,MXRMN1*%
X309880000Y-171450000D03*
X299720000Y-171450000D03*
D18*
X304800000Y-171450000D03*
%TD*%
D17*
%TO.C,MXRGUI1*%
X290830000Y-171450000D03*
X280670000Y-171450000D03*
D18*
X285750000Y-171450000D03*
%TD*%
D17*
%TO.C,MXRBRAC1*%
X309880000Y-114300000D03*
X299720000Y-114300000D03*
D18*
X304800000Y-114300000D03*
%TD*%
D17*
%TO.C,MXR1*%
X157480000Y-114300000D03*
X147320000Y-114300000D03*
D18*
X152400000Y-114300000D03*
%TD*%
D17*
%TO.C,MXQUOT1*%
X295592500Y-133350000D03*
X285432500Y-133350000D03*
D18*
X290512500Y-133350000D03*
%TD*%
D17*
%TO.C,MXQ1*%
X100330000Y-114300000D03*
X90170000Y-114300000D03*
D18*
X95250000Y-114300000D03*
%TD*%
D17*
%TO.C,MXP1*%
X271780000Y-114300000D03*
X261620000Y-114300000D03*
D18*
X266700000Y-114300000D03*
%TD*%
D17*
%TO.C,MXO1*%
X252730000Y-114300000D03*
X242570000Y-114300000D03*
D18*
X247650000Y-114300000D03*
%TD*%
D17*
%TO.C,MXN1*%
X209867500Y-152400000D03*
X199707500Y-152400000D03*
D18*
X204787500Y-152400000D03*
%TD*%
D17*
%TO.C,MXM1*%
X228917500Y-152400000D03*
X218757500Y-152400000D03*
D18*
X223837500Y-152400000D03*
%TD*%
D17*
%TO.C,MXLNGL1*%
X247967500Y-152400000D03*
X237807500Y-152400000D03*
D18*
X242887500Y-152400000D03*
%TD*%
D17*
%TO.C,MXLGUI1*%
X100330000Y-171450000D03*
X90170000Y-171450000D03*
D18*
X95250000Y-171450000D03*
%TD*%
D17*
%TO.C,MXLBRAC1*%
X290830000Y-114300000D03*
X280670000Y-114300000D03*
D18*
X285750000Y-114300000D03*
%TD*%
D17*
%TO.C,MXL1*%
X257492500Y-133350000D03*
X247332500Y-133350000D03*
D18*
X252412500Y-133350000D03*
%TD*%
D17*
%TO.C,MXK1*%
X238442500Y-133350000D03*
X228282500Y-133350000D03*
D18*
X233362500Y-133350000D03*
%TD*%
D17*
%TO.C,MXJ1*%
X219392500Y-133350000D03*
X209232500Y-133350000D03*
D18*
X214312500Y-133350000D03*
%TD*%
D17*
%TO.C,MXI1*%
X233680000Y-114300000D03*
X223520000Y-114300000D03*
D18*
X228600000Y-114300000D03*
%TD*%
D17*
%TO.C,MXH1*%
X200342500Y-133350000D03*
X190182500Y-133350000D03*
D18*
X195262500Y-133350000D03*
%TD*%
D17*
%TO.C,MXG1*%
X181292500Y-133350000D03*
X171132500Y-133350000D03*
D18*
X176212500Y-133350000D03*
%TD*%
D17*
%TO.C,MXFN1*%
X338455000Y-152400000D03*
X328295000Y-152400000D03*
D18*
X333375000Y-152400000D03*
%TD*%
D17*
%TO.C,MXF1*%
X162242500Y-133350000D03*
X152082500Y-133350000D03*
D18*
X157162500Y-133350000D03*
%TD*%
D17*
%TO.C,MXESC1*%
X71755000Y-95250000D03*
X61595000Y-95250000D03*
D18*
X66675000Y-95250000D03*
%TD*%
D17*
%TO.C,MXEQL1*%
X300355000Y-95250000D03*
X290195000Y-95250000D03*
D18*
X295275000Y-95250000D03*
%TD*%
D17*
%TO.C,MXE1*%
X138430000Y-114300000D03*
X128270000Y-114300000D03*
D18*
X133350000Y-114300000D03*
%TD*%
D17*
%TO.C,MXDSH1*%
X281305000Y-95250000D03*
X271145000Y-95250000D03*
D18*
X276225000Y-95250000D03*
%TD*%
D17*
%TO.C,MXDEL1*%
X338455000Y-95250000D03*
X328295000Y-95250000D03*
D18*
X333375000Y-95250000D03*
%TD*%
D17*
%TO.C,MXD1*%
X143192500Y-133350000D03*
X133032500Y-133350000D03*
D18*
X138112500Y-133350000D03*
%TD*%
D17*
%TO.C,MXCLN1*%
X276542500Y-133350000D03*
X266382500Y-133350000D03*
D18*
X271462500Y-133350000D03*
%TD*%
D17*
%TO.C,MXC1*%
X152717500Y-152400000D03*
X142557500Y-152400000D03*
D18*
X147637500Y-152400000D03*
%TD*%
D17*
%TO.C,MXBSPC1*%
X319405000Y-95250000D03*
X309245000Y-95250000D03*
D18*
X314325000Y-95250000D03*
%TD*%
D17*
%TO.C,MXB1*%
X190817500Y-152400000D03*
X180657500Y-152400000D03*
D18*
X185737500Y-152400000D03*
%TD*%
D17*
%TO.C,MXA1*%
X105092500Y-133350000D03*
X94932500Y-133350000D03*
D18*
X100012500Y-133350000D03*
%TD*%
D17*
%TO.C,MX9*%
X243205000Y-95250000D03*
X233045000Y-95250000D03*
D18*
X238125000Y-95250000D03*
%TD*%
D17*
%TO.C,MX8*%
X224155000Y-95250000D03*
X213995000Y-95250000D03*
D18*
X219075000Y-95250000D03*
%TD*%
D17*
%TO.C,MX7*%
X205105000Y-95250000D03*
X194945000Y-95250000D03*
D18*
X200025000Y-95250000D03*
%TD*%
D17*
%TO.C,MX6*%
X186055000Y-95250000D03*
X175895000Y-95250000D03*
D18*
X180975000Y-95250000D03*
%TD*%
D17*
%TO.C,MX5*%
X167005000Y-95250000D03*
X156845000Y-95250000D03*
D18*
X161925000Y-95250000D03*
%TD*%
D17*
%TO.C,MX4*%
X147955000Y-95250000D03*
X137795000Y-95250000D03*
D18*
X142875000Y-95250000D03*
%TD*%
D17*
%TO.C,MX3*%
X128905000Y-95250000D03*
X118745000Y-95250000D03*
D18*
X123825000Y-95250000D03*
%TD*%
D17*
%TO.C,MX2*%
X109855000Y-95250000D03*
X99695000Y-95250000D03*
D18*
X104775000Y-95250000D03*
%TD*%
D17*
%TO.C,MX1*%
X90805000Y-95250000D03*
X80645000Y-95250000D03*
D18*
X85725000Y-95250000D03*
%TD*%
D17*
%TO.C,MX0*%
X262255000Y-95250000D03*
X252095000Y-95250000D03*
D18*
X257175000Y-95250000D03*
%TD*%
D17*
%TO.C,6.25MXSPC1*%
X183038750Y-171450000D03*
D18*
X188118750Y-171450000D03*
D17*
X193198750Y-171450000D03*
D18*
X138118850Y-163195000D03*
X238118650Y-163195000D03*
D19*
X138118850Y-178435000D03*
X238118650Y-178435000D03*
%TD*%
D17*
%TO.C,225MXLSFT1*%
X73501250Y-152400000D03*
D18*
X78581250Y-152400000D03*
D17*
X83661250Y-152400000D03*
D18*
X66643250Y-160655000D03*
X90519250Y-160655000D03*
D19*
X66643250Y-145415000D03*
X90519250Y-145415000D03*
%TD*%
D17*
%TO.C,225MXENT1*%
X316388750Y-133350000D03*
D18*
X321468750Y-133350000D03*
D17*
X326548750Y-133350000D03*
D18*
X309530750Y-141605000D03*
X333406750Y-141605000D03*
D19*
X309530750Y-126365000D03*
X333406750Y-126365000D03*
%TD*%
D17*
%TO.C,175MXSTCPS1*%
X74136250Y-133350000D03*
X63976250Y-133350000D03*
D20*
X65246250Y-130810000D03*
D18*
X69056250Y-133350000D03*
D20*
X71596250Y-128270000D03*
%TD*%
D17*
%TO.C,175MXRSFT1*%
X302101250Y-152400000D03*
D18*
X307181250Y-152400000D03*
D17*
X312261250Y-152400000D03*
%TD*%
%TO.C,175MXCPS1*%
X78898750Y-133350000D03*
X68738750Y-133350000D03*
D20*
X70008750Y-130810000D03*
D18*
X73818750Y-133350000D03*
D20*
X76358750Y-128270000D03*
%TD*%
D17*
%TO.C,15MXTab1*%
X66357500Y-114300000D03*
D18*
X71437500Y-114300000D03*
D17*
X76517500Y-114300000D03*
%TD*%
%TO.C,15MXLCTRL1*%
X66357500Y-171450000D03*
D18*
X71437500Y-171450000D03*
D17*
X76517500Y-171450000D03*
%TD*%
%TO.C,15MXRALT2*%
X256857500Y-171450000D03*
D18*
X261937500Y-171450000D03*
D17*
X267017500Y-171450000D03*
%TD*%
%TO.C,15MXLALT1*%
X113982500Y-171450000D03*
D18*
X119062500Y-171450000D03*
D17*
X124142500Y-171450000D03*
%TD*%
%TO.C,15MXBSLSH1*%
X323532500Y-114300000D03*
D18*
X328612500Y-114300000D03*
D17*
X333692500Y-114300000D03*
%TD*%
%TO.C,125MXRMENU1*%
X302101250Y-171450000D03*
D18*
X307181250Y-171450000D03*
D17*
X312261250Y-171450000D03*
%TD*%
%TO.C,125MXRGUI1*%
X278288750Y-171450000D03*
D18*
X283368750Y-171450000D03*
D17*
X288448750Y-171450000D03*
%TD*%
%TO.C,125MXRCTRL1*%
X325913750Y-171450000D03*
D18*
X330993750Y-171450000D03*
D17*
X336073750Y-171450000D03*
%TD*%
%TO.C,125MXRATL1*%
X254476250Y-171450000D03*
D18*
X259556250Y-171450000D03*
D17*
X264636250Y-171450000D03*
%TD*%
%TO.C,125MXLGUI1*%
X87788750Y-171450000D03*
D18*
X92868750Y-171450000D03*
D17*
X97948750Y-171450000D03*
%TD*%
%TO.C,125MXLCTRL1*%
X63976250Y-171450000D03*
D18*
X69056250Y-171450000D03*
D17*
X74136250Y-171450000D03*
%TD*%
%TO.C,125MXLALT1*%
X111601250Y-171450000D03*
D18*
X116681250Y-171450000D03*
D17*
X121761250Y-171450000D03*
%TD*%
M02*
