%FSLAX45Y45*%
G04 Gerber Fmt 4.5, Leading zero omitted, Abs format (unit mm)*
G04 Created by KiCad (PCBNEW (5.1.6)-1) date 2020-08-21 19:03:24*
%MOMM*%
%LPD*%
G01*
G04 APERTURE LIST*
%TA.AperFunction,Profile*%
%ADD10C,0.200000*%
%TD*%
%ADD11C,0.200000*%
%ADD12C,0.300000*%
G04 APERTURE END LIST*
D10*
X34628027Y-18270785D02*
G75*
G02*
X34428027Y-18470785I-200000J0D01*
G01*
X34628027Y-15265789D02*
X34628027Y-18270785D01*
X18802227Y-18470785D02*
X34428027Y-18470785D01*
X5557992Y-18470785D02*
G75*
G02*
X5357992Y-18270785I0J200000D01*
G01*
X5557992Y-18470785D02*
X18802227Y-18470785D01*
X5357992Y-9550769D02*
X5357992Y-18270785D01*
X5357992Y-6350769D02*
G75*
G02*
X5557992Y-6150769I200000J0D01*
G01*
X5557992Y-6150769D02*
X5957991Y-6150769D01*
X5357992Y-9550769D02*
X5357992Y-6350769D01*
X34428027Y-6150769D02*
G75*
G02*
X34628027Y-6350769I0J-200000D01*
G01*
X34628027Y-15265789D02*
X34628027Y-6350769D01*
X34028027Y-6150769D02*
X34428027Y-6150769D01*
X34028027Y-6150769D02*
X5957991Y-6150769D01*
D11*
X17025750Y-13247500D02*
X17200750Y-13422500D01*
X17200750Y-13247500D02*
X17025750Y-13422500D01*
X18041750Y-13247500D02*
X18216750Y-13422500D01*
X18216750Y-13247500D02*
X18041750Y-13422500D01*
X18930750Y-13247500D02*
X19105750Y-13422500D01*
X19105750Y-13247500D02*
X18930750Y-13422500D01*
X19946750Y-13247500D02*
X20121750Y-13422500D01*
X20121750Y-13247500D02*
X19946750Y-13422500D01*
X23693250Y-15152500D02*
X23868250Y-15327500D01*
X23868250Y-15152500D02*
X23693250Y-15327500D01*
X24709250Y-15152500D02*
X24884250Y-15327500D01*
X24884250Y-15152500D02*
X24709250Y-15327500D01*
X8929500Y-11342500D02*
X9104500Y-11517500D01*
X9104500Y-11342500D02*
X8929500Y-11517500D01*
X9945500Y-11342500D02*
X10120500Y-11517500D01*
X10120500Y-11342500D02*
X9945500Y-11517500D01*
X14644500Y-11342500D02*
X14819500Y-11517500D01*
X14819500Y-11342500D02*
X14644500Y-11517500D01*
X15660500Y-11342500D02*
X15835500Y-11517500D01*
X15835500Y-11342500D02*
X15660500Y-11517500D01*
X10834500Y-11342500D02*
X11009500Y-11517500D01*
X11009500Y-11342500D02*
X10834500Y-11517500D01*
X11850500Y-11342500D02*
X12025500Y-11517500D01*
X12025500Y-11342500D02*
X11850500Y-11517500D01*
X25598250Y-17057500D02*
X25773250Y-17232500D01*
X25773250Y-17057500D02*
X25598250Y-17232500D01*
X26614250Y-17057500D02*
X26789250Y-17232500D01*
X26789250Y-17057500D02*
X26614250Y-17232500D01*
X7977000Y-9437500D02*
X8152000Y-9612500D01*
X8152000Y-9437500D02*
X7977000Y-9612500D01*
X8993000Y-9437500D02*
X9168000Y-9612500D01*
X9168000Y-9437500D02*
X8993000Y-9612500D01*
X17978250Y-15152500D02*
X18153250Y-15327500D01*
X18153250Y-15152500D02*
X17978250Y-15327500D01*
X18994250Y-15152500D02*
X19169250Y-15327500D01*
X19169250Y-15152500D02*
X18994250Y-15327500D01*
X32265750Y-11342500D02*
X32440750Y-11517500D01*
X32440750Y-11342500D02*
X32265750Y-11517500D01*
X33281750Y-11342500D02*
X33456750Y-11517500D01*
X33456750Y-11342500D02*
X33281750Y-11517500D01*
X18454500Y-11342500D02*
X18629500Y-11517500D01*
X18629500Y-11342500D02*
X18454500Y-11517500D01*
X19470500Y-11342500D02*
X19645500Y-11517500D01*
X19645500Y-11342500D02*
X19470500Y-11517500D01*
X24645750Y-13247500D02*
X24820750Y-13422500D01*
X24820750Y-13247500D02*
X24645750Y-13422500D01*
X25661750Y-13247500D02*
X25836750Y-13422500D01*
X25836750Y-13247500D02*
X25661750Y-13422500D01*
X8929500Y-17057500D02*
X9104500Y-17232500D01*
X9104500Y-17057500D02*
X8929500Y-17232500D01*
X9945500Y-17057500D02*
X10120500Y-17232500D01*
X10120500Y-17057500D02*
X9945500Y-17232500D01*
X15120750Y-13247500D02*
X15295750Y-13422500D01*
X15295750Y-13247500D02*
X15120750Y-13422500D01*
X16136750Y-13247500D02*
X16311750Y-13422500D01*
X16311750Y-13247500D02*
X16136750Y-13422500D01*
X27979500Y-17057500D02*
X28154500Y-17232500D01*
X28154500Y-17057500D02*
X27979500Y-17232500D01*
X28995500Y-17057500D02*
X29170500Y-17232500D01*
X29170500Y-17057500D02*
X28995500Y-17232500D01*
X29884500Y-17057500D02*
X30059500Y-17232500D01*
X30059500Y-17057500D02*
X29884500Y-17232500D01*
X30900500Y-17057500D02*
X31075500Y-17232500D01*
X31075500Y-17057500D02*
X30900500Y-17232500D01*
X26074500Y-11342500D02*
X26249500Y-11517500D01*
X26249500Y-11342500D02*
X26074500Y-11517500D01*
X27090500Y-11342500D02*
X27265500Y-11517500D01*
X27265500Y-11342500D02*
X27090500Y-11517500D01*
X11787000Y-9437500D02*
X11962000Y-9612500D01*
X11962000Y-9437500D02*
X11787000Y-9612500D01*
X12803000Y-9437500D02*
X12978000Y-9612500D01*
X12978000Y-9437500D02*
X12803000Y-9612500D01*
X6548250Y-17057500D02*
X6723250Y-17232500D01*
X6723250Y-17057500D02*
X6548250Y-17232500D01*
X7564250Y-17057500D02*
X7739250Y-17232500D01*
X7739250Y-17057500D02*
X7564250Y-17232500D01*
X9882000Y-9437500D02*
X10057000Y-9612500D01*
X10057000Y-9437500D02*
X9882000Y-9612500D01*
X10898000Y-9437500D02*
X11073000Y-9612500D01*
X11073000Y-9437500D02*
X10898000Y-9612500D01*
X6310125Y-13247500D02*
X6485125Y-13422500D01*
X6485125Y-13247500D02*
X6310125Y-13422500D01*
X7326125Y-13247500D02*
X7501125Y-13422500D01*
X7501125Y-13247500D02*
X7326125Y-13422500D01*
X13692000Y-9437500D02*
X13867000Y-9612500D01*
X13867000Y-9437500D02*
X13692000Y-9612500D01*
X14708000Y-9437500D02*
X14883000Y-9612500D01*
X14883000Y-9437500D02*
X14708000Y-9612500D01*
X10358250Y-15152500D02*
X10533250Y-15327500D01*
X10533250Y-15152500D02*
X10358250Y-15327500D01*
X11374250Y-15152500D02*
X11549250Y-15327500D01*
X11549250Y-15152500D02*
X11374250Y-15327500D01*
X27979500Y-11342500D02*
X28154500Y-11517500D01*
X28154500Y-11342500D02*
X27979500Y-11517500D01*
X28995500Y-11342500D02*
X29170500Y-11517500D01*
X29170500Y-11342500D02*
X28995500Y-11517500D01*
X27027000Y-9437500D02*
X27202000Y-9612500D01*
X27202000Y-9437500D02*
X27027000Y-9612500D01*
X28043000Y-9437500D02*
X28218000Y-9612500D01*
X28218000Y-9437500D02*
X28043000Y-9612500D01*
X28932000Y-9437500D02*
X29107000Y-9612500D01*
X29107000Y-9437500D02*
X28932000Y-9612500D01*
X29948000Y-9437500D02*
X30123000Y-9612500D01*
X30123000Y-9437500D02*
X29948000Y-9612500D01*
X25598250Y-15152500D02*
X25773250Y-15327500D01*
X25773250Y-15152500D02*
X25598250Y-15327500D01*
X26614250Y-15152500D02*
X26789250Y-15327500D01*
X26789250Y-15152500D02*
X26614250Y-15327500D01*
X27503250Y-15152500D02*
X27678250Y-15327500D01*
X27678250Y-15152500D02*
X27503250Y-15327500D01*
X28519250Y-15152500D02*
X28694250Y-15327500D01*
X28694250Y-15152500D02*
X28519250Y-15327500D01*
X14168250Y-15152500D02*
X14343250Y-15327500D01*
X14343250Y-15152500D02*
X14168250Y-15327500D01*
X15184250Y-15152500D02*
X15359250Y-15327500D01*
X15359250Y-15152500D02*
X15184250Y-15327500D01*
X6548250Y-11342500D02*
X6723250Y-11517500D01*
X6723250Y-11342500D02*
X6548250Y-11517500D01*
X7564250Y-11342500D02*
X7739250Y-11517500D01*
X7739250Y-11342500D02*
X7564250Y-11517500D01*
X9405750Y-13247500D02*
X9580750Y-13422500D01*
X9580750Y-13247500D02*
X9405750Y-13422500D01*
X10421750Y-13247500D02*
X10596750Y-13422500D01*
X10596750Y-13247500D02*
X10421750Y-13422500D01*
X27741375Y-17057500D02*
X27916375Y-17232500D01*
X27916375Y-17057500D02*
X27741375Y-17232500D01*
X28757375Y-17057500D02*
X28932375Y-17232500D01*
X28932375Y-17057500D02*
X28757375Y-17232500D01*
X15597000Y-9437500D02*
X15772000Y-9612500D01*
X15772000Y-9437500D02*
X15597000Y-9612500D01*
X16613000Y-9437500D02*
X16788000Y-9612500D01*
X16788000Y-9437500D02*
X16613000Y-9612500D01*
X32265750Y-17057500D02*
X32440750Y-17232500D01*
X32440750Y-17057500D02*
X32265750Y-17232500D01*
X33281750Y-17057500D02*
X33456750Y-17232500D01*
X33456750Y-17057500D02*
X33281750Y-17232500D01*
X26550750Y-13247500D02*
X26725750Y-13422500D01*
X26725750Y-13247500D02*
X26550750Y-13422500D01*
X27566750Y-13247500D02*
X27741750Y-13422500D01*
X27741750Y-13247500D02*
X27566750Y-13422500D01*
X6072000Y-9437500D02*
X6247000Y-9612500D01*
X6247000Y-9437500D02*
X6072000Y-9612500D01*
X7088000Y-9437500D02*
X7263000Y-9612500D01*
X7263000Y-9437500D02*
X7088000Y-9612500D01*
X32742000Y-15152500D02*
X32917000Y-15327500D01*
X32917000Y-15152500D02*
X32742000Y-15327500D01*
X33758000Y-15152500D02*
X33933000Y-15327500D01*
X33933000Y-15152500D02*
X33758000Y-15327500D01*
X21788250Y-15152500D02*
X21963250Y-15327500D01*
X21963250Y-15152500D02*
X21788250Y-15327500D01*
X22804250Y-15152500D02*
X22979250Y-15327500D01*
X22979250Y-15152500D02*
X22804250Y-15327500D01*
X16549500Y-11342500D02*
X16724500Y-11517500D01*
X16724500Y-11342500D02*
X16549500Y-11517500D01*
X17565500Y-11342500D02*
X17740500Y-11517500D01*
X17740500Y-11342500D02*
X17565500Y-11517500D01*
X19407000Y-9437500D02*
X19582000Y-9612500D01*
X19582000Y-9437500D02*
X19407000Y-9612500D01*
X20423000Y-9437500D02*
X20598000Y-9612500D01*
X20598000Y-9437500D02*
X20423000Y-9612500D01*
X7262625Y-15152500D02*
X7437625Y-15327500D01*
X7437625Y-15152500D02*
X7262625Y-15327500D01*
X8278625Y-15152500D02*
X8453625Y-15327500D01*
X8453625Y-15152500D02*
X8278625Y-15327500D01*
X32503875Y-17057500D02*
X32678875Y-17232500D01*
X32678875Y-17057500D02*
X32503875Y-17232500D01*
X33519875Y-17057500D02*
X33694875Y-17232500D01*
X33694875Y-17057500D02*
X33519875Y-17232500D01*
X13215750Y-13247500D02*
X13390750Y-13422500D01*
X13390750Y-13247500D02*
X13215750Y-13422500D01*
X14231750Y-13247500D02*
X14406750Y-13422500D01*
X14406750Y-13247500D02*
X14231750Y-13422500D01*
X22264500Y-11342500D02*
X22439500Y-11517500D01*
X22439500Y-11342500D02*
X22264500Y-11517500D01*
X23280500Y-11342500D02*
X23455500Y-11517500D01*
X23455500Y-11342500D02*
X23280500Y-11517500D01*
X19883250Y-15152500D02*
X20058250Y-15327500D01*
X20058250Y-15152500D02*
X19883250Y-15327500D01*
X20899250Y-15152500D02*
X21074250Y-15327500D01*
X21074250Y-15152500D02*
X20899250Y-15327500D01*
X20359500Y-11342500D02*
X20534500Y-11517500D01*
X20534500Y-11342500D02*
X20359500Y-11517500D01*
X21375500Y-11342500D02*
X21550500Y-11517500D01*
X21550500Y-11342500D02*
X21375500Y-11517500D01*
X17502000Y-9437500D02*
X17677000Y-9612500D01*
X17677000Y-9437500D02*
X17502000Y-9612500D01*
X18518000Y-9437500D02*
X18693000Y-9612500D01*
X18693000Y-9437500D02*
X18518000Y-9612500D01*
X30122625Y-15152500D02*
X30297625Y-15327500D01*
X30297625Y-15152500D02*
X30122625Y-15327500D01*
X31138625Y-15152500D02*
X31313625Y-15327500D01*
X31313625Y-15152500D02*
X31138625Y-15327500D01*
X21312000Y-9437500D02*
X21487000Y-9612500D01*
X21487000Y-9437500D02*
X21312000Y-9612500D01*
X22328000Y-9437500D02*
X22503000Y-9612500D01*
X22503000Y-9437500D02*
X22328000Y-9612500D01*
X32742000Y-9437500D02*
X32917000Y-9612500D01*
X32917000Y-9437500D02*
X32742000Y-9612500D01*
X33758000Y-9437500D02*
X33933000Y-9612500D01*
X33933000Y-9437500D02*
X33758000Y-9612500D01*
X20835750Y-13247500D02*
X21010750Y-13422500D01*
X21010750Y-13247500D02*
X20835750Y-13422500D01*
X21851750Y-13247500D02*
X22026750Y-13422500D01*
X22026750Y-13247500D02*
X21851750Y-13422500D01*
X29884500Y-11342500D02*
X30059500Y-11517500D01*
X30059500Y-11342500D02*
X29884500Y-11517500D01*
X30900500Y-11342500D02*
X31075500Y-11517500D01*
X31075500Y-11342500D02*
X30900500Y-11517500D01*
X24169500Y-11342500D02*
X24344500Y-11517500D01*
X24344500Y-11342500D02*
X24169500Y-11517500D01*
X25185500Y-11342500D02*
X25360500Y-11517500D01*
X25360500Y-11342500D02*
X25185500Y-11517500D01*
X11310750Y-13247500D02*
X11485750Y-13422500D01*
X11485750Y-13247500D02*
X11310750Y-13422500D01*
X12326750Y-13247500D02*
X12501750Y-13422500D01*
X12501750Y-13247500D02*
X12326750Y-13422500D01*
X18216375Y-17057500D02*
X18391375Y-17232500D01*
X18391375Y-17057500D02*
X18216375Y-17232500D01*
X19232375Y-17057500D02*
X19407375Y-17232500D01*
X19407375Y-17057500D02*
X19232375Y-17232500D01*
X23217000Y-9437500D02*
X23392000Y-9612500D01*
X23392000Y-9437500D02*
X23217000Y-9612500D01*
X24233000Y-9437500D02*
X24408000Y-9612500D01*
X24408000Y-9437500D02*
X24233000Y-9612500D01*
X30122625Y-17057500D02*
X30297625Y-17232500D01*
X30297625Y-17057500D02*
X30122625Y-17232500D01*
X31138625Y-17057500D02*
X31313625Y-17232500D01*
X31313625Y-17057500D02*
X31138625Y-17232500D01*
X25360125Y-17057500D02*
X25535125Y-17232500D01*
X25535125Y-17057500D02*
X25360125Y-17232500D01*
X26376125Y-17057500D02*
X26551125Y-17232500D01*
X26551125Y-17057500D02*
X26376125Y-17232500D01*
X18454500Y-17057500D02*
X18629500Y-17232500D01*
X18629500Y-17057500D02*
X18454500Y-17232500D01*
X19470500Y-17057500D02*
X19645500Y-17232500D01*
X19645500Y-17057500D02*
X19470500Y-17232500D01*
X11072625Y-17057500D02*
X11247625Y-17232500D01*
X11247625Y-17057500D02*
X11072625Y-17232500D01*
X12088625Y-17057500D02*
X12263625Y-17232500D01*
X12263625Y-17057500D02*
X12088625Y-17232500D01*
X6310125Y-17057500D02*
X6485125Y-17232500D01*
X6485125Y-17057500D02*
X6310125Y-17232500D01*
X7326125Y-17057500D02*
X7501125Y-17232500D01*
X7501125Y-17057500D02*
X7326125Y-17232500D01*
X12739500Y-11342500D02*
X12914500Y-11517500D01*
X12914500Y-11342500D02*
X12739500Y-11517500D01*
X13755500Y-11342500D02*
X13930500Y-11517500D01*
X13930500Y-11342500D02*
X13755500Y-11517500D01*
X22740750Y-13247500D02*
X22915750Y-13422500D01*
X22915750Y-13247500D02*
X22740750Y-13422500D01*
X23756750Y-13247500D02*
X23931750Y-13422500D01*
X23931750Y-13247500D02*
X23756750Y-13422500D01*
X12263250Y-15152500D02*
X12438250Y-15327500D01*
X12438250Y-15152500D02*
X12263250Y-15327500D01*
X13279250Y-15152500D02*
X13454250Y-15327500D01*
X13454250Y-15152500D02*
X13279250Y-15327500D01*
X28455750Y-13247500D02*
X28630750Y-13422500D01*
X28630750Y-13247500D02*
X28455750Y-13422500D01*
X29471750Y-13247500D02*
X29646750Y-13422500D01*
X29646750Y-13247500D02*
X29471750Y-13422500D01*
X16073250Y-15152500D02*
X16248250Y-15327500D01*
X16248250Y-15152500D02*
X16073250Y-15327500D01*
X17089250Y-15152500D02*
X17264250Y-15327500D01*
X17264250Y-15152500D02*
X17089250Y-15327500D01*
X11310750Y-17057500D02*
X11485750Y-17232500D01*
X11485750Y-17057500D02*
X11310750Y-17232500D01*
X12326750Y-17057500D02*
X12501750Y-17232500D01*
X12501750Y-17057500D02*
X12326750Y-17232500D01*
X25122000Y-9437500D02*
X25297000Y-9612500D01*
X25297000Y-9437500D02*
X25122000Y-9612500D01*
X26138000Y-9437500D02*
X26313000Y-9612500D01*
X26313000Y-9437500D02*
X26138000Y-9612500D01*
X31551375Y-13247500D02*
X31726375Y-13422500D01*
X31726375Y-13247500D02*
X31551375Y-13422500D01*
X32567375Y-13247500D02*
X32742375Y-13422500D01*
X32742375Y-13247500D02*
X32567375Y-13422500D01*
X30837000Y-9437500D02*
X31012000Y-9612500D01*
X31012000Y-9437500D02*
X30837000Y-9612500D01*
X31853000Y-9437500D02*
X32028000Y-9612500D01*
X32028000Y-9437500D02*
X31853000Y-9612500D01*
X6786375Y-13247500D02*
X6961375Y-13422500D01*
X6961375Y-13247500D02*
X6786375Y-13422500D01*
X7802375Y-13247500D02*
X7977375Y-13422500D01*
X7977375Y-13247500D02*
X7802375Y-13422500D01*
X8691375Y-17057500D02*
X8866375Y-17232500D01*
X8866375Y-17057500D02*
X8691375Y-17232500D01*
X9707375Y-17057500D02*
X9882375Y-17232500D01*
X9882375Y-17057500D02*
X9707375Y-17232500D01*
X8793000Y-12635000D02*
G75*
G03*
X8793000Y-12635000I-110000J0D01*
G01*
X28052000Y-6574000D02*
G75*
G03*
X28052000Y-6574000I-110000J0D01*
G01*
X29509000Y-14540000D02*
G75*
G03*
X29509000Y-14540000I-110000J0D01*
G01*
X5892000Y-6575000D02*
G75*
G03*
X5892000Y-6575000I-110000J0D01*
G01*
X5891000Y-18047000D02*
G75*
G03*
X5891000Y-18047000I-110000J0D01*
G01*
X28053000Y-8202000D02*
G75*
G03*
X28053000Y-8202000I-110000J0D01*
G01*
X34314000Y-18046000D02*
G75*
G03*
X34314000Y-18046000I-110000J0D01*
G01*
X7000875Y-12931000D02*
X7000875Y-13231000D01*
X6850875Y-13081000D02*
X7150875Y-13081000D01*
X7635875Y-12677000D02*
X7635875Y-12977000D01*
X7485875Y-12827000D02*
X7785875Y-12827000D01*
X6524625Y-12931000D02*
X6524625Y-13231000D01*
X6374625Y-13081000D02*
X6674625Y-13081000D01*
X7159625Y-12677000D02*
X7159625Y-12977000D01*
X7009625Y-12827000D02*
X7309625Y-12827000D01*
X6772089Y-14649264D02*
X6772089Y-14433736D01*
X6556561Y-14433736D01*
X6556561Y-14649264D01*
X6772089Y-14649264D01*
X9159689Y-14649264D02*
X9159689Y-14433736D01*
X8944161Y-14433736D01*
X8944161Y-14649264D01*
X9159689Y-14649264D01*
X13919649Y-17951264D02*
X13919649Y-17735736D01*
X13704121Y-17735736D01*
X13704121Y-17951264D01*
X13919649Y-17951264D01*
X23919629Y-17951264D02*
X23919629Y-17735736D01*
X23704101Y-17735736D01*
X23704101Y-17951264D01*
X23919629Y-17951264D01*
X13442764Y-17951264D02*
X13442764Y-17735736D01*
X13227236Y-17735736D01*
X13227236Y-17951264D01*
X13442764Y-17951264D01*
X22967764Y-17951264D02*
X22967764Y-17735736D01*
X22752236Y-17735736D01*
X22752236Y-17951264D01*
X22967764Y-17951264D01*
X31060839Y-12744264D02*
X31060839Y-12528736D01*
X30845311Y-12528736D01*
X30845311Y-12744264D01*
X31060839Y-12744264D01*
X33448439Y-12744264D02*
X33448439Y-12528736D01*
X33232911Y-12528736D01*
X33232911Y-12744264D01*
X33448439Y-12744264D01*
X28575000Y-11629390D02*
X28774390Y-11430000D01*
X28575000Y-11230610D01*
X28375610Y-11430000D01*
X28575000Y-11629390D01*
X27622500Y-9724390D02*
X27821890Y-9525000D01*
X27622500Y-9325610D01*
X27423110Y-9525000D01*
X27622500Y-9724390D01*
X29527500Y-9724390D02*
X29726890Y-9525000D01*
X29527500Y-9325610D01*
X29328110Y-9525000D01*
X29527500Y-9724390D01*
X26193750Y-15439390D02*
X26393140Y-15240000D01*
X26193750Y-15040610D01*
X25994360Y-15240000D01*
X26193750Y-15439390D01*
X28098750Y-15439390D02*
X28298140Y-15240000D01*
X28098750Y-15040610D01*
X27899360Y-15240000D01*
X28098750Y-15439390D01*
X14763750Y-15439390D02*
X14963140Y-15240000D01*
X14763750Y-15040610D01*
X14564360Y-15240000D01*
X14763750Y-15439390D01*
X7143750Y-11629390D02*
X7343140Y-11430000D01*
X7143750Y-11230610D01*
X6944360Y-11430000D01*
X7143750Y-11629390D01*
X10001250Y-13534390D02*
X10200640Y-13335000D01*
X10001250Y-13135610D01*
X9801860Y-13335000D01*
X10001250Y-13534390D01*
X28336875Y-17344390D02*
X28536265Y-17145000D01*
X28336875Y-16945610D01*
X28137485Y-17145000D01*
X28336875Y-17344390D01*
X16192500Y-9724390D02*
X16391890Y-9525000D01*
X16192500Y-9325610D01*
X15993110Y-9525000D01*
X16192500Y-9724390D01*
X32861250Y-17344390D02*
X33060640Y-17145000D01*
X32861250Y-16945610D01*
X32661860Y-17145000D01*
X32861250Y-17344390D01*
X27146250Y-13534390D02*
X27345640Y-13335000D01*
X27146250Y-13135610D01*
X26946860Y-13335000D01*
X27146250Y-13534390D01*
X6667500Y-9724390D02*
X6866890Y-9525000D01*
X6667500Y-9325610D01*
X6468110Y-9525000D01*
X6667500Y-9724390D01*
X33337500Y-15439390D02*
X33536890Y-15240000D01*
X33337500Y-15040610D01*
X33138110Y-15240000D01*
X33337500Y-15439390D01*
X22383750Y-15439390D02*
X22583140Y-15240000D01*
X22383750Y-15040610D01*
X22184360Y-15240000D01*
X22383750Y-15439390D01*
X17145000Y-11629390D02*
X17344390Y-11430000D01*
X17145000Y-11230610D01*
X16945610Y-11430000D01*
X17145000Y-11629390D01*
X20002500Y-9724390D02*
X20201890Y-9525000D01*
X20002500Y-9325610D01*
X19803110Y-9525000D01*
X20002500Y-9724390D01*
X6664325Y-16264890D02*
X6863715Y-16065500D01*
X6664325Y-15866110D01*
X6464935Y-16065500D01*
X6664325Y-16264890D01*
X7858125Y-15439390D02*
X8057515Y-15240000D01*
X7858125Y-15040610D01*
X7658735Y-15240000D01*
X7858125Y-15439390D01*
X9051925Y-16264890D02*
X9251315Y-16065500D01*
X9051925Y-15866110D01*
X8852535Y-16065500D01*
X9051925Y-16264890D01*
X33099375Y-17344390D02*
X33298765Y-17145000D01*
X33099375Y-16945610D01*
X32899985Y-17145000D01*
X33099375Y-17344390D01*
X13811250Y-13534390D02*
X14010640Y-13335000D01*
X13811250Y-13135610D01*
X13611860Y-13335000D01*
X13811250Y-13534390D01*
X22860000Y-11629390D02*
X23059390Y-11430000D01*
X22860000Y-11230610D01*
X22660610Y-11430000D01*
X22860000Y-11629390D01*
X20478750Y-15439390D02*
X20678140Y-15240000D01*
X20478750Y-15040610D01*
X20279360Y-15240000D01*
X20478750Y-15439390D01*
X20955000Y-11629390D02*
X21154390Y-11430000D01*
X20955000Y-11230610D01*
X20755610Y-11430000D01*
X20955000Y-11629390D01*
X18097500Y-9724390D02*
X18296890Y-9525000D01*
X18097500Y-9325610D01*
X17898110Y-9525000D01*
X18097500Y-9724390D01*
X30718125Y-15439390D02*
X30917515Y-15240000D01*
X30718125Y-15040610D01*
X30518735Y-15240000D01*
X30718125Y-15439390D01*
X21907500Y-9724390D02*
X22106890Y-9525000D01*
X21907500Y-9325610D01*
X21708110Y-9525000D01*
X21907500Y-9724390D01*
X33337500Y-9724390D02*
X33536890Y-9525000D01*
X33337500Y-9325610D01*
X33138110Y-9525000D01*
X33337500Y-9724390D01*
X21431250Y-13534390D02*
X21630640Y-13335000D01*
X21431250Y-13135610D01*
X21231860Y-13335000D01*
X21431250Y-13534390D01*
X30480000Y-11629390D02*
X30679390Y-11430000D01*
X30480000Y-11230610D01*
X30280610Y-11430000D01*
X30480000Y-11629390D01*
X24765000Y-11629390D02*
X24964390Y-11430000D01*
X24765000Y-11230610D01*
X24565610Y-11430000D01*
X24765000Y-11629390D01*
X11906250Y-13534390D02*
X12105640Y-13335000D01*
X11906250Y-13135610D01*
X11706860Y-13335000D01*
X11906250Y-13534390D01*
X13811885Y-16518890D02*
X14011275Y-16319500D01*
X13811885Y-16120110D01*
X13612495Y-16319500D01*
X13811885Y-16518890D01*
X18811875Y-17344390D02*
X19011265Y-17145000D01*
X18811875Y-16945610D01*
X18612485Y-17145000D01*
X18811875Y-17344390D01*
X23811865Y-16518890D02*
X24011255Y-16319500D01*
X23811865Y-16120110D01*
X23612475Y-16319500D01*
X23811865Y-16518890D01*
X23812500Y-9724390D02*
X24011890Y-9525000D01*
X23812500Y-9325610D01*
X23613110Y-9525000D01*
X23812500Y-9724390D01*
X30718125Y-17344390D02*
X30917515Y-17145000D01*
X30718125Y-16945610D01*
X30518735Y-17145000D01*
X30718125Y-17344390D01*
X25955625Y-17344390D02*
X26155015Y-17145000D01*
X25955625Y-16945610D01*
X25756235Y-17145000D01*
X25955625Y-17344390D01*
X13335000Y-16518890D02*
X13534390Y-16319500D01*
X13335000Y-16120110D01*
X13135610Y-16319500D01*
X13335000Y-16518890D01*
X19050000Y-17344390D02*
X19249390Y-17145000D01*
X19050000Y-16945610D01*
X18850610Y-17145000D01*
X19050000Y-17344390D01*
X22860000Y-16518890D02*
X23059390Y-16319500D01*
X22860000Y-16120110D01*
X22660610Y-16319500D01*
X22860000Y-16518890D01*
X11668125Y-17344390D02*
X11867515Y-17145000D01*
X11668125Y-16945610D01*
X11468735Y-17145000D01*
X11668125Y-17344390D01*
X6905625Y-17344390D02*
X7105015Y-17145000D01*
X6905625Y-16945610D01*
X6706235Y-17145000D01*
X6905625Y-17344390D01*
X13335000Y-11629390D02*
X13534390Y-11430000D01*
X13335000Y-11230610D01*
X13135610Y-11430000D01*
X13335000Y-11629390D01*
X23336250Y-13534390D02*
X23535640Y-13335000D01*
X23336250Y-13135610D01*
X23136860Y-13335000D01*
X23336250Y-13534390D01*
X12858750Y-15439390D02*
X13058140Y-15240000D01*
X12858750Y-15040610D01*
X12659360Y-15240000D01*
X12858750Y-15439390D01*
X29051250Y-13534390D02*
X29250640Y-13335000D01*
X29051250Y-13135610D01*
X28851860Y-13335000D01*
X29051250Y-13534390D01*
X16668750Y-15439390D02*
X16868140Y-15240000D01*
X16668750Y-15040610D01*
X16469360Y-15240000D01*
X16668750Y-15439390D01*
X11906250Y-17344390D02*
X12105640Y-17145000D01*
X11906250Y-16945610D01*
X11706860Y-17145000D01*
X11906250Y-17344390D01*
X25717500Y-9724390D02*
X25916890Y-9525000D01*
X25717500Y-9325610D01*
X25518110Y-9525000D01*
X25717500Y-9724390D01*
X30953075Y-14359890D02*
X31152465Y-14160500D01*
X30953075Y-13961110D01*
X30753685Y-14160500D01*
X30953075Y-14359890D01*
X32146875Y-13534390D02*
X32346265Y-13335000D01*
X32146875Y-13135610D01*
X31947485Y-13335000D01*
X32146875Y-13534390D01*
X33340675Y-14359890D02*
X33540065Y-14160500D01*
X33340675Y-13961110D01*
X33141285Y-14160500D01*
X33340675Y-14359890D01*
X31432500Y-9724390D02*
X31631890Y-9525000D01*
X31432500Y-9325610D01*
X31233110Y-9525000D01*
X31432500Y-9724390D01*
X7381875Y-13534390D02*
X7581265Y-13335000D01*
X7381875Y-13135610D01*
X7182485Y-13335000D01*
X7381875Y-13534390D01*
X9286875Y-17344390D02*
X9486265Y-17145000D01*
X9286875Y-16945610D01*
X9087485Y-17145000D01*
X9286875Y-17344390D01*
X17621250Y-13534390D02*
X17820640Y-13335000D01*
X17621250Y-13135610D01*
X17421860Y-13335000D01*
X17621250Y-13534390D01*
X19526250Y-13534390D02*
X19725640Y-13335000D01*
X19526250Y-13135610D01*
X19326860Y-13335000D01*
X19526250Y-13534390D01*
X24288750Y-15439390D02*
X24488140Y-15240000D01*
X24288750Y-15040610D01*
X24089360Y-15240000D01*
X24288750Y-15439390D01*
X9525000Y-11629390D02*
X9724390Y-11430000D01*
X9525000Y-11230610D01*
X9325610Y-11430000D01*
X9525000Y-11629390D01*
X15240000Y-11629390D02*
X15439390Y-11430000D01*
X15240000Y-11230610D01*
X15040610Y-11430000D01*
X15240000Y-11629390D01*
X11430000Y-11629390D02*
X11629390Y-11430000D01*
X11430000Y-11230610D01*
X11230610Y-11430000D01*
X11430000Y-11629390D01*
X26193750Y-17344390D02*
X26393140Y-17145000D01*
X26193750Y-16945610D01*
X25994360Y-17145000D01*
X26193750Y-17344390D01*
X8572500Y-9724390D02*
X8771890Y-9525000D01*
X8572500Y-9325610D01*
X8373110Y-9525000D01*
X8572500Y-9724390D01*
X18573750Y-15439390D02*
X18773140Y-15240000D01*
X18573750Y-15040610D01*
X18374360Y-15240000D01*
X18573750Y-15439390D01*
X32861250Y-11629390D02*
X33060640Y-11430000D01*
X32861250Y-11230610D01*
X32661860Y-11430000D01*
X32861250Y-11629390D01*
X19050000Y-11629390D02*
X19249390Y-11430000D01*
X19050000Y-11230610D01*
X18850610Y-11430000D01*
X19050000Y-11629390D01*
X25241250Y-13534390D02*
X25440640Y-13335000D01*
X25241250Y-13135610D01*
X25041860Y-13335000D01*
X25241250Y-13534390D01*
X9525000Y-17344390D02*
X9724390Y-17145000D01*
X9525000Y-16945610D01*
X9325610Y-17145000D01*
X9525000Y-17344390D01*
X15716250Y-13534390D02*
X15915640Y-13335000D01*
X15716250Y-13135610D01*
X15516860Y-13335000D01*
X15716250Y-13534390D01*
X28575000Y-17344390D02*
X28774390Y-17145000D01*
X28575000Y-16945610D01*
X28375610Y-17145000D01*
X28575000Y-17344390D01*
X30480000Y-17344390D02*
X30679390Y-17145000D01*
X30480000Y-16945610D01*
X30280610Y-17145000D01*
X30480000Y-17344390D01*
X26670000Y-11629390D02*
X26869390Y-11430000D01*
X26670000Y-11230610D01*
X26470610Y-11430000D01*
X26670000Y-11629390D01*
X12382500Y-9724390D02*
X12581890Y-9525000D01*
X12382500Y-9325610D01*
X12183110Y-9525000D01*
X12382500Y-9724390D01*
X7143750Y-17344390D02*
X7343140Y-17145000D01*
X7143750Y-16945610D01*
X6944360Y-17145000D01*
X7143750Y-17344390D01*
X10477500Y-9724390D02*
X10676890Y-9525000D01*
X10477500Y-9325610D01*
X10278110Y-9525000D01*
X10477500Y-9724390D01*
X6905625Y-13534390D02*
X7105015Y-13335000D01*
X6905625Y-13135610D01*
X6706235Y-13335000D01*
X6905625Y-13534390D01*
X14287500Y-9724390D02*
X14486890Y-9525000D01*
X14287500Y-9325610D01*
X14088110Y-9525000D01*
X14287500Y-9724390D01*
X10953750Y-15439390D02*
X11153140Y-15240000D01*
X10953750Y-15040610D01*
X10754360Y-15240000D01*
X10953750Y-15439390D01*
D12*
X5634420Y-18946500D02*
X5634420Y-18646500D01*
X5705848Y-18646500D01*
X5748706Y-18660785D01*
X5777277Y-18689357D01*
X5791563Y-18717928D01*
X5805848Y-18775071D01*
X5805848Y-18817928D01*
X5791563Y-18875071D01*
X5777277Y-18903643D01*
X5748706Y-18932214D01*
X5705848Y-18946500D01*
X5634420Y-18946500D01*
X5934420Y-18946500D02*
X5934420Y-18746500D01*
X5934420Y-18803643D02*
X5948706Y-18775071D01*
X5962991Y-18760785D01*
X5991563Y-18746500D01*
X6020134Y-18746500D01*
X6120134Y-18946500D02*
X6120134Y-18746500D01*
X6120134Y-18646500D02*
X6105848Y-18660785D01*
X6120134Y-18675071D01*
X6134420Y-18660785D01*
X6120134Y-18646500D01*
X6120134Y-18675071D01*
X6305848Y-18946500D02*
X6277277Y-18932214D01*
X6262991Y-18903643D01*
X6262991Y-18646500D01*
X6462991Y-18946500D02*
X6434420Y-18932214D01*
X6420134Y-18903643D01*
X6420134Y-18646500D01*
X6805848Y-18946500D02*
X6805848Y-18646500D01*
X6905848Y-18860785D01*
X7005848Y-18646500D01*
X7005848Y-18946500D01*
X7277277Y-18946500D02*
X7277277Y-18789357D01*
X7262991Y-18760785D01*
X7234420Y-18746500D01*
X7177277Y-18746500D01*
X7148706Y-18760785D01*
X7277277Y-18932214D02*
X7248706Y-18946500D01*
X7177277Y-18946500D01*
X7148706Y-18932214D01*
X7134420Y-18903643D01*
X7134420Y-18875071D01*
X7148706Y-18846500D01*
X7177277Y-18832214D01*
X7248706Y-18832214D01*
X7277277Y-18817928D01*
X7420134Y-18746500D02*
X7420134Y-19046500D01*
X7420134Y-18760785D02*
X7448706Y-18746500D01*
X7505848Y-18746500D01*
X7534420Y-18760785D01*
X7548706Y-18775071D01*
X7562991Y-18803643D01*
X7562991Y-18889357D01*
X7548706Y-18917928D01*
X7534420Y-18932214D01*
X7505848Y-18946500D01*
X7448706Y-18946500D01*
X7420134Y-18932214D01*
X7691563Y-18917928D02*
X7705848Y-18932214D01*
X7691563Y-18946500D01*
X7677277Y-18932214D01*
X7691563Y-18917928D01*
X7691563Y-18946500D01*
X7691563Y-18760785D02*
X7705848Y-18775071D01*
X7691563Y-18789357D01*
X7677277Y-18775071D01*
X7691563Y-18760785D01*
X7691563Y-18789357D01*
X5172991Y-19353285D02*
X5347991Y-19528285D01*
X5347991Y-19353285D02*
X5172991Y-19528285D01*
X5791563Y-19576500D02*
X5620134Y-19576500D01*
X5705848Y-19576500D02*
X5705848Y-19276500D01*
X5677277Y-19319357D01*
X5648706Y-19347928D01*
X5620134Y-19362214D01*
X5920134Y-19547928D02*
X5934420Y-19562214D01*
X5920134Y-19576500D01*
X5905848Y-19562214D01*
X5920134Y-19547928D01*
X5920134Y-19576500D01*
X6034420Y-19276500D02*
X6234420Y-19276500D01*
X6105848Y-19576500D01*
X6491563Y-19276500D02*
X6348706Y-19276500D01*
X6334420Y-19419357D01*
X6348706Y-19405071D01*
X6377277Y-19390785D01*
X6448706Y-19390785D01*
X6477277Y-19405071D01*
X6491563Y-19419357D01*
X6505848Y-19447928D01*
X6505848Y-19519357D01*
X6491563Y-19547928D01*
X6477277Y-19562214D01*
X6448706Y-19576500D01*
X6377277Y-19576500D01*
X6348706Y-19562214D01*
X6334420Y-19547928D01*
X6634420Y-19576500D02*
X6634420Y-19376500D01*
X6634420Y-19405071D02*
X6648706Y-19390785D01*
X6677277Y-19376500D01*
X6720134Y-19376500D01*
X6748706Y-19390785D01*
X6762991Y-19419357D01*
X6762991Y-19576500D01*
X6762991Y-19419357D02*
X6777277Y-19390785D01*
X6805848Y-19376500D01*
X6848706Y-19376500D01*
X6877277Y-19390785D01*
X6891563Y-19419357D01*
X6891563Y-19576500D01*
X7034420Y-19576500D02*
X7034420Y-19376500D01*
X7034420Y-19405071D02*
X7048706Y-19390785D01*
X7077277Y-19376500D01*
X7120134Y-19376500D01*
X7148706Y-19390785D01*
X7162991Y-19419357D01*
X7162991Y-19576500D01*
X7162991Y-19419357D02*
X7177277Y-19390785D01*
X7205848Y-19376500D01*
X7248706Y-19376500D01*
X7277277Y-19390785D01*
X7291563Y-19419357D01*
X7291563Y-19576500D01*
X7877277Y-19262214D02*
X7620134Y-19647928D01*
X8262991Y-19276500D02*
X8291563Y-19276500D01*
X8320134Y-19290785D01*
X8334420Y-19305071D01*
X8348706Y-19333643D01*
X8362991Y-19390785D01*
X8362991Y-19462214D01*
X8348706Y-19519357D01*
X8334420Y-19547928D01*
X8320134Y-19562214D01*
X8291563Y-19576500D01*
X8262991Y-19576500D01*
X8234420Y-19562214D01*
X8220134Y-19547928D01*
X8205848Y-19519357D01*
X8191563Y-19462214D01*
X8191563Y-19390785D01*
X8205848Y-19333643D01*
X8220134Y-19305071D01*
X8234420Y-19290785D01*
X8262991Y-19276500D01*
X8491563Y-19547928D02*
X8505849Y-19562214D01*
X8491563Y-19576500D01*
X8477277Y-19562214D01*
X8491563Y-19547928D01*
X8491563Y-19576500D01*
X8691563Y-19276500D02*
X8720134Y-19276500D01*
X8748706Y-19290785D01*
X8762991Y-19305071D01*
X8777277Y-19333643D01*
X8791563Y-19390785D01*
X8791563Y-19462214D01*
X8777277Y-19519357D01*
X8762991Y-19547928D01*
X8748706Y-19562214D01*
X8720134Y-19576500D01*
X8691563Y-19576500D01*
X8662991Y-19562214D01*
X8648706Y-19547928D01*
X8634420Y-19519357D01*
X8620134Y-19462214D01*
X8620134Y-19390785D01*
X8634420Y-19333643D01*
X8648706Y-19305071D01*
X8662991Y-19290785D01*
X8691563Y-19276500D01*
X9048706Y-19276500D02*
X8991563Y-19276500D01*
X8962991Y-19290785D01*
X8948706Y-19305071D01*
X8920134Y-19347928D01*
X8905849Y-19405071D01*
X8905849Y-19519357D01*
X8920134Y-19547928D01*
X8934420Y-19562214D01*
X8962991Y-19576500D01*
X9020134Y-19576500D01*
X9048706Y-19562214D01*
X9062991Y-19547928D01*
X9077277Y-19519357D01*
X9077277Y-19447928D01*
X9062991Y-19419357D01*
X9048706Y-19405071D01*
X9020134Y-19390785D01*
X8962991Y-19390785D01*
X8934420Y-19405071D01*
X8920134Y-19419357D01*
X8905849Y-19447928D01*
X9220134Y-19576500D02*
X9277277Y-19576500D01*
X9305849Y-19562214D01*
X9320134Y-19547928D01*
X9348706Y-19505071D01*
X9362991Y-19447928D01*
X9362991Y-19333643D01*
X9348706Y-19305071D01*
X9334420Y-19290785D01*
X9305849Y-19276500D01*
X9248706Y-19276500D01*
X9220134Y-19290785D01*
X9205849Y-19305071D01*
X9191563Y-19333643D01*
X9191563Y-19405071D01*
X9205849Y-19433643D01*
X9220134Y-19447928D01*
X9248706Y-19462214D01*
X9305849Y-19462214D01*
X9334420Y-19447928D01*
X9348706Y-19433643D01*
X9362991Y-19405071D01*
X9477277Y-19276500D02*
X9477277Y-19333643D01*
X9591563Y-19276500D02*
X9591563Y-19333643D01*
X10034420Y-19690785D02*
X10020134Y-19676500D01*
X9991563Y-19633643D01*
X9977277Y-19605071D01*
X9962991Y-19562214D01*
X9948706Y-19490785D01*
X9948706Y-19433643D01*
X9962991Y-19362214D01*
X9977277Y-19319357D01*
X9991563Y-19290785D01*
X10020134Y-19247928D01*
X10034420Y-19233643D01*
X10305849Y-19576500D02*
X10134420Y-19576500D01*
X10220134Y-19576500D02*
X10220134Y-19276500D01*
X10191563Y-19319357D01*
X10162991Y-19347928D01*
X10134420Y-19362214D01*
X10562991Y-19376500D02*
X10562991Y-19576500D01*
X10491563Y-19262214D02*
X10420134Y-19476500D01*
X10605849Y-19476500D01*
X10848706Y-19376500D02*
X10848706Y-19576500D01*
X10777277Y-19262214D02*
X10705849Y-19476500D01*
X10891563Y-19476500D01*
X11234420Y-19576500D02*
X11234420Y-19276500D01*
X11362991Y-19576500D02*
X11362991Y-19419357D01*
X11348706Y-19390785D01*
X11320134Y-19376500D01*
X11277277Y-19376500D01*
X11248706Y-19390785D01*
X11234420Y-19405071D01*
X11548706Y-19576500D02*
X11520134Y-19562214D01*
X11505848Y-19547928D01*
X11491563Y-19519357D01*
X11491563Y-19433643D01*
X11505848Y-19405071D01*
X11520134Y-19390785D01*
X11548706Y-19376500D01*
X11591563Y-19376500D01*
X11620134Y-19390785D01*
X11634420Y-19405071D01*
X11648706Y-19433643D01*
X11648706Y-19519357D01*
X11634420Y-19547928D01*
X11620134Y-19562214D01*
X11591563Y-19576500D01*
X11548706Y-19576500D01*
X11820134Y-19576500D02*
X11791563Y-19562214D01*
X11777277Y-19533643D01*
X11777277Y-19276500D01*
X12048706Y-19562214D02*
X12020134Y-19576500D01*
X11962991Y-19576500D01*
X11934420Y-19562214D01*
X11920134Y-19533643D01*
X11920134Y-19419357D01*
X11934420Y-19390785D01*
X11962991Y-19376500D01*
X12020134Y-19376500D01*
X12048706Y-19390785D01*
X12062991Y-19419357D01*
X12062991Y-19447928D01*
X11920134Y-19476500D01*
X12177277Y-19562214D02*
X12205848Y-19576500D01*
X12262991Y-19576500D01*
X12291563Y-19562214D01*
X12305848Y-19533643D01*
X12305848Y-19519357D01*
X12291563Y-19490785D01*
X12262991Y-19476500D01*
X12220134Y-19476500D01*
X12191563Y-19462214D01*
X12177277Y-19433643D01*
X12177277Y-19419357D01*
X12191563Y-19390785D01*
X12220134Y-19376500D01*
X12262991Y-19376500D01*
X12291563Y-19390785D01*
X12405848Y-19690785D02*
X12420134Y-19676500D01*
X12448706Y-19633643D01*
X12462991Y-19605071D01*
X12477277Y-19562214D01*
X12491563Y-19490785D01*
X12491563Y-19433643D01*
X12477277Y-19362214D01*
X12462991Y-19319357D01*
X12448706Y-19290785D01*
X12420134Y-19247928D01*
X12405848Y-19233643D01*
X12948706Y-19690785D02*
X12934420Y-19676500D01*
X12905848Y-19633643D01*
X12891563Y-19605071D01*
X12877277Y-19562214D01*
X12862991Y-19490785D01*
X12862991Y-19433643D01*
X12877277Y-19362214D01*
X12891563Y-19319357D01*
X12905848Y-19290785D01*
X12934420Y-19247928D01*
X12948706Y-19233643D01*
X13062991Y-19376500D02*
X13062991Y-19576500D01*
X13062991Y-19405071D02*
X13077277Y-19390785D01*
X13105848Y-19376500D01*
X13148706Y-19376500D01*
X13177277Y-19390785D01*
X13191563Y-19419357D01*
X13191563Y-19576500D01*
X13377277Y-19576500D02*
X13348706Y-19562214D01*
X13334420Y-19547928D01*
X13320134Y-19519357D01*
X13320134Y-19433643D01*
X13334420Y-19405071D01*
X13348706Y-19390785D01*
X13377277Y-19376500D01*
X13420134Y-19376500D01*
X13448706Y-19390785D01*
X13462991Y-19405071D01*
X13477277Y-19433643D01*
X13477277Y-19519357D01*
X13462991Y-19547928D01*
X13448706Y-19562214D01*
X13420134Y-19576500D01*
X13377277Y-19576500D01*
X13562991Y-19376500D02*
X13677277Y-19376500D01*
X13605848Y-19276500D02*
X13605848Y-19533643D01*
X13620134Y-19562214D01*
X13648706Y-19576500D01*
X13677277Y-19576500D01*
X14005848Y-19376500D02*
X14005848Y-19676500D01*
X14005848Y-19390785D02*
X14034420Y-19376500D01*
X14091563Y-19376500D01*
X14120134Y-19390785D01*
X14134420Y-19405071D01*
X14148706Y-19433643D01*
X14148706Y-19519357D01*
X14134420Y-19547928D01*
X14120134Y-19562214D01*
X14091563Y-19576500D01*
X14034420Y-19576500D01*
X14005848Y-19562214D01*
X14320134Y-19576500D02*
X14291563Y-19562214D01*
X14277277Y-19533643D01*
X14277277Y-19276500D01*
X14562991Y-19576500D02*
X14562991Y-19419357D01*
X14548706Y-19390785D01*
X14520134Y-19376500D01*
X14462991Y-19376500D01*
X14434420Y-19390785D01*
X14562991Y-19562214D02*
X14534420Y-19576500D01*
X14462991Y-19576500D01*
X14434420Y-19562214D01*
X14420134Y-19533643D01*
X14420134Y-19505071D01*
X14434420Y-19476500D01*
X14462991Y-19462214D01*
X14534420Y-19462214D01*
X14562991Y-19447928D01*
X14662991Y-19376500D02*
X14777277Y-19376500D01*
X14705848Y-19276500D02*
X14705848Y-19533643D01*
X14720134Y-19562214D01*
X14748706Y-19576500D01*
X14777277Y-19576500D01*
X14991563Y-19562214D02*
X14962991Y-19576500D01*
X14905848Y-19576500D01*
X14877277Y-19562214D01*
X14862991Y-19533643D01*
X14862991Y-19419357D01*
X14877277Y-19390785D01*
X14905848Y-19376500D01*
X14962991Y-19376500D01*
X14991563Y-19390785D01*
X15005848Y-19419357D01*
X15005848Y-19447928D01*
X14862991Y-19476500D01*
X15262991Y-19576500D02*
X15262991Y-19276500D01*
X15262991Y-19562214D02*
X15234420Y-19576500D01*
X15177277Y-19576500D01*
X15148706Y-19562214D01*
X15134420Y-19547928D01*
X15120134Y-19519357D01*
X15120134Y-19433643D01*
X15134420Y-19405071D01*
X15148706Y-19390785D01*
X15177277Y-19376500D01*
X15234420Y-19376500D01*
X15262991Y-19390785D01*
X15377277Y-19690785D02*
X15391563Y-19676500D01*
X15420134Y-19633643D01*
X15434420Y-19605071D01*
X15448706Y-19562214D01*
X15462991Y-19490785D01*
X15462991Y-19433643D01*
X15448706Y-19362214D01*
X15434420Y-19319357D01*
X15420134Y-19290785D01*
X15391563Y-19247928D01*
X15377277Y-19233643D01*
X5347991Y-19836785D02*
G75*
G03*
X5347991Y-19836785I-110000J0D01*
G01*
X5620134Y-19701071D02*
X5634420Y-19686785D01*
X5662991Y-19672500D01*
X5734420Y-19672500D01*
X5762991Y-19686785D01*
X5777277Y-19701071D01*
X5791563Y-19729643D01*
X5791563Y-19758214D01*
X5777277Y-19801071D01*
X5605848Y-19972500D01*
X5791563Y-19972500D01*
X5920134Y-19943928D02*
X5934420Y-19958214D01*
X5920134Y-19972500D01*
X5905848Y-19958214D01*
X5920134Y-19943928D01*
X5920134Y-19972500D01*
X6048706Y-19701071D02*
X6062991Y-19686785D01*
X6091563Y-19672500D01*
X6162991Y-19672500D01*
X6191563Y-19686785D01*
X6205848Y-19701071D01*
X6220134Y-19729643D01*
X6220134Y-19758214D01*
X6205848Y-19801071D01*
X6034420Y-19972500D01*
X6220134Y-19972500D01*
X6405848Y-19672500D02*
X6434420Y-19672500D01*
X6462991Y-19686785D01*
X6477277Y-19701071D01*
X6491563Y-19729643D01*
X6505848Y-19786785D01*
X6505848Y-19858214D01*
X6491563Y-19915357D01*
X6477277Y-19943928D01*
X6462991Y-19958214D01*
X6434420Y-19972500D01*
X6405848Y-19972500D01*
X6377277Y-19958214D01*
X6362991Y-19943928D01*
X6348706Y-19915357D01*
X6334420Y-19858214D01*
X6334420Y-19786785D01*
X6348706Y-19729643D01*
X6362991Y-19701071D01*
X6377277Y-19686785D01*
X6405848Y-19672500D01*
X6634420Y-19972500D02*
X6634420Y-19772500D01*
X6634420Y-19801071D02*
X6648706Y-19786785D01*
X6677277Y-19772500D01*
X6720134Y-19772500D01*
X6748706Y-19786785D01*
X6762991Y-19815357D01*
X6762991Y-19972500D01*
X6762991Y-19815357D02*
X6777277Y-19786785D01*
X6805848Y-19772500D01*
X6848706Y-19772500D01*
X6877277Y-19786785D01*
X6891563Y-19815357D01*
X6891563Y-19972500D01*
X7034420Y-19972500D02*
X7034420Y-19772500D01*
X7034420Y-19801071D02*
X7048706Y-19786785D01*
X7077277Y-19772500D01*
X7120134Y-19772500D01*
X7148706Y-19786785D01*
X7162991Y-19815357D01*
X7162991Y-19972500D01*
X7162991Y-19815357D02*
X7177277Y-19786785D01*
X7205848Y-19772500D01*
X7248706Y-19772500D01*
X7277277Y-19786785D01*
X7291563Y-19815357D01*
X7291563Y-19972500D01*
X7877277Y-19658214D02*
X7620134Y-20043928D01*
X8262991Y-19672500D02*
X8291563Y-19672500D01*
X8320134Y-19686785D01*
X8334420Y-19701071D01*
X8348706Y-19729643D01*
X8362991Y-19786785D01*
X8362991Y-19858214D01*
X8348706Y-19915357D01*
X8334420Y-19943928D01*
X8320134Y-19958214D01*
X8291563Y-19972500D01*
X8262991Y-19972500D01*
X8234420Y-19958214D01*
X8220134Y-19943928D01*
X8205848Y-19915357D01*
X8191563Y-19858214D01*
X8191563Y-19786785D01*
X8205848Y-19729643D01*
X8220134Y-19701071D01*
X8234420Y-19686785D01*
X8262991Y-19672500D01*
X8491563Y-19943928D02*
X8505849Y-19958214D01*
X8491563Y-19972500D01*
X8477277Y-19958214D01*
X8491563Y-19943928D01*
X8491563Y-19972500D01*
X8691563Y-19672500D02*
X8720134Y-19672500D01*
X8748706Y-19686785D01*
X8762991Y-19701071D01*
X8777277Y-19729643D01*
X8791563Y-19786785D01*
X8791563Y-19858214D01*
X8777277Y-19915357D01*
X8762991Y-19943928D01*
X8748706Y-19958214D01*
X8720134Y-19972500D01*
X8691563Y-19972500D01*
X8662991Y-19958214D01*
X8648706Y-19943928D01*
X8634420Y-19915357D01*
X8620134Y-19858214D01*
X8620134Y-19786785D01*
X8634420Y-19729643D01*
X8648706Y-19701071D01*
X8662991Y-19686785D01*
X8691563Y-19672500D01*
X8962991Y-19801071D02*
X8934420Y-19786785D01*
X8920134Y-19772500D01*
X8905849Y-19743928D01*
X8905849Y-19729643D01*
X8920134Y-19701071D01*
X8934420Y-19686785D01*
X8962991Y-19672500D01*
X9020134Y-19672500D01*
X9048706Y-19686785D01*
X9062991Y-19701071D01*
X9077277Y-19729643D01*
X9077277Y-19743928D01*
X9062991Y-19772500D01*
X9048706Y-19786785D01*
X9020134Y-19801071D01*
X8962991Y-19801071D01*
X8934420Y-19815357D01*
X8920134Y-19829643D01*
X8905849Y-19858214D01*
X8905849Y-19915357D01*
X8920134Y-19943928D01*
X8934420Y-19958214D01*
X8962991Y-19972500D01*
X9020134Y-19972500D01*
X9048706Y-19958214D01*
X9062991Y-19943928D01*
X9077277Y-19915357D01*
X9077277Y-19858214D01*
X9062991Y-19829643D01*
X9048706Y-19815357D01*
X9020134Y-19801071D01*
X9177277Y-19672500D02*
X9377277Y-19672500D01*
X9248706Y-19972500D01*
X9477277Y-19672500D02*
X9477277Y-19729643D01*
X9591563Y-19672500D02*
X9591563Y-19729643D01*
X10034420Y-20086785D02*
X10020134Y-20072500D01*
X9991563Y-20029643D01*
X9977277Y-20001071D01*
X9962991Y-19958214D01*
X9948706Y-19886785D01*
X9948706Y-19829643D01*
X9962991Y-19758214D01*
X9977277Y-19715357D01*
X9991563Y-19686785D01*
X10020134Y-19643928D01*
X10034420Y-19629643D01*
X10120134Y-19672500D02*
X10320134Y-19672500D01*
X10191563Y-19972500D01*
X10662991Y-19972500D02*
X10662991Y-19672500D01*
X10791563Y-19972500D02*
X10791563Y-19815357D01*
X10777277Y-19786785D01*
X10748706Y-19772500D01*
X10705849Y-19772500D01*
X10677277Y-19786785D01*
X10662991Y-19801071D01*
X10977277Y-19972500D02*
X10948706Y-19958214D01*
X10934420Y-19943928D01*
X10920134Y-19915357D01*
X10920134Y-19829643D01*
X10934420Y-19801071D01*
X10948706Y-19786785D01*
X10977277Y-19772500D01*
X11020134Y-19772500D01*
X11048706Y-19786785D01*
X11062991Y-19801071D01*
X11077277Y-19829643D01*
X11077277Y-19915357D01*
X11062991Y-19943928D01*
X11048706Y-19958214D01*
X11020134Y-19972500D01*
X10977277Y-19972500D01*
X11248706Y-19972500D02*
X11220134Y-19958214D01*
X11205848Y-19929643D01*
X11205848Y-19672500D01*
X11477277Y-19958214D02*
X11448706Y-19972500D01*
X11391563Y-19972500D01*
X11362991Y-19958214D01*
X11348706Y-19929643D01*
X11348706Y-19815357D01*
X11362991Y-19786785D01*
X11391563Y-19772500D01*
X11448706Y-19772500D01*
X11477277Y-19786785D01*
X11491563Y-19815357D01*
X11491563Y-19843928D01*
X11348706Y-19872500D01*
X11605848Y-19958214D02*
X11634420Y-19972500D01*
X11691563Y-19972500D01*
X11720134Y-19958214D01*
X11734420Y-19929643D01*
X11734420Y-19915357D01*
X11720134Y-19886785D01*
X11691563Y-19872500D01*
X11648706Y-19872500D01*
X11620134Y-19858214D01*
X11605848Y-19829643D01*
X11605848Y-19815357D01*
X11620134Y-19786785D01*
X11648706Y-19772500D01*
X11691563Y-19772500D01*
X11720134Y-19786785D01*
X11834420Y-20086785D02*
X11848706Y-20072500D01*
X11877277Y-20029643D01*
X11891563Y-20001071D01*
X11905848Y-19958214D01*
X11920134Y-19886785D01*
X11920134Y-19829643D01*
X11905848Y-19758214D01*
X11891563Y-19715357D01*
X11877277Y-19686785D01*
X11848706Y-19643928D01*
X11834420Y-19629643D01*
X12377277Y-20086785D02*
X12362991Y-20072500D01*
X12334420Y-20029643D01*
X12320134Y-20001071D01*
X12305848Y-19958214D01*
X12291563Y-19886785D01*
X12291563Y-19829643D01*
X12305848Y-19758214D01*
X12320134Y-19715357D01*
X12334420Y-19686785D01*
X12362991Y-19643928D01*
X12377277Y-19629643D01*
X12491563Y-19772500D02*
X12491563Y-19972500D01*
X12491563Y-19801071D02*
X12505848Y-19786785D01*
X12534420Y-19772500D01*
X12577277Y-19772500D01*
X12605848Y-19786785D01*
X12620134Y-19815357D01*
X12620134Y-19972500D01*
X12805848Y-19972500D02*
X12777277Y-19958214D01*
X12762991Y-19943928D01*
X12748706Y-19915357D01*
X12748706Y-19829643D01*
X12762991Y-19801071D01*
X12777277Y-19786785D01*
X12805848Y-19772500D01*
X12848706Y-19772500D01*
X12877277Y-19786785D01*
X12891563Y-19801071D01*
X12905848Y-19829643D01*
X12905848Y-19915357D01*
X12891563Y-19943928D01*
X12877277Y-19958214D01*
X12848706Y-19972500D01*
X12805848Y-19972500D01*
X12991563Y-19772500D02*
X13105848Y-19772500D01*
X13034420Y-19672500D02*
X13034420Y-19929643D01*
X13048706Y-19958214D01*
X13077277Y-19972500D01*
X13105848Y-19972500D01*
X13434420Y-19772500D02*
X13434420Y-20072500D01*
X13434420Y-19786785D02*
X13462991Y-19772500D01*
X13520134Y-19772500D01*
X13548706Y-19786785D01*
X13562991Y-19801071D01*
X13577277Y-19829643D01*
X13577277Y-19915357D01*
X13562991Y-19943928D01*
X13548706Y-19958214D01*
X13520134Y-19972500D01*
X13462991Y-19972500D01*
X13434420Y-19958214D01*
X13748706Y-19972500D02*
X13720134Y-19958214D01*
X13705848Y-19929643D01*
X13705848Y-19672500D01*
X13991563Y-19972500D02*
X13991563Y-19815357D01*
X13977277Y-19786785D01*
X13948706Y-19772500D01*
X13891563Y-19772500D01*
X13862991Y-19786785D01*
X13991563Y-19958214D02*
X13962991Y-19972500D01*
X13891563Y-19972500D01*
X13862991Y-19958214D01*
X13848706Y-19929643D01*
X13848706Y-19901071D01*
X13862991Y-19872500D01*
X13891563Y-19858214D01*
X13962991Y-19858214D01*
X13991563Y-19843928D01*
X14091563Y-19772500D02*
X14205848Y-19772500D01*
X14134420Y-19672500D02*
X14134420Y-19929643D01*
X14148706Y-19958214D01*
X14177277Y-19972500D01*
X14205848Y-19972500D01*
X14420134Y-19958214D02*
X14391563Y-19972500D01*
X14334420Y-19972500D01*
X14305848Y-19958214D01*
X14291563Y-19929643D01*
X14291563Y-19815357D01*
X14305848Y-19786785D01*
X14334420Y-19772500D01*
X14391563Y-19772500D01*
X14420134Y-19786785D01*
X14434420Y-19815357D01*
X14434420Y-19843928D01*
X14291563Y-19872500D01*
X14691563Y-19972500D02*
X14691563Y-19672500D01*
X14691563Y-19958214D02*
X14662991Y-19972500D01*
X14605848Y-19972500D01*
X14577277Y-19958214D01*
X14562991Y-19943928D01*
X14548706Y-19915357D01*
X14548706Y-19829643D01*
X14562991Y-19801071D01*
X14577277Y-19786785D01*
X14605848Y-19772500D01*
X14662991Y-19772500D01*
X14691563Y-19786785D01*
X14805848Y-20086785D02*
X14820134Y-20072500D01*
X14848706Y-20029643D01*
X14862991Y-20001071D01*
X14877277Y-19958214D01*
X14891563Y-19886785D01*
X14891563Y-19829643D01*
X14877277Y-19758214D01*
X14862991Y-19715357D01*
X14848706Y-19686785D01*
X14820134Y-19643928D01*
X14805848Y-19629643D01*
X5197991Y-20082785D02*
X5197991Y-20382785D01*
X5047991Y-20232785D02*
X5347991Y-20232785D01*
X5605848Y-20068500D02*
X5791563Y-20068500D01*
X5691563Y-20182785D01*
X5734420Y-20182785D01*
X5762991Y-20197071D01*
X5777277Y-20211357D01*
X5791563Y-20239928D01*
X5791563Y-20311357D01*
X5777277Y-20339928D01*
X5762991Y-20354214D01*
X5734420Y-20368500D01*
X5648706Y-20368500D01*
X5620134Y-20354214D01*
X5605848Y-20339928D01*
X5920134Y-20339928D02*
X5934420Y-20354214D01*
X5920134Y-20368500D01*
X5905848Y-20354214D01*
X5920134Y-20339928D01*
X5920134Y-20368500D01*
X6120134Y-20068500D02*
X6148706Y-20068500D01*
X6177277Y-20082785D01*
X6191563Y-20097071D01*
X6205848Y-20125643D01*
X6220134Y-20182785D01*
X6220134Y-20254214D01*
X6205848Y-20311357D01*
X6191563Y-20339928D01*
X6177277Y-20354214D01*
X6148706Y-20368500D01*
X6120134Y-20368500D01*
X6091563Y-20354214D01*
X6077277Y-20339928D01*
X6062991Y-20311357D01*
X6048706Y-20254214D01*
X6048706Y-20182785D01*
X6062991Y-20125643D01*
X6077277Y-20097071D01*
X6091563Y-20082785D01*
X6120134Y-20068500D01*
X6405848Y-20068500D02*
X6434420Y-20068500D01*
X6462991Y-20082785D01*
X6477277Y-20097071D01*
X6491563Y-20125643D01*
X6505848Y-20182785D01*
X6505848Y-20254214D01*
X6491563Y-20311357D01*
X6477277Y-20339928D01*
X6462991Y-20354214D01*
X6434420Y-20368500D01*
X6405848Y-20368500D01*
X6377277Y-20354214D01*
X6362991Y-20339928D01*
X6348706Y-20311357D01*
X6334420Y-20254214D01*
X6334420Y-20182785D01*
X6348706Y-20125643D01*
X6362991Y-20097071D01*
X6377277Y-20082785D01*
X6405848Y-20068500D01*
X6634420Y-20368500D02*
X6634420Y-20168500D01*
X6634420Y-20197071D02*
X6648706Y-20182785D01*
X6677277Y-20168500D01*
X6720134Y-20168500D01*
X6748706Y-20182785D01*
X6762991Y-20211357D01*
X6762991Y-20368500D01*
X6762991Y-20211357D02*
X6777277Y-20182785D01*
X6805848Y-20168500D01*
X6848706Y-20168500D01*
X6877277Y-20182785D01*
X6891563Y-20211357D01*
X6891563Y-20368500D01*
X7034420Y-20368500D02*
X7034420Y-20168500D01*
X7034420Y-20197071D02*
X7048706Y-20182785D01*
X7077277Y-20168500D01*
X7120134Y-20168500D01*
X7148706Y-20182785D01*
X7162991Y-20211357D01*
X7162991Y-20368500D01*
X7162991Y-20211357D02*
X7177277Y-20182785D01*
X7205848Y-20168500D01*
X7248706Y-20168500D01*
X7277277Y-20182785D01*
X7291563Y-20211357D01*
X7291563Y-20368500D01*
X7877277Y-20054214D02*
X7620134Y-20439928D01*
X8262991Y-20068500D02*
X8291563Y-20068500D01*
X8320134Y-20082785D01*
X8334420Y-20097071D01*
X8348706Y-20125643D01*
X8362991Y-20182785D01*
X8362991Y-20254214D01*
X8348706Y-20311357D01*
X8334420Y-20339928D01*
X8320134Y-20354214D01*
X8291563Y-20368500D01*
X8262991Y-20368500D01*
X8234420Y-20354214D01*
X8220134Y-20339928D01*
X8205848Y-20311357D01*
X8191563Y-20254214D01*
X8191563Y-20182785D01*
X8205848Y-20125643D01*
X8220134Y-20097071D01*
X8234420Y-20082785D01*
X8262991Y-20068500D01*
X8491563Y-20339928D02*
X8505849Y-20354214D01*
X8491563Y-20368500D01*
X8477277Y-20354214D01*
X8491563Y-20339928D01*
X8491563Y-20368500D01*
X8791563Y-20368500D02*
X8620134Y-20368500D01*
X8705849Y-20368500D02*
X8705849Y-20068500D01*
X8677277Y-20111357D01*
X8648706Y-20139928D01*
X8620134Y-20154214D01*
X9077277Y-20368500D02*
X8905849Y-20368500D01*
X8991563Y-20368500D02*
X8991563Y-20068500D01*
X8962991Y-20111357D01*
X8934420Y-20139928D01*
X8905849Y-20154214D01*
X9248706Y-20197071D02*
X9220134Y-20182785D01*
X9205849Y-20168500D01*
X9191563Y-20139928D01*
X9191563Y-20125643D01*
X9205849Y-20097071D01*
X9220134Y-20082785D01*
X9248706Y-20068500D01*
X9305849Y-20068500D01*
X9334420Y-20082785D01*
X9348706Y-20097071D01*
X9362991Y-20125643D01*
X9362991Y-20139928D01*
X9348706Y-20168500D01*
X9334420Y-20182785D01*
X9305849Y-20197071D01*
X9248706Y-20197071D01*
X9220134Y-20211357D01*
X9205849Y-20225643D01*
X9191563Y-20254214D01*
X9191563Y-20311357D01*
X9205849Y-20339928D01*
X9220134Y-20354214D01*
X9248706Y-20368500D01*
X9305849Y-20368500D01*
X9334420Y-20354214D01*
X9348706Y-20339928D01*
X9362991Y-20311357D01*
X9362991Y-20254214D01*
X9348706Y-20225643D01*
X9334420Y-20211357D01*
X9305849Y-20197071D01*
X9477277Y-20068500D02*
X9477277Y-20125643D01*
X9591563Y-20068500D02*
X9591563Y-20125643D01*
X10034420Y-20482785D02*
X10020134Y-20468500D01*
X9991563Y-20425643D01*
X9977277Y-20397071D01*
X9962991Y-20354214D01*
X9948706Y-20282785D01*
X9948706Y-20225643D01*
X9962991Y-20154214D01*
X9977277Y-20111357D01*
X9991563Y-20082785D01*
X10020134Y-20039928D01*
X10034420Y-20025643D01*
X10277277Y-20168500D02*
X10277277Y-20368500D01*
X10205849Y-20054214D02*
X10134420Y-20268500D01*
X10320134Y-20268500D01*
X10662991Y-20368500D02*
X10662991Y-20068500D01*
X10791563Y-20368500D02*
X10791563Y-20211357D01*
X10777277Y-20182785D01*
X10748706Y-20168500D01*
X10705849Y-20168500D01*
X10677277Y-20182785D01*
X10662991Y-20197071D01*
X10977277Y-20368500D02*
X10948706Y-20354214D01*
X10934420Y-20339928D01*
X10920134Y-20311357D01*
X10920134Y-20225643D01*
X10934420Y-20197071D01*
X10948706Y-20182785D01*
X10977277Y-20168500D01*
X11020134Y-20168500D01*
X11048706Y-20182785D01*
X11062991Y-20197071D01*
X11077277Y-20225643D01*
X11077277Y-20311357D01*
X11062991Y-20339928D01*
X11048706Y-20354214D01*
X11020134Y-20368500D01*
X10977277Y-20368500D01*
X11248706Y-20368500D02*
X11220134Y-20354214D01*
X11205848Y-20325643D01*
X11205848Y-20068500D01*
X11477277Y-20354214D02*
X11448706Y-20368500D01*
X11391563Y-20368500D01*
X11362991Y-20354214D01*
X11348706Y-20325643D01*
X11348706Y-20211357D01*
X11362991Y-20182785D01*
X11391563Y-20168500D01*
X11448706Y-20168500D01*
X11477277Y-20182785D01*
X11491563Y-20211357D01*
X11491563Y-20239928D01*
X11348706Y-20268500D01*
X11605848Y-20354214D02*
X11634420Y-20368500D01*
X11691563Y-20368500D01*
X11720134Y-20354214D01*
X11734420Y-20325643D01*
X11734420Y-20311357D01*
X11720134Y-20282785D01*
X11691563Y-20268500D01*
X11648706Y-20268500D01*
X11620134Y-20254214D01*
X11605848Y-20225643D01*
X11605848Y-20211357D01*
X11620134Y-20182785D01*
X11648706Y-20168500D01*
X11691563Y-20168500D01*
X11720134Y-20182785D01*
X11834420Y-20482785D02*
X11848706Y-20468500D01*
X11877277Y-20425643D01*
X11891563Y-20397071D01*
X11905848Y-20354214D01*
X11920134Y-20282785D01*
X11920134Y-20225643D01*
X11905848Y-20154214D01*
X11891563Y-20111357D01*
X11877277Y-20082785D01*
X11848706Y-20039928D01*
X11834420Y-20025643D01*
X12377277Y-20482785D02*
X12362991Y-20468500D01*
X12334420Y-20425643D01*
X12320134Y-20397071D01*
X12305848Y-20354214D01*
X12291563Y-20282785D01*
X12291563Y-20225643D01*
X12305848Y-20154214D01*
X12320134Y-20111357D01*
X12334420Y-20082785D01*
X12362991Y-20039928D01*
X12377277Y-20025643D01*
X12491563Y-20168500D02*
X12491563Y-20368500D01*
X12491563Y-20197071D02*
X12505848Y-20182785D01*
X12534420Y-20168500D01*
X12577277Y-20168500D01*
X12605848Y-20182785D01*
X12620134Y-20211357D01*
X12620134Y-20368500D01*
X12805848Y-20368500D02*
X12777277Y-20354214D01*
X12762991Y-20339928D01*
X12748706Y-20311357D01*
X12748706Y-20225643D01*
X12762991Y-20197071D01*
X12777277Y-20182785D01*
X12805848Y-20168500D01*
X12848706Y-20168500D01*
X12877277Y-20182785D01*
X12891563Y-20197071D01*
X12905848Y-20225643D01*
X12905848Y-20311357D01*
X12891563Y-20339928D01*
X12877277Y-20354214D01*
X12848706Y-20368500D01*
X12805848Y-20368500D01*
X12991563Y-20168500D02*
X13105848Y-20168500D01*
X13034420Y-20068500D02*
X13034420Y-20325643D01*
X13048706Y-20354214D01*
X13077277Y-20368500D01*
X13105848Y-20368500D01*
X13434420Y-20168500D02*
X13434420Y-20468500D01*
X13434420Y-20182785D02*
X13462991Y-20168500D01*
X13520134Y-20168500D01*
X13548706Y-20182785D01*
X13562991Y-20197071D01*
X13577277Y-20225643D01*
X13577277Y-20311357D01*
X13562991Y-20339928D01*
X13548706Y-20354214D01*
X13520134Y-20368500D01*
X13462991Y-20368500D01*
X13434420Y-20354214D01*
X13748706Y-20368500D02*
X13720134Y-20354214D01*
X13705848Y-20325643D01*
X13705848Y-20068500D01*
X13991563Y-20368500D02*
X13991563Y-20211357D01*
X13977277Y-20182785D01*
X13948706Y-20168500D01*
X13891563Y-20168500D01*
X13862991Y-20182785D01*
X13991563Y-20354214D02*
X13962991Y-20368500D01*
X13891563Y-20368500D01*
X13862991Y-20354214D01*
X13848706Y-20325643D01*
X13848706Y-20297071D01*
X13862991Y-20268500D01*
X13891563Y-20254214D01*
X13962991Y-20254214D01*
X13991563Y-20239928D01*
X14091563Y-20168500D02*
X14205848Y-20168500D01*
X14134420Y-20068500D02*
X14134420Y-20325643D01*
X14148706Y-20354214D01*
X14177277Y-20368500D01*
X14205848Y-20368500D01*
X14420134Y-20354214D02*
X14391563Y-20368500D01*
X14334420Y-20368500D01*
X14305848Y-20354214D01*
X14291563Y-20325643D01*
X14291563Y-20211357D01*
X14305848Y-20182785D01*
X14334420Y-20168500D01*
X14391563Y-20168500D01*
X14420134Y-20182785D01*
X14434420Y-20211357D01*
X14434420Y-20239928D01*
X14291563Y-20268500D01*
X14691563Y-20368500D02*
X14691563Y-20068500D01*
X14691563Y-20354214D02*
X14662991Y-20368500D01*
X14605848Y-20368500D01*
X14577277Y-20354214D01*
X14562991Y-20339928D01*
X14548706Y-20311357D01*
X14548706Y-20225643D01*
X14562991Y-20197071D01*
X14577277Y-20182785D01*
X14605848Y-20168500D01*
X14662991Y-20168500D01*
X14691563Y-20182785D01*
X14805848Y-20482785D02*
X14820134Y-20468500D01*
X14848706Y-20425643D01*
X14862991Y-20397071D01*
X14877277Y-20354214D01*
X14891563Y-20282785D01*
X14891563Y-20225643D01*
X14877277Y-20154214D01*
X14862991Y-20111357D01*
X14848706Y-20082785D01*
X14820134Y-20039928D01*
X14805848Y-20025643D01*
X5303356Y-20770550D02*
X5303356Y-20555021D01*
X5087827Y-20555021D01*
X5087827Y-20770550D01*
X5303356Y-20770550D01*
X5605848Y-20498500D02*
X5791563Y-20498500D01*
X5691563Y-20612785D01*
X5734420Y-20612785D01*
X5762991Y-20627071D01*
X5777277Y-20641357D01*
X5791563Y-20669928D01*
X5791563Y-20741357D01*
X5777277Y-20769928D01*
X5762991Y-20784214D01*
X5734420Y-20798500D01*
X5648706Y-20798500D01*
X5620134Y-20784214D01*
X5605848Y-20769928D01*
X5920134Y-20769928D02*
X5934420Y-20784214D01*
X5920134Y-20798500D01*
X5905848Y-20784214D01*
X5920134Y-20769928D01*
X5920134Y-20798500D01*
X6120134Y-20498500D02*
X6148706Y-20498500D01*
X6177277Y-20512785D01*
X6191563Y-20527071D01*
X6205848Y-20555643D01*
X6220134Y-20612785D01*
X6220134Y-20684214D01*
X6205848Y-20741357D01*
X6191563Y-20769928D01*
X6177277Y-20784214D01*
X6148706Y-20798500D01*
X6120134Y-20798500D01*
X6091563Y-20784214D01*
X6077277Y-20769928D01*
X6062991Y-20741357D01*
X6048706Y-20684214D01*
X6048706Y-20612785D01*
X6062991Y-20555643D01*
X6077277Y-20527071D01*
X6091563Y-20512785D01*
X6120134Y-20498500D01*
X6491563Y-20498500D02*
X6348706Y-20498500D01*
X6334420Y-20641357D01*
X6348706Y-20627071D01*
X6377277Y-20612785D01*
X6448706Y-20612785D01*
X6477277Y-20627071D01*
X6491563Y-20641357D01*
X6505848Y-20669928D01*
X6505848Y-20741357D01*
X6491563Y-20769928D01*
X6477277Y-20784214D01*
X6448706Y-20798500D01*
X6377277Y-20798500D01*
X6348706Y-20784214D01*
X6334420Y-20769928D01*
X6634420Y-20798500D02*
X6634420Y-20598500D01*
X6634420Y-20627071D02*
X6648706Y-20612785D01*
X6677277Y-20598500D01*
X6720134Y-20598500D01*
X6748706Y-20612785D01*
X6762991Y-20641357D01*
X6762991Y-20798500D01*
X6762991Y-20641357D02*
X6777277Y-20612785D01*
X6805848Y-20598500D01*
X6848706Y-20598500D01*
X6877277Y-20612785D01*
X6891563Y-20641357D01*
X6891563Y-20798500D01*
X7034420Y-20798500D02*
X7034420Y-20598500D01*
X7034420Y-20627071D02*
X7048706Y-20612785D01*
X7077277Y-20598500D01*
X7120134Y-20598500D01*
X7148706Y-20612785D01*
X7162991Y-20641357D01*
X7162991Y-20798500D01*
X7162991Y-20641357D02*
X7177277Y-20612785D01*
X7205848Y-20598500D01*
X7248706Y-20598500D01*
X7277277Y-20612785D01*
X7291563Y-20641357D01*
X7291563Y-20798500D01*
X7877277Y-20484214D02*
X7620134Y-20869928D01*
X8262991Y-20498500D02*
X8291563Y-20498500D01*
X8320134Y-20512785D01*
X8334420Y-20527071D01*
X8348706Y-20555643D01*
X8362991Y-20612785D01*
X8362991Y-20684214D01*
X8348706Y-20741357D01*
X8334420Y-20769928D01*
X8320134Y-20784214D01*
X8291563Y-20798500D01*
X8262991Y-20798500D01*
X8234420Y-20784214D01*
X8220134Y-20769928D01*
X8205848Y-20741357D01*
X8191563Y-20684214D01*
X8191563Y-20612785D01*
X8205848Y-20555643D01*
X8220134Y-20527071D01*
X8234420Y-20512785D01*
X8262991Y-20498500D01*
X8491563Y-20769928D02*
X8505849Y-20784214D01*
X8491563Y-20798500D01*
X8477277Y-20784214D01*
X8491563Y-20769928D01*
X8491563Y-20798500D01*
X8791563Y-20798500D02*
X8620134Y-20798500D01*
X8705849Y-20798500D02*
X8705849Y-20498500D01*
X8677277Y-20541357D01*
X8648706Y-20569928D01*
X8620134Y-20584214D01*
X8905849Y-20527071D02*
X8920134Y-20512785D01*
X8948706Y-20498500D01*
X9020134Y-20498500D01*
X9048706Y-20512785D01*
X9062991Y-20527071D01*
X9077277Y-20555643D01*
X9077277Y-20584214D01*
X9062991Y-20627071D01*
X8891563Y-20798500D01*
X9077277Y-20798500D01*
X9262991Y-20498500D02*
X9291563Y-20498500D01*
X9320134Y-20512785D01*
X9334420Y-20527071D01*
X9348706Y-20555643D01*
X9362991Y-20612785D01*
X9362991Y-20684214D01*
X9348706Y-20741357D01*
X9334420Y-20769928D01*
X9320134Y-20784214D01*
X9291563Y-20798500D01*
X9262991Y-20798500D01*
X9234420Y-20784214D01*
X9220134Y-20769928D01*
X9205849Y-20741357D01*
X9191563Y-20684214D01*
X9191563Y-20612785D01*
X9205849Y-20555643D01*
X9220134Y-20527071D01*
X9234420Y-20512785D01*
X9262991Y-20498500D01*
X9477277Y-20498500D02*
X9477277Y-20555643D01*
X9591563Y-20498500D02*
X9591563Y-20555643D01*
X10034420Y-20912785D02*
X10020134Y-20898500D01*
X9991563Y-20855643D01*
X9977277Y-20827071D01*
X9962991Y-20784214D01*
X9948706Y-20712785D01*
X9948706Y-20655643D01*
X9962991Y-20584214D01*
X9977277Y-20541357D01*
X9991563Y-20512785D01*
X10020134Y-20469928D01*
X10034420Y-20455643D01*
X10191563Y-20627071D02*
X10162991Y-20612785D01*
X10148706Y-20598500D01*
X10134420Y-20569928D01*
X10134420Y-20555643D01*
X10148706Y-20527071D01*
X10162991Y-20512785D01*
X10191563Y-20498500D01*
X10248706Y-20498500D01*
X10277277Y-20512785D01*
X10291563Y-20527071D01*
X10305849Y-20555643D01*
X10305849Y-20569928D01*
X10291563Y-20598500D01*
X10277277Y-20612785D01*
X10248706Y-20627071D01*
X10191563Y-20627071D01*
X10162991Y-20641357D01*
X10148706Y-20655643D01*
X10134420Y-20684214D01*
X10134420Y-20741357D01*
X10148706Y-20769928D01*
X10162991Y-20784214D01*
X10191563Y-20798500D01*
X10248706Y-20798500D01*
X10277277Y-20784214D01*
X10291563Y-20769928D01*
X10305849Y-20741357D01*
X10305849Y-20684214D01*
X10291563Y-20655643D01*
X10277277Y-20641357D01*
X10248706Y-20627071D01*
X10662991Y-20798500D02*
X10662991Y-20498500D01*
X10791563Y-20798500D02*
X10791563Y-20641357D01*
X10777277Y-20612785D01*
X10748706Y-20598500D01*
X10705849Y-20598500D01*
X10677277Y-20612785D01*
X10662991Y-20627071D01*
X10977277Y-20798500D02*
X10948706Y-20784214D01*
X10934420Y-20769928D01*
X10920134Y-20741357D01*
X10920134Y-20655643D01*
X10934420Y-20627071D01*
X10948706Y-20612785D01*
X10977277Y-20598500D01*
X11020134Y-20598500D01*
X11048706Y-20612785D01*
X11062991Y-20627071D01*
X11077277Y-20655643D01*
X11077277Y-20741357D01*
X11062991Y-20769928D01*
X11048706Y-20784214D01*
X11020134Y-20798500D01*
X10977277Y-20798500D01*
X11248706Y-20798500D02*
X11220134Y-20784214D01*
X11205848Y-20755643D01*
X11205848Y-20498500D01*
X11477277Y-20784214D02*
X11448706Y-20798500D01*
X11391563Y-20798500D01*
X11362991Y-20784214D01*
X11348706Y-20755643D01*
X11348706Y-20641357D01*
X11362991Y-20612785D01*
X11391563Y-20598500D01*
X11448706Y-20598500D01*
X11477277Y-20612785D01*
X11491563Y-20641357D01*
X11491563Y-20669928D01*
X11348706Y-20698500D01*
X11605848Y-20784214D02*
X11634420Y-20798500D01*
X11691563Y-20798500D01*
X11720134Y-20784214D01*
X11734420Y-20755643D01*
X11734420Y-20741357D01*
X11720134Y-20712785D01*
X11691563Y-20698500D01*
X11648706Y-20698500D01*
X11620134Y-20684214D01*
X11605848Y-20655643D01*
X11605848Y-20641357D01*
X11620134Y-20612785D01*
X11648706Y-20598500D01*
X11691563Y-20598500D01*
X11720134Y-20612785D01*
X11834420Y-20912785D02*
X11848706Y-20898500D01*
X11877277Y-20855643D01*
X11891563Y-20827071D01*
X11905848Y-20784214D01*
X11920134Y-20712785D01*
X11920134Y-20655643D01*
X11905848Y-20584214D01*
X11891563Y-20541357D01*
X11877277Y-20512785D01*
X11848706Y-20469928D01*
X11834420Y-20455643D01*
X12377277Y-20912785D02*
X12362991Y-20898500D01*
X12334420Y-20855643D01*
X12320134Y-20827071D01*
X12305848Y-20784214D01*
X12291563Y-20712785D01*
X12291563Y-20655643D01*
X12305848Y-20584214D01*
X12320134Y-20541357D01*
X12334420Y-20512785D01*
X12362991Y-20469928D01*
X12377277Y-20455643D01*
X12491563Y-20598500D02*
X12491563Y-20798500D01*
X12491563Y-20627071D02*
X12505848Y-20612785D01*
X12534420Y-20598500D01*
X12577277Y-20598500D01*
X12605848Y-20612785D01*
X12620134Y-20641357D01*
X12620134Y-20798500D01*
X12805848Y-20798500D02*
X12777277Y-20784214D01*
X12762991Y-20769928D01*
X12748706Y-20741357D01*
X12748706Y-20655643D01*
X12762991Y-20627071D01*
X12777277Y-20612785D01*
X12805848Y-20598500D01*
X12848706Y-20598500D01*
X12877277Y-20612785D01*
X12891563Y-20627071D01*
X12905848Y-20655643D01*
X12905848Y-20741357D01*
X12891563Y-20769928D01*
X12877277Y-20784214D01*
X12848706Y-20798500D01*
X12805848Y-20798500D01*
X12991563Y-20598500D02*
X13105848Y-20598500D01*
X13034420Y-20498500D02*
X13034420Y-20755643D01*
X13048706Y-20784214D01*
X13077277Y-20798500D01*
X13105848Y-20798500D01*
X13434420Y-20598500D02*
X13434420Y-20898500D01*
X13434420Y-20612785D02*
X13462991Y-20598500D01*
X13520134Y-20598500D01*
X13548706Y-20612785D01*
X13562991Y-20627071D01*
X13577277Y-20655643D01*
X13577277Y-20741357D01*
X13562991Y-20769928D01*
X13548706Y-20784214D01*
X13520134Y-20798500D01*
X13462991Y-20798500D01*
X13434420Y-20784214D01*
X13748706Y-20798500D02*
X13720134Y-20784214D01*
X13705848Y-20755643D01*
X13705848Y-20498500D01*
X13991563Y-20798500D02*
X13991563Y-20641357D01*
X13977277Y-20612785D01*
X13948706Y-20598500D01*
X13891563Y-20598500D01*
X13862991Y-20612785D01*
X13991563Y-20784214D02*
X13962991Y-20798500D01*
X13891563Y-20798500D01*
X13862991Y-20784214D01*
X13848706Y-20755643D01*
X13848706Y-20727071D01*
X13862991Y-20698500D01*
X13891563Y-20684214D01*
X13962991Y-20684214D01*
X13991563Y-20669928D01*
X14091563Y-20598500D02*
X14205848Y-20598500D01*
X14134420Y-20498500D02*
X14134420Y-20755643D01*
X14148706Y-20784214D01*
X14177277Y-20798500D01*
X14205848Y-20798500D01*
X14420134Y-20784214D02*
X14391563Y-20798500D01*
X14334420Y-20798500D01*
X14305848Y-20784214D01*
X14291563Y-20755643D01*
X14291563Y-20641357D01*
X14305848Y-20612785D01*
X14334420Y-20598500D01*
X14391563Y-20598500D01*
X14420134Y-20612785D01*
X14434420Y-20641357D01*
X14434420Y-20669928D01*
X14291563Y-20698500D01*
X14691563Y-20798500D02*
X14691563Y-20498500D01*
X14691563Y-20784214D02*
X14662991Y-20798500D01*
X14605848Y-20798500D01*
X14577277Y-20784214D01*
X14562991Y-20769928D01*
X14548706Y-20741357D01*
X14548706Y-20655643D01*
X14562991Y-20627071D01*
X14577277Y-20612785D01*
X14605848Y-20598500D01*
X14662991Y-20598500D01*
X14691563Y-20612785D01*
X14805848Y-20912785D02*
X14820134Y-20898500D01*
X14848706Y-20855643D01*
X14862991Y-20827071D01*
X14877277Y-20784214D01*
X14891563Y-20712785D01*
X14891563Y-20655643D01*
X14877277Y-20584214D01*
X14862991Y-20541357D01*
X14848706Y-20512785D01*
X14820134Y-20469928D01*
X14805848Y-20455643D01*
X5148601Y-21296975D02*
X5347991Y-21097585D01*
X5148601Y-20898195D01*
X4949211Y-21097585D01*
X5148601Y-21296975D01*
X5605848Y-20933300D02*
X5791563Y-20933300D01*
X5691563Y-21047585D01*
X5734420Y-21047585D01*
X5762991Y-21061871D01*
X5777277Y-21076157D01*
X5791563Y-21104728D01*
X5791563Y-21176157D01*
X5777277Y-21204728D01*
X5762991Y-21219014D01*
X5734420Y-21233300D01*
X5648706Y-21233300D01*
X5620134Y-21219014D01*
X5605848Y-21204728D01*
X5920134Y-21204728D02*
X5934420Y-21219014D01*
X5920134Y-21233300D01*
X5905848Y-21219014D01*
X5920134Y-21204728D01*
X5920134Y-21233300D01*
X6077277Y-21233300D02*
X6134420Y-21233300D01*
X6162991Y-21219014D01*
X6177277Y-21204728D01*
X6205848Y-21161871D01*
X6220134Y-21104728D01*
X6220134Y-20990443D01*
X6205848Y-20961871D01*
X6191563Y-20947585D01*
X6162991Y-20933300D01*
X6105848Y-20933300D01*
X6077277Y-20947585D01*
X6062991Y-20961871D01*
X6048706Y-20990443D01*
X6048706Y-21061871D01*
X6062991Y-21090443D01*
X6077277Y-21104728D01*
X6105848Y-21119014D01*
X6162991Y-21119014D01*
X6191563Y-21104728D01*
X6205848Y-21090443D01*
X6220134Y-21061871D01*
X6362991Y-21233300D02*
X6420134Y-21233300D01*
X6448706Y-21219014D01*
X6462991Y-21204728D01*
X6491563Y-21161871D01*
X6505848Y-21104728D01*
X6505848Y-20990443D01*
X6491563Y-20961871D01*
X6477277Y-20947585D01*
X6448706Y-20933300D01*
X6391563Y-20933300D01*
X6362991Y-20947585D01*
X6348706Y-20961871D01*
X6334420Y-20990443D01*
X6334420Y-21061871D01*
X6348706Y-21090443D01*
X6362991Y-21104728D01*
X6391563Y-21119014D01*
X6448706Y-21119014D01*
X6477277Y-21104728D01*
X6491563Y-21090443D01*
X6505848Y-21061871D01*
X6634420Y-21233300D02*
X6634420Y-21033300D01*
X6634420Y-21061871D02*
X6648706Y-21047585D01*
X6677277Y-21033300D01*
X6720134Y-21033300D01*
X6748706Y-21047585D01*
X6762991Y-21076157D01*
X6762991Y-21233300D01*
X6762991Y-21076157D02*
X6777277Y-21047585D01*
X6805848Y-21033300D01*
X6848706Y-21033300D01*
X6877277Y-21047585D01*
X6891563Y-21076157D01*
X6891563Y-21233300D01*
X7034420Y-21233300D02*
X7034420Y-21033300D01*
X7034420Y-21061871D02*
X7048706Y-21047585D01*
X7077277Y-21033300D01*
X7120134Y-21033300D01*
X7148706Y-21047585D01*
X7162991Y-21076157D01*
X7162991Y-21233300D01*
X7162991Y-21076157D02*
X7177277Y-21047585D01*
X7205848Y-21033300D01*
X7248706Y-21033300D01*
X7277277Y-21047585D01*
X7291563Y-21076157D01*
X7291563Y-21233300D01*
X7877277Y-20919014D02*
X7620134Y-21304728D01*
X8262991Y-20933300D02*
X8291563Y-20933300D01*
X8320134Y-20947585D01*
X8334420Y-20961871D01*
X8348706Y-20990443D01*
X8362991Y-21047585D01*
X8362991Y-21119014D01*
X8348706Y-21176157D01*
X8334420Y-21204728D01*
X8320134Y-21219014D01*
X8291563Y-21233300D01*
X8262991Y-21233300D01*
X8234420Y-21219014D01*
X8220134Y-21204728D01*
X8205848Y-21176157D01*
X8191563Y-21119014D01*
X8191563Y-21047585D01*
X8205848Y-20990443D01*
X8220134Y-20961871D01*
X8234420Y-20947585D01*
X8262991Y-20933300D01*
X8491563Y-21204728D02*
X8505849Y-21219014D01*
X8491563Y-21233300D01*
X8477277Y-21219014D01*
X8491563Y-21204728D01*
X8491563Y-21233300D01*
X8791563Y-21233300D02*
X8620134Y-21233300D01*
X8705849Y-21233300D02*
X8705849Y-20933300D01*
X8677277Y-20976157D01*
X8648706Y-21004728D01*
X8620134Y-21019014D01*
X9062991Y-20933300D02*
X8920134Y-20933300D01*
X8905849Y-21076157D01*
X8920134Y-21061871D01*
X8948706Y-21047585D01*
X9020134Y-21047585D01*
X9048706Y-21061871D01*
X9062991Y-21076157D01*
X9077277Y-21104728D01*
X9077277Y-21176157D01*
X9062991Y-21204728D01*
X9048706Y-21219014D01*
X9020134Y-21233300D01*
X8948706Y-21233300D01*
X8920134Y-21219014D01*
X8905849Y-21204728D01*
X9177277Y-20933300D02*
X9377277Y-20933300D01*
X9248706Y-21233300D01*
X9477277Y-20933300D02*
X9477277Y-20990443D01*
X9591563Y-20933300D02*
X9591563Y-20990443D01*
X10034420Y-21347585D02*
X10020134Y-21333300D01*
X9991563Y-21290443D01*
X9977277Y-21261871D01*
X9962991Y-21219014D01*
X9948706Y-21147585D01*
X9948706Y-21090443D01*
X9962991Y-21019014D01*
X9977277Y-20976157D01*
X9991563Y-20947585D01*
X10020134Y-20904728D01*
X10034420Y-20890443D01*
X10191563Y-21061871D02*
X10162991Y-21047585D01*
X10148706Y-21033300D01*
X10134420Y-21004728D01*
X10134420Y-20990443D01*
X10148706Y-20961871D01*
X10162991Y-20947585D01*
X10191563Y-20933300D01*
X10248706Y-20933300D01*
X10277277Y-20947585D01*
X10291563Y-20961871D01*
X10305849Y-20990443D01*
X10305849Y-21004728D01*
X10291563Y-21033300D01*
X10277277Y-21047585D01*
X10248706Y-21061871D01*
X10191563Y-21061871D01*
X10162991Y-21076157D01*
X10148706Y-21090443D01*
X10134420Y-21119014D01*
X10134420Y-21176157D01*
X10148706Y-21204728D01*
X10162991Y-21219014D01*
X10191563Y-21233300D01*
X10248706Y-21233300D01*
X10277277Y-21219014D01*
X10291563Y-21204728D01*
X10305849Y-21176157D01*
X10305849Y-21119014D01*
X10291563Y-21090443D01*
X10277277Y-21076157D01*
X10248706Y-21061871D01*
X10491563Y-20933300D02*
X10520134Y-20933300D01*
X10548706Y-20947585D01*
X10562991Y-20961871D01*
X10577277Y-20990443D01*
X10591563Y-21047585D01*
X10591563Y-21119014D01*
X10577277Y-21176157D01*
X10562991Y-21204728D01*
X10548706Y-21219014D01*
X10520134Y-21233300D01*
X10491563Y-21233300D01*
X10462991Y-21219014D01*
X10448706Y-21204728D01*
X10434420Y-21176157D01*
X10420134Y-21119014D01*
X10420134Y-21047585D01*
X10434420Y-20990443D01*
X10448706Y-20961871D01*
X10462991Y-20947585D01*
X10491563Y-20933300D01*
X10948706Y-21233300D02*
X10948706Y-20933300D01*
X11077277Y-21233300D02*
X11077277Y-21076157D01*
X11062991Y-21047585D01*
X11034420Y-21033300D01*
X10991563Y-21033300D01*
X10962991Y-21047585D01*
X10948706Y-21061871D01*
X11262991Y-21233300D02*
X11234420Y-21219014D01*
X11220134Y-21204728D01*
X11205848Y-21176157D01*
X11205848Y-21090443D01*
X11220134Y-21061871D01*
X11234420Y-21047585D01*
X11262991Y-21033300D01*
X11305848Y-21033300D01*
X11334420Y-21047585D01*
X11348706Y-21061871D01*
X11362991Y-21090443D01*
X11362991Y-21176157D01*
X11348706Y-21204728D01*
X11334420Y-21219014D01*
X11305848Y-21233300D01*
X11262991Y-21233300D01*
X11534420Y-21233300D02*
X11505848Y-21219014D01*
X11491563Y-21190443D01*
X11491563Y-20933300D01*
X11762991Y-21219014D02*
X11734420Y-21233300D01*
X11677277Y-21233300D01*
X11648706Y-21219014D01*
X11634420Y-21190443D01*
X11634420Y-21076157D01*
X11648706Y-21047585D01*
X11677277Y-21033300D01*
X11734420Y-21033300D01*
X11762991Y-21047585D01*
X11777277Y-21076157D01*
X11777277Y-21104728D01*
X11634420Y-21133300D01*
X11891563Y-21219014D02*
X11920134Y-21233300D01*
X11977277Y-21233300D01*
X12005848Y-21219014D01*
X12020134Y-21190443D01*
X12020134Y-21176157D01*
X12005848Y-21147585D01*
X11977277Y-21133300D01*
X11934420Y-21133300D01*
X11905848Y-21119014D01*
X11891563Y-21090443D01*
X11891563Y-21076157D01*
X11905848Y-21047585D01*
X11934420Y-21033300D01*
X11977277Y-21033300D01*
X12005848Y-21047585D01*
X12120134Y-21347585D02*
X12134420Y-21333300D01*
X12162991Y-21290443D01*
X12177277Y-21261871D01*
X12191563Y-21219014D01*
X12205848Y-21147585D01*
X12205848Y-21090443D01*
X12191563Y-21019014D01*
X12177277Y-20976157D01*
X12162991Y-20947585D01*
X12134420Y-20904728D01*
X12120134Y-20890443D01*
X12662991Y-21347585D02*
X12648706Y-21333300D01*
X12620134Y-21290443D01*
X12605848Y-21261871D01*
X12591563Y-21219014D01*
X12577277Y-21147585D01*
X12577277Y-21090443D01*
X12591563Y-21019014D01*
X12605848Y-20976157D01*
X12620134Y-20947585D01*
X12648706Y-20904728D01*
X12662991Y-20890443D01*
X12777277Y-21033300D02*
X12777277Y-21233300D01*
X12777277Y-21061871D02*
X12791563Y-21047585D01*
X12820134Y-21033300D01*
X12862991Y-21033300D01*
X12891563Y-21047585D01*
X12905848Y-21076157D01*
X12905848Y-21233300D01*
X13091563Y-21233300D02*
X13062991Y-21219014D01*
X13048706Y-21204728D01*
X13034420Y-21176157D01*
X13034420Y-21090443D01*
X13048706Y-21061871D01*
X13062991Y-21047585D01*
X13091563Y-21033300D01*
X13134420Y-21033300D01*
X13162991Y-21047585D01*
X13177277Y-21061871D01*
X13191563Y-21090443D01*
X13191563Y-21176157D01*
X13177277Y-21204728D01*
X13162991Y-21219014D01*
X13134420Y-21233300D01*
X13091563Y-21233300D01*
X13277277Y-21033300D02*
X13391563Y-21033300D01*
X13320134Y-20933300D02*
X13320134Y-21190443D01*
X13334420Y-21219014D01*
X13362991Y-21233300D01*
X13391563Y-21233300D01*
X13720134Y-21033300D02*
X13720134Y-21333300D01*
X13720134Y-21047585D02*
X13748706Y-21033300D01*
X13805848Y-21033300D01*
X13834420Y-21047585D01*
X13848706Y-21061871D01*
X13862991Y-21090443D01*
X13862991Y-21176157D01*
X13848706Y-21204728D01*
X13834420Y-21219014D01*
X13805848Y-21233300D01*
X13748706Y-21233300D01*
X13720134Y-21219014D01*
X14034420Y-21233300D02*
X14005848Y-21219014D01*
X13991563Y-21190443D01*
X13991563Y-20933300D01*
X14277277Y-21233300D02*
X14277277Y-21076157D01*
X14262991Y-21047585D01*
X14234420Y-21033300D01*
X14177277Y-21033300D01*
X14148706Y-21047585D01*
X14277277Y-21219014D02*
X14248706Y-21233300D01*
X14177277Y-21233300D01*
X14148706Y-21219014D01*
X14134420Y-21190443D01*
X14134420Y-21161871D01*
X14148706Y-21133300D01*
X14177277Y-21119014D01*
X14248706Y-21119014D01*
X14277277Y-21104728D01*
X14377277Y-21033300D02*
X14491563Y-21033300D01*
X14420134Y-20933300D02*
X14420134Y-21190443D01*
X14434420Y-21219014D01*
X14462991Y-21233300D01*
X14491563Y-21233300D01*
X14705848Y-21219014D02*
X14677277Y-21233300D01*
X14620134Y-21233300D01*
X14591563Y-21219014D01*
X14577277Y-21190443D01*
X14577277Y-21076157D01*
X14591563Y-21047585D01*
X14620134Y-21033300D01*
X14677277Y-21033300D01*
X14705848Y-21047585D01*
X14720134Y-21076157D01*
X14720134Y-21104728D01*
X14577277Y-21133300D01*
X14977277Y-21233300D02*
X14977277Y-20933300D01*
X14977277Y-21219014D02*
X14948706Y-21233300D01*
X14891563Y-21233300D01*
X14862991Y-21219014D01*
X14848706Y-21204728D01*
X14834420Y-21176157D01*
X14834420Y-21090443D01*
X14848706Y-21061871D01*
X14862991Y-21047585D01*
X14891563Y-21033300D01*
X14948706Y-21033300D01*
X14977277Y-21047585D01*
X15091563Y-21347585D02*
X15105848Y-21333300D01*
X15134420Y-21290443D01*
X15148706Y-21261871D01*
X15162991Y-21219014D01*
X15177277Y-21147585D01*
X15177277Y-21090443D01*
X15162991Y-21019014D01*
X15148706Y-20976157D01*
X15134420Y-20947585D01*
X15105848Y-20904728D01*
X15091563Y-20890443D01*
M02*
