M48
; DRILL file {KiCad (5.1.6)-1} date 08/20/20 20:48:19
; FORMAT={-:-/ absolute / metric / decimal}
; #@! TF.CreationDate,2020-08-20T20:48:19+07:00
; #@! TF.GenerationSoftware,Kicad,Pcbnew,(5.1.6)-1
; #@! TF.FileFunction,Plated,1,2,PTH
FMAT,2
METRIC
T1C0.400
T2C0.762
T3C1.000
T4C1.500
T5C3.000
%
G90
G05
T1
X54.94Y-83.8
X58.05Y-83.8
X62.42Y-126.61
X64.65Y-138.83
X62.547Y-168.148
X62.547Y-169.672
X79.057Y-165.608
X79.057Y-167.132
X253.047Y-149.098
X253.047Y-150.622
X269.558Y-146.558
X269.558Y-148.082
X214.947Y-149.098
X214.947Y-150.622
X231.457Y-146.558
X231.457Y-148.082
X181.61Y-168.148
X181.61Y-169.672
X198.12Y-165.608
X198.12Y-167.132
X276.86Y-168.148
X276.86Y-169.672
X293.37Y-165.608
X293.37Y-167.132
X153.035Y-91.948
X153.035Y-93.472
X169.545Y-89.408
X169.545Y-90.932
X83.979Y-168.148
X83.979Y-169.672
X100.489Y-165.608
X100.489Y-167.132
X210.185Y-91.948
X210.185Y-93.472
X226.695Y-89.408
X226.695Y-90.932
X224.472Y-130.048
X224.472Y-131.572
X240.982Y-127.508
X240.982Y-129.032
X324.485Y-91.948
X324.485Y-93.472
X340.995Y-89.408
X340.995Y-90.932
X179.229Y-168.148
X179.229Y-169.672
X195.739Y-165.608
X195.739Y-167.132
X200.66Y-110.998
X200.66Y-112.522
X217.17Y-108.458
X217.17Y-109.982
X143.51Y-110.998
X143.51Y-112.522
X160.02Y-108.458
X160.02Y-109.982
X162.56Y-110.998
X162.56Y-112.522
X179.07Y-108.458
X179.07Y-109.982
X191.135Y-91.948
X191.135Y-93.472
X207.645Y-89.408
X207.645Y-90.932
X229.235Y-91.948
X229.235Y-93.472
X245.745Y-89.408
X245.745Y-90.932
X312.579Y-130.048
X312.579Y-131.572
X329.089Y-127.508
X329.089Y-129.032
X262.572Y-130.048
X262.572Y-131.572
X279.082Y-127.508
X279.082Y-129.032
X250.666Y-168.148
X250.666Y-169.672
X267.176Y-165.608
X267.176Y-167.132
X243.522Y-130.048
X243.522Y-131.572
X260.032Y-127.508
X260.032Y-129.032
X298.291Y-168.148
X298.291Y-169.672
X314.801Y-165.608
X314.801Y-167.132
X272.097Y-149.098
X272.097Y-150.622
X288.607Y-146.558
X288.607Y-148.082
X100.647Y-149.098
X100.647Y-150.622
X117.157Y-146.558
X117.157Y-148.082
X295.91Y-168.148
X295.91Y-169.672
X312.42Y-165.608
X312.42Y-167.132
X86.36Y-110.998
X86.36Y-112.522
X102.87Y-108.458
X102.87Y-109.982
X60.166Y-168.148
X60.166Y-169.672
X76.676Y-165.608
X76.676Y-167.132
X205.422Y-130.048
X205.422Y-131.572
X221.932Y-127.508
X221.932Y-129.032
X110.172Y-168.148
X110.172Y-169.672
X126.682Y-165.608
X126.682Y-167.132
X286.385Y-91.948
X286.385Y-93.472
X302.895Y-89.408
X302.895Y-90.932
X322.104Y-168.148
X322.104Y-169.672
X338.614Y-165.608
X338.614Y-167.132
X276.86Y-110.998
X276.86Y-112.522
X293.37Y-108.458
X293.37Y-109.982
X110.172Y-130.048
X110.172Y-131.572
X126.682Y-127.508
X126.682Y-129.032
X195.897Y-149.098
X195.897Y-150.622
X212.407Y-146.558
X212.407Y-148.082
X107.791Y-168.148
X107.791Y-169.672
X124.301Y-165.608
X124.301Y-167.132
X172.085Y-91.948
X172.085Y-93.472
X188.595Y-89.408
X188.595Y-90.932
X114.935Y-91.948
X114.935Y-93.472
X131.445Y-89.408
X131.445Y-90.932
X148.272Y-130.048
X148.272Y-131.572
X164.782Y-127.508
X164.782Y-129.032
X69.691Y-149.098
X69.691Y-150.622
X86.201Y-146.558
X86.201Y-148.082
X324.485Y-149.098
X324.485Y-150.622
X340.995Y-146.558
X340.995Y-148.082
X274.479Y-168.148
X274.479Y-169.672
X290.989Y-165.608
X290.989Y-167.132
X267.335Y-91.948
X267.335Y-93.472
X283.845Y-89.408
X283.845Y-90.932
X157.797Y-149.098
X157.797Y-150.622
X174.308Y-146.558
X174.308Y-148.082
X105.41Y-110.998
X105.41Y-112.522
X121.92Y-108.458
X121.92Y-109.982
X238.76Y-110.998
X238.76Y-112.522
X255.27Y-108.458
X255.27Y-109.982
X248.285Y-91.948
X248.285Y-93.472
X264.795Y-89.408
X264.795Y-90.932
X138.748Y-149.098
X138.748Y-150.622
X155.257Y-146.558
X155.257Y-148.082
X219.71Y-110.998
X219.71Y-112.522
X236.22Y-108.458
X236.22Y-109.982
X319.722Y-110.998
X319.722Y-112.522
X336.232Y-108.458
X336.232Y-109.982
X124.46Y-110.998
X124.46Y-112.522
X140.97Y-108.458
X140.97Y-109.982
X86.36Y-168.148
X86.36Y-169.672
X102.87Y-165.608
X102.87Y-167.132
X119.697Y-149.098
X119.697Y-150.622
X136.207Y-146.558
X136.207Y-148.082
X257.81Y-110.998
X257.81Y-112.522
X274.32Y-108.458
X274.32Y-109.982
X91.123Y-130.048
X91.123Y-131.572
X107.632Y-127.508
X107.632Y-129.032
X95.885Y-91.948
X95.885Y-93.472
X112.395Y-89.408
X112.395Y-90.932
X129.222Y-130.048
X129.222Y-131.572
X145.732Y-127.508
X145.732Y-129.032
X298.291Y-149.098
X298.291Y-150.622
X314.801Y-146.558
X314.801Y-148.082
X167.322Y-130.048
X167.322Y-131.572
X183.832Y-127.508
X183.832Y-129.032
X253.047Y-168.148
X253.047Y-169.672
X269.558Y-165.608
X269.558Y-167.132
X295.91Y-110.998
X295.91Y-112.522
X312.42Y-108.458
X312.42Y-109.982
X57.785Y-91.948
X57.785Y-93.472
X74.295Y-89.408
X74.295Y-90.932
X319.722Y-168.148
X319.722Y-169.672
X336.232Y-165.608
X336.232Y-167.132
X233.998Y-149.098
X233.998Y-150.622
X250.507Y-146.558
X250.507Y-148.082
X181.61Y-110.998
X181.61Y-112.522
X198.12Y-108.458
X198.12Y-109.982
X281.623Y-130.048
X281.623Y-131.572
X298.132Y-127.508
X298.132Y-129.032
X176.847Y-149.098
X176.847Y-150.622
X193.357Y-146.558
X193.357Y-148.082
X76.835Y-91.948
X76.835Y-93.472
X93.345Y-89.408
X93.345Y-90.932
X133.985Y-91.948
X133.985Y-93.472
X150.495Y-89.408
X150.495Y-90.932
X186.373Y-130.048
X186.373Y-131.572
X202.882Y-127.508
X202.882Y-129.032
X62.547Y-110.998
X62.547Y-112.522
X79.057Y-108.458
X79.057Y-109.982
X305.435Y-91.948
X305.435Y-93.472
X321.945Y-89.408
X321.945Y-90.932
T2
X294.62Y-66.11
X294.62Y-81.35
X297.16Y-66.11
X297.16Y-81.35
X299.7Y-66.11
X299.7Y-81.35
X302.24Y-66.11
X302.24Y-81.35
X304.78Y-66.11
X304.78Y-81.35
X307.32Y-66.11
X307.32Y-81.35
X309.86Y-66.11
X309.86Y-81.35
X312.4Y-66.11
X312.4Y-81.35
X314.94Y-66.11
X314.94Y-81.35
X317.48Y-66.11
X317.48Y-81.35
X320.02Y-66.11
X320.02Y-81.35
X322.56Y-66.11
X322.56Y-81.35
X325.1Y-66.11
X325.1Y-81.35
X327.64Y-66.11
X327.64Y-81.35
X330.18Y-66.11
X330.18Y-81.35
X332.72Y-66.11
X332.72Y-81.35
X335.26Y-66.11
X335.26Y-81.35
X337.8Y-66.11
X337.8Y-81.35
X340.34Y-66.11
X340.34Y-81.35
X342.88Y-66.11
X342.88Y-81.35
T3
X285.44Y-70.03
X285.44Y-72.57
X285.44Y-75.11
X285.44Y-77.65
X59.675Y-71.319
X59.675Y-76.319
X74.175Y-71.319
X74.175Y-73.819
X74.175Y-76.319
T5
X181.927Y-149.86
X188.278Y-147.32
X81.915Y-92.71
X88.265Y-90.17
X139.065Y-92.71
X145.415Y-90.17
X191.452Y-130.81
X197.802Y-128.27
X67.627Y-111.76
X73.977Y-109.22
X310.515Y-92.71
X316.865Y-90.17
X67.627Y-168.91
X73.977Y-166.37
X258.127Y-149.86
X264.477Y-147.32
X220.028Y-149.86
X226.377Y-147.32
X186.69Y-168.91
X193.04Y-166.37
X281.94Y-168.91
X288.29Y-166.37
X158.115Y-92.71
X164.465Y-90.17
X89.059Y-168.91
X95.409Y-166.37
X215.265Y-92.71
X221.615Y-90.17
X229.552Y-130.81
X235.903Y-128.27
X329.565Y-92.71
X335.915Y-90.17
X184.309Y-168.91
X190.659Y-166.37
X205.74Y-111.76
X212.09Y-109.22
X148.59Y-111.76
X154.94Y-109.22
X167.64Y-111.76
X173.99Y-109.22
X196.215Y-92.71
X202.565Y-90.17
X234.315Y-92.71
X240.665Y-90.17
X317.659Y-130.81
X324.009Y-128.27
X267.652Y-130.81
X274.002Y-128.27
X255.746Y-168.91
X262.096Y-166.37
X248.602Y-130.81
X254.952Y-128.27
X303.371Y-168.91
X309.721Y-166.37
X277.178Y-149.86
X283.527Y-147.32
X105.727Y-149.86
X112.078Y-147.32
X300.99Y-168.91
X307.34Y-166.37
X91.44Y-111.76
X97.79Y-109.22
X65.246Y-168.91
X71.596Y-166.37
X210.502Y-130.81
X216.852Y-128.27
X115.252Y-168.91
X121.602Y-166.37
X291.465Y-92.71
X297.815Y-90.17
X327.184Y-168.91
X333.534Y-166.37
X281.94Y-111.76
X288.29Y-109.22
X115.252Y-130.81
X121.602Y-128.27
X200.977Y-149.86
X207.327Y-147.32
X112.871Y-168.91
X119.221Y-166.37
X177.165Y-92.71
X183.515Y-90.17
X120.015Y-92.71
X126.365Y-90.17
X153.352Y-130.81
X159.702Y-128.27
X74.771Y-149.86
X81.121Y-147.32
X329.565Y-149.86
X335.915Y-147.32
X279.559Y-168.91
X285.909Y-166.37
X272.415Y-92.71
X278.765Y-90.17
X162.877Y-149.86
X169.227Y-147.32
X110.49Y-111.76
X116.84Y-109.22
X243.84Y-111.76
X250.19Y-109.22
X253.365Y-92.71
X259.715Y-90.17
X143.827Y-149.86
X150.177Y-147.32
X224.79Y-111.76
X231.14Y-109.22
X324.803Y-111.76
X331.152Y-109.22
X129.54Y-111.76
X135.89Y-109.22
X91.44Y-168.91
X97.79Y-166.37
X124.777Y-149.86
X131.127Y-147.32
X262.89Y-111.76
X269.24Y-109.22
X96.203Y-130.81
X102.552Y-128.27
X100.965Y-92.71
X107.315Y-90.17
X134.302Y-130.81
X140.653Y-128.27
X303.371Y-149.86
X309.721Y-147.32
X172.403Y-130.81
X178.752Y-128.27
X258.127Y-168.91
X264.477Y-166.37
X300.99Y-111.76
X307.34Y-109.22
X62.865Y-92.71
X69.215Y-90.17
X324.803Y-168.91
X331.152Y-166.37
X239.077Y-149.86
X245.427Y-147.32
X186.69Y-111.76
X193.04Y-109.22
X286.702Y-130.81
X293.053Y-128.27
T4
G00X67.325Y-68.219
M15
G01X66.025Y-68.219
M16
G05
G00X67.325Y-79.419
M15
G01X66.025Y-79.419
M16
G05
T0
M30
